<svg width="38" height="35" viewBox="0 0 38 35" fill="none" xmlns="http://www.w3.org/2000/svg">
<path d="M11.5601 20.4185C12.783 22.9803 15.8146 24.7918 18.9994 24.7918C22.1706 24.7918 25.1963 22.9756 26.4298 20.4249" stroke="#2329D6" stroke-linecap="round"/>
<path fill-rule="evenodd" clip-rule="evenodd" d="M14.2498 14.5834C15.1243 14.5834 15.8332 13.9305 15.8332 13.1251C15.8332 12.3197 15.1243 11.6667 14.2498 11.6667C13.3754 11.6667 12.6665 12.3197 12.6665 13.1251C12.6665 13.9305 13.3754 14.5834 14.2498 14.5834Z" fill="#2329D6"/>
<path fill-rule="evenodd" clip-rule="evenodd" d="M23.7498 14.5834C24.6243 14.5834 25.3332 13.9305 25.3332 13.1251C25.3332 12.3197 24.6243 11.6667 23.7498 11.6667C22.8754 11.6667 22.1665 12.3197 22.1665 13.1251C22.1665 13.9305 22.8754 14.5834 23.7498 14.5834Z" fill="#2329D6"/>
<path fill-rule="evenodd" clip-rule="evenodd" d="M18.9998 32.0834C27.7443 32.0834 34.8332 25.5542 34.8332 17.5001C34.8332 9.44593 27.7443 2.91675 18.9998 2.91675C10.2553 2.91675 3.1665 9.44593 3.1665 17.5001C3.1665 25.5542 10.2553 32.0834 18.9998 32.0834Z" stroke="#2329D6"/>
</svg>
