<svg width="30" height="25" viewBox="0 0 30 25" fill="none" xmlns="http://www.w3.org/2000/svg">
<rect width="29.3333" height="23.8554" transform="translate(0.666504 0.180664)" fill="white"/>
<path d="M22.2673 9.59676C22.4902 9.22712 22.3025 8.78047 21.848 8.59915C21.3935 8.41783 20.8443 8.5705 20.6213 8.94014L18.8364 11.8993C18.2832 12.8165 16.6572 12.7717 16.1816 11.8261C15.1071 9.69001 11.4337 9.58882 10.1839 11.6609L8.39907 14.62C8.17612 14.9896 8.36384 15.4363 8.81836 15.6176C9.27288 15.7989 9.82209 15.6463 10.045 15.2766L11.8299 12.3175C12.3831 11.4003 14.0091 11.4451 14.4848 12.3906C15.5593 14.5267 19.2326 14.6279 20.4824 12.5559L22.2673 9.59676Z" fill="#C7B7EB"/>
<path fill-rule="evenodd" clip-rule="evenodd" d="M20.7886 2.5401C19.3926 2.4171 17.6331 2.41711 15.3885 2.41711H15.2779C13.0332 2.41711 11.2737 2.4171 9.87775 2.5401C8.45321 2.66561 7.29896 2.92635 6.31346 3.50865C5.71684 3.86117 5.19216 4.28787 4.75869 4.77307C4.04268 5.57454 3.72207 6.51323 3.56773 7.67174C3.41649 8.807 3.41649 10.2379 3.4165 12.0634V12.1534C3.41649 13.9788 3.41649 15.4098 3.56773 16.545C3.72207 17.7035 4.04268 18.6422 4.75869 19.4437C5.19216 19.9289 5.71684 20.3556 6.31346 20.7081C7.29896 21.2904 8.45321 21.5511 9.87775 21.6767C11.2737 21.7997 13.0331 21.7997 15.2777 21.7996H15.3885C17.6331 21.7997 19.3927 21.7997 20.7886 21.6767C22.2131 21.5511 23.3674 21.2904 24.3529 20.7081C24.9495 20.3556 25.4742 19.9289 25.9077 19.4437C26.6237 18.6422 26.9443 17.7035 27.0986 16.545C27.2499 15.4098 27.2498 13.9789 27.2498 12.1535V12.0634C27.2498 10.238 27.2499 8.80698 27.0986 7.67174C26.9443 6.51323 26.6237 5.57454 25.9077 4.77307C25.4742 4.28787 24.9495 3.86117 24.3529 3.50865C23.3674 2.92635 22.2131 2.66561 20.7886 2.5401ZM7.39106 4.71487C8.01196 4.348 8.80667 4.13416 10.0752 4.02239C11.3609 3.9091 13.0212 3.90808 15.3332 3.90808C17.6451 3.90808 19.3054 3.9091 20.5911 4.02239C21.8597 4.13416 22.6544 4.348 23.2753 4.71487C23.7163 4.97543 24.1041 5.29081 24.4245 5.64944C24.8756 6.15438 25.1385 6.80068 25.2759 7.83234C25.4152 8.87795 25.4165 10.2282 25.4165 12.1084C25.4165 13.9886 25.4152 15.3388 25.2759 16.3844C25.1385 17.4161 24.8756 18.0624 24.4245 18.5673C24.1041 18.926 23.7163 19.2413 23.2753 19.5019C22.6544 19.8688 21.8597 20.0826 20.5911 20.1944C19.3054 20.3077 17.6451 20.3087 15.3332 20.3087C13.0212 20.3087 11.3609 20.3077 10.0752 20.1944C8.80667 20.0826 8.01196 19.8688 7.39106 19.5019C6.95008 19.2413 6.56228 18.926 6.24189 18.5673C5.79078 18.0624 5.52783 17.4161 5.39039 16.3844C5.2511 15.3388 5.24984 13.9886 5.24984 12.1084C5.24984 10.2282 5.2511 8.87795 5.39039 7.83234C5.52783 6.80068 5.79078 6.15438 6.24189 5.64944C6.56228 5.29081 6.95008 4.97543 7.39106 4.71487Z" fill="#C7B7EB"/>
</svg>
