<svg width="30" height="24" viewBox="0 0 30 24" fill="none" xmlns="http://www.w3.org/2000/svg">
<rect width="29.3333" height="23.8554" transform="translate(0.666504 0.0361328)" fill="white"/>
<path d="M22.2673 9.45223C22.4902 9.08258 22.3025 8.63594 21.848 8.45462C21.3935 8.2733 20.8443 8.42597 20.6213 8.79561L18.8364 11.7547C18.2832 12.6719 16.6572 12.6271 16.1816 11.6816C15.1071 9.54548 11.4337 9.44429 10.1839 11.5164L8.39907 14.4755C8.17612 14.8451 8.36384 15.2918 8.81836 15.4731C9.27288 15.6544 9.82209 15.5017 10.045 15.1321L11.8299 12.173C12.3831 11.2558 14.0091 11.3006 14.4848 12.2461C15.5593 14.3822 19.2326 14.4834 20.4824 12.4113L22.2673 9.45223Z" fill="#C7B7EB"/>
<path fill-rule="evenodd" clip-rule="evenodd" d="M20.7886 2.39557C19.3926 2.27257 17.6331 2.27258 15.3885 2.27258H15.2779C13.0332 2.27258 11.2737 2.27257 9.87775 2.39557C8.45321 2.52108 7.29896 2.78182 6.31346 3.36412C5.71684 3.71664 5.19216 4.14334 4.75869 4.62854C4.04268 5.43001 3.72207 6.3687 3.56773 7.52721C3.41649 8.66247 3.41649 10.0934 3.4165 11.9189V12.0088C3.41649 13.8343 3.41649 15.2652 3.56773 16.4005C3.72207 17.559 4.04268 18.4977 4.75869 19.2992C5.19216 19.7844 5.71684 20.2111 6.31346 20.5636C7.29896 21.1459 8.45321 21.4066 9.87775 21.5321C11.2737 21.6551 13.0331 21.6551 15.2777 21.6551H15.3885C17.6331 21.6551 19.3927 21.6551 20.7886 21.5321C22.2131 21.4066 23.3674 21.1459 24.3529 20.5636C24.9495 20.2111 25.4742 19.7844 25.9077 19.2992C26.6237 18.4977 26.9443 17.559 27.0986 16.4005C27.2499 15.2652 27.2498 13.8343 27.2498 12.0089V11.9188C27.2498 10.0934 27.2499 8.66245 27.0986 7.52721C26.9443 6.3687 26.6237 5.43001 25.9077 4.62854C25.4742 4.14334 24.9495 3.71664 24.3529 3.36412C23.3674 2.78182 22.2131 2.52108 20.7886 2.39557ZM7.39106 4.57034C8.01196 4.20347 8.80667 3.98963 10.0752 3.87786C11.3609 3.76457 13.0212 3.76355 15.3332 3.76355C17.6451 3.76355 19.3054 3.76457 20.5911 3.87786C21.8597 3.98963 22.6544 4.20347 23.2753 4.57034C23.7163 4.8309 24.1041 5.14628 24.4245 5.50491C24.8756 6.00985 25.1385 6.65615 25.2759 7.68781C25.4152 8.73342 25.4165 10.0837 25.4165 11.9638C25.4165 13.844 25.4152 15.1943 25.2759 16.2399C25.1385 17.2715 24.8756 17.9178 24.4245 18.4228C24.1041 18.7814 23.7163 19.0968 23.2753 19.3574C22.6544 19.7242 21.8597 19.9381 20.5911 20.0498C19.3054 20.1631 17.6451 20.1641 15.3332 20.1641C13.0212 20.1641 11.3609 20.1631 10.0752 20.0498C8.80667 19.9381 8.01196 19.7242 7.39106 19.3574C6.95008 19.0968 6.56228 18.7814 6.24189 18.4228C5.79078 17.9178 5.52783 17.2715 5.39039 16.2399C5.2511 15.1943 5.24984 13.844 5.24984 11.9638C5.24984 10.0837 5.2511 8.73342 5.39039 7.68781C5.52783 6.65615 5.79078 6.00985 6.24189 5.50491C6.56228 5.14628 6.95008 4.83089 7.39106 4.57034Z" fill="#C7B7EB"/>
</svg>
