<svg width="52" height="46" viewBox="0 0 52 46" fill="none" xmlns="http://www.w3.org/2000/svg">
<path d="M15.8191 27.0022C17.4925 30.296 21.641 32.625 25.9992 32.625C30.3388 32.625 34.4793 30.29 36.1672 27.0104" stroke="#2329D6" stroke-linecap="round"/>
<path fill-rule="evenodd" clip-rule="evenodd" d="M19.4999 19.5C20.6965 19.5 21.6666 18.6605 21.6666 17.625C21.6666 16.5895 20.6965 15.75 19.4999 15.75C18.3033 15.75 17.3333 16.5895 17.3333 17.625C17.3333 18.6605 18.3033 19.5 19.4999 19.5Z" fill="#2329D6"/>
<path fill-rule="evenodd" clip-rule="evenodd" d="M32.4999 19.5C33.6965 19.5 34.6666 18.6605 34.6666 17.625C34.6666 16.5895 33.6965 15.75 32.4999 15.75C31.3033 15.75 30.3333 16.5895 30.3333 17.625C30.3333 18.6605 31.3033 19.5 32.4999 19.5Z" fill="#2329D6"/>
<path fill-rule="evenodd" clip-rule="evenodd" d="M25.9999 42C37.9661 42 47.6666 33.6053 47.6666 23.25C47.6666 12.8947 37.9661 4.5 25.9999 4.5C14.0337 4.5 4.33325 12.8947 4.33325 23.25C4.33325 33.6053 14.0337 42 25.9999 42Z" stroke="#2329D6"/>
</svg>
