<svg width="30" height="25" viewBox="0 0 30 25" fill="none" xmlns="http://www.w3.org/2000/svg">
<rect width="29.3333" height="23.8554" transform="translate(0.666748 0.180664)" fill="white"/>
<path d="M22.2675 9.59676C22.4905 9.22712 22.3027 8.78047 21.8482 8.59915C21.3937 8.41783 20.8445 8.5705 20.6215 8.94014L18.8367 11.8993C18.2835 12.8165 16.6575 12.7717 16.1818 11.8261C15.1073 9.69001 11.434 9.58882 10.1842 11.6609L8.39932 14.62C8.17636 14.9896 8.36408 15.4363 8.8186 15.6176C9.27313 15.7989 9.82233 15.6463 10.0453 15.2766L11.8301 12.3175C12.3834 11.4003 14.0094 11.4451 14.485 12.3906C15.5595 14.5267 19.2328 14.6279 20.4827 12.5559L22.2675 9.59676Z" fill="#C7B7EB"/>
<path fill-rule="evenodd" clip-rule="evenodd" d="M20.7888 2.5401C19.3929 2.4171 17.6334 2.41711 15.3887 2.41711H15.2781C13.0335 2.41711 11.2739 2.4171 9.878 2.5401C8.45345 2.66561 7.29921 2.92635 6.3137 3.50865C5.71708 3.86117 5.19241 4.28787 4.75893 4.77307C4.04292 5.57454 3.72231 6.51323 3.56797 7.67174C3.41673 8.807 3.41674 10.2379 3.41675 12.0634V12.1534C3.41674 13.9788 3.41673 15.4098 3.56797 16.545C3.72231 17.7035 4.04292 18.6422 4.75893 19.4437C5.1924 19.9289 5.71708 20.3556 6.3137 20.7081C7.29921 21.2904 8.45345 21.5511 9.878 21.6767C11.2739 21.7997 13.0334 21.7997 15.278 21.7996H15.3887C17.6333 21.7997 19.3929 21.7997 20.7888 21.6767C22.2134 21.5511 23.3676 21.2904 24.3531 20.7081C24.9497 20.3556 25.4744 19.9289 25.9079 19.4437C26.6239 18.6422 26.9445 17.7035 27.0989 16.545C27.2501 15.4098 27.2501 13.9789 27.2501 12.1535V12.0634C27.2501 10.238 27.2501 8.80698 27.0989 7.67174C26.9445 6.51323 26.6239 5.57454 25.9079 4.77307C25.4744 4.28787 24.9497 3.86117 24.3531 3.50865C23.3676 2.92635 22.2134 2.66561 20.7888 2.5401ZM7.39131 4.71487C8.0122 4.348 8.80691 4.13416 10.0755 4.02239C11.3612 3.9091 13.0215 3.90808 15.3334 3.90808C17.6453 3.90808 19.3056 3.9091 20.5914 4.02239C21.8599 4.13416 22.6546 4.348 23.2755 4.71487C23.7165 4.97543 24.1043 5.29081 24.4247 5.64944C24.8758 6.15438 25.1388 6.80068 25.2762 7.83234C25.4155 8.87795 25.4167 10.2282 25.4167 12.1084C25.4167 13.9886 25.4155 15.3388 25.2762 16.3844C25.1388 17.4161 24.8758 18.0624 24.4247 18.5673C24.1043 18.926 23.7165 19.2413 23.2755 19.5019C22.6546 19.8688 21.8599 20.0826 20.5914 20.1944C19.3056 20.3077 17.6453 20.3087 15.3334 20.3087C13.0215 20.3087 11.3612 20.3077 10.0755 20.1944C8.80691 20.0826 8.0122 19.8688 7.39131 19.5019C6.95033 19.2413 6.56252 18.926 6.24213 18.5673C5.79103 18.0624 5.52808 17.4161 5.39064 16.3844C5.25134 15.3388 5.25008 13.9886 5.25008 12.1084C5.25008 10.2282 5.25134 8.87795 5.39064 7.83234C5.52808 6.80068 5.79103 6.15438 6.24213 5.64944C6.56252 5.29081 6.95033 4.97543 7.39131 4.71487Z" fill="#C7B7EB"/>
</svg>
