<svg width="30" height="24" viewBox="0 0 30 24" fill="none" xmlns="http://www.w3.org/2000/svg">
<rect width="29.3333" height="23.8554" transform="translate(0.666748 0.0361328)" fill="white"/>
<path d="M22.2675 9.45223C22.4905 9.08258 22.3027 8.63594 21.8482 8.45462C21.3937 8.2733 20.8445 8.42597 20.6215 8.79561L18.8367 11.7547C18.2835 12.6719 16.6575 12.6271 16.1818 11.6816C15.1073 9.54548 11.434 9.44429 10.1842 11.5164L8.39932 14.4755C8.17636 14.8451 8.36408 15.2918 8.8186 15.4731C9.27313 15.6544 9.82233 15.5017 10.0453 15.1321L11.8301 12.173C12.3834 11.2558 14.0094 11.3006 14.485 12.2461C15.5595 14.3822 19.2328 14.4834 20.4827 12.4113L22.2675 9.45223Z" fill="#C7B7EB"/>
<path fill-rule="evenodd" clip-rule="evenodd" d="M20.7888 2.39557C19.3929 2.27257 17.6334 2.27258 15.3887 2.27258H15.2781C13.0335 2.27258 11.2739 2.27257 9.878 2.39557C8.45345 2.52108 7.29921 2.78182 6.3137 3.36412C5.71708 3.71664 5.19241 4.14334 4.75893 4.62854C4.04292 5.43001 3.72231 6.3687 3.56797 7.52721C3.41673 8.66247 3.41674 10.0934 3.41675 11.9189V12.0088C3.41674 13.8343 3.41673 15.2652 3.56797 16.4005C3.72231 17.559 4.04292 18.4977 4.75893 19.2992C5.1924 19.7844 5.71708 20.2111 6.3137 20.5636C7.29921 21.1459 8.45345 21.4066 9.878 21.5321C11.2739 21.6551 13.0334 21.6551 15.278 21.6551H15.3887C17.6333 21.6551 19.3929 21.6551 20.7888 21.5321C22.2134 21.4066 23.3676 21.1459 24.3531 20.5636C24.9497 20.2111 25.4744 19.7844 25.9079 19.2992C26.6239 18.4977 26.9445 17.559 27.0989 16.4005C27.2501 15.2652 27.2501 13.8343 27.2501 12.0089V11.9188C27.2501 10.0934 27.2501 8.66245 27.0989 7.52721C26.9445 6.3687 26.6239 5.43001 25.9079 4.62854C25.4744 4.14334 24.9497 3.71664 24.3531 3.36412C23.3676 2.78182 22.2134 2.52108 20.7888 2.39557ZM7.39131 4.57034C8.0122 4.20347 8.80691 3.98963 10.0755 3.87786C11.3612 3.76457 13.0215 3.76355 15.3334 3.76355C17.6453 3.76355 19.3056 3.76457 20.5914 3.87786C21.8599 3.98963 22.6546 4.20347 23.2755 4.57034C23.7165 4.8309 24.1043 5.14628 24.4247 5.50491C24.8758 6.00985 25.1388 6.65615 25.2762 7.68781C25.4155 8.73342 25.4167 10.0837 25.4167 11.9638C25.4167 13.844 25.4155 15.1943 25.2762 16.2399C25.1388 17.2715 24.8758 17.9178 24.4247 18.4228C24.1043 18.7814 23.7165 19.0968 23.2755 19.3574C22.6546 19.7242 21.8599 19.9381 20.5914 20.0498C19.3056 20.1631 17.6453 20.1641 15.3334 20.1641C13.0215 20.1641 11.3612 20.1631 10.0755 20.0498C8.80691 19.9381 8.0122 19.7242 7.39131 19.3574C6.95033 19.0968 6.56252 18.7814 6.24213 18.4228C5.79103 17.9178 5.52808 17.2715 5.39064 16.2399C5.25134 15.1943 5.25008 13.844 5.25008 11.9638C5.25008 10.0837 5.25134 8.73342 5.39064 7.68781C5.52808 6.65615 5.79103 6.00985 6.24213 5.50491C6.56252 5.14628 6.95033 4.83089 7.39131 4.57034Z" fill="#C7B7EB"/>
</svg>
