<svg width="27" height="22" viewBox="0 0 27 22" fill="none" xmlns="http://www.w3.org/2000/svg">
<path d="M15.9098 3.09836H15.1598V3.18069L15.1776 3.26106L15.9098 3.09836ZM15.9098 3.09835H16.6598V3.05241L16.6542 3.00682L15.9098 3.09835ZM15.9098 3.09837L16.6542 3.00684L16.6498 2.97096L16.6419 2.93568L15.9098 3.09837ZM16.3093 4.69336L16.8483 4.17179L16.8483 4.17179L16.3093 4.69336ZM16.9684 4.99617L17.013 4.2475L17.013 4.2475L16.9684 4.99617ZM18.4388 4.26028L18.0234 3.63587L18.0234 3.63587L18.4388 4.26028ZM18.9059 3.94948L19.3214 4.57388L19.3214 4.57388L18.9059 3.94948ZM20.0982 3.38204L20.134 2.63285L20.1253 2.63253L20.0982 3.38204ZM20.1214 3.38315L20.166 2.63443L20.1573 2.63401L20.1214 3.38315ZM21.254 4.06186L20.7808 4.64373L20.7808 4.64373L21.254 4.06186ZM22.3367 4.94238L21.8635 5.52425L21.8635 5.52425L22.3367 4.94238ZM22.8582 5.4269L23.4853 5.0155L23.4853 5.0155L22.8582 5.4269ZM22.9086 6.43811L23.5735 6.78512L23.5735 6.78512L22.9086 6.43811ZM22.4379 6.97209L21.9092 6.44016L21.9092 6.44016L22.4379 6.97209ZM21.6463 7.8802L22.3453 8.15189L22.3453 8.15189L21.6463 7.8802ZM22.0999 9.12057L22.4587 8.46198L22.4587 8.46198L22.0999 9.12057ZM23.2906 9.30368L23.2298 10.0512L23.2298 10.0512L23.2906 9.30368ZM23.8428 9.34858L23.782 10.0961L23.782 10.0961L23.8428 9.34858ZM24.8512 9.53634L25.2396 8.89476L25.2396 8.89476L24.8512 9.53634ZM25.2279 9.94491L24.5569 10.2801L24.5569 10.2801L25.2279 9.94491ZM25.2279 12.8982L24.5569 12.5631L24.5569 12.5631L25.2279 12.8982ZM24.851 13.3069L25.2394 13.9486L25.2394 13.9486L24.851 13.3069ZM23.8429 13.4946L23.7821 12.7471L23.7821 12.7471L23.8429 13.4946ZM23.2908 13.5395L23.3516 14.287L23.3516 14.287L23.2908 13.5395ZM22.1007 13.7225L21.742 13.0638L21.742 13.0638L22.1007 13.7225ZM21.647 14.9632L20.948 15.235L20.948 15.235L21.647 14.9632ZM22.4382 15.8708L22.9669 15.3388L22.9669 15.3388L22.4382 15.8708ZM22.9087 16.4044L23.5735 16.0573L23.5735 16.0573L22.9087 16.4044ZM22.8583 17.4159L23.4853 17.8274L23.4853 17.8274L22.8583 17.4159ZM22.337 17.9002L21.8638 17.3183L21.8638 17.3183L22.337 17.9002ZM21.2542 18.7808L20.781 18.1989L20.781 18.1989L21.2542 18.7808ZM20.1215 19.4595L20.1574 20.2087L20.1661 20.2082L20.1215 19.4595ZM20.0983 19.4607L20.1255 20.2102L20.1342 20.2098L20.0983 19.4607ZM18.906 18.8932L19.3215 18.2688L19.3215 18.2688L18.906 18.8932ZM18.4392 18.5826L18.0238 19.207L18.0238 19.207L18.4392 18.5826ZM16.9682 17.8465L17.0131 18.5952L17.0131 18.5952L16.9682 17.8465ZM16.3096 18.1491L15.7707 17.6274L15.7707 17.6274L16.3096 18.1491ZM15.9098 19.7447L16.6542 19.8362L16.6542 19.8362L15.9098 19.7447ZM15.6837 20.7309L16.3099 21.1436L16.3099 21.1436L15.6837 20.7309ZM15.2929 21.0766L14.9597 20.4046L14.9597 20.4046L15.2929 21.0766ZM11.3737 21.0766L11.0406 21.7486L11.0406 21.7486L11.3737 21.0766ZM10.9827 20.7308L11.609 20.3182L11.609 20.3182L10.9827 20.7308ZM10.7567 19.7448L11.5011 19.6533L11.5011 19.6533L10.7567 19.7448ZM10.357 18.1496L9.81814 18.6712L9.81814 18.6712L10.357 18.1496ZM9.6981 17.8469L9.6534 18.5955L9.65341 18.5955L9.6981 17.8469ZM8.22746 18.5828L8.64294 19.2072L8.64294 19.2072L8.22746 18.5828ZM7.76041 18.8936L7.34494 18.2692L7.34494 18.2692L7.76041 18.8936ZM6.56809 19.4611L6.53226 20.2102L6.54092 20.2106L6.56809 19.4611ZM6.54492 19.4599L6.50037 20.2087L6.50909 20.2091L6.54492 19.4599ZM5.41224 18.7812L4.93903 19.3631L4.93903 19.3631L5.41224 18.7812ZM4.32953 17.9007L4.80274 17.3188L4.80274 17.3188L4.32953 17.9007ZM3.8081 17.4162L4.43518 17.0048L4.43518 17.0048L3.8081 17.4162ZM3.7577 16.405L4.42258 16.752L4.42258 16.752L3.7577 16.405ZM4.22836 15.871L3.69964 15.3391L3.69964 15.3391L4.22836 15.871ZM5.01992 14.963L5.71897 15.2348L5.71897 15.2348L5.01992 14.963ZM4.56626 13.7226L4.20746 14.3812L4.20746 14.3812L4.56626 13.7226ZM3.37566 13.5395L3.31487 14.287L3.31487 14.287L3.37566 13.5395ZM2.82366 13.4946L2.88446 12.7471L2.88446 12.7471L2.82366 13.4946ZM1.8154 13.3069L1.42701 13.9485L1.42701 13.9485L1.8154 13.3069ZM1.43862 12.8982L2.10959 12.5631L2.10959 12.5631L1.43862 12.8982ZM1.43869 9.94484L2.10961 10.28L2.10961 10.28L1.43869 9.94484ZM1.81528 9.53638L2.20376 10.1779L2.20376 10.1779L1.81528 9.53638ZM2.82384 9.34857L2.88464 10.0961L2.88464 10.0961L2.82384 9.34857ZM3.37583 9.30368V8.55368H3.34538L3.31503 8.55615L3.37583 9.30368ZM3.37583 9.30368V10.0537H3.40628L3.43663 10.0512L3.37583 9.30368ZM4.56706 9.12046L4.92602 9.77898L4.92602 9.77898L4.56706 9.12046ZM5.02061 7.88034L4.3215 8.15191L4.3215 8.15191L5.02061 7.88034ZM4.22865 6.97181L4.75738 6.43988L4.75738 6.43988L4.22865 6.97181ZM3.75775 6.43759L3.09281 6.78451L3.09281 6.78451L3.75775 6.43759ZM3.80814 5.42662L3.18099 5.0153L3.18099 5.0153L3.80814 5.42662ZM4.32983 4.94187L4.80304 5.52374L4.80304 5.52374L4.32983 4.94187ZM5.41239 4.06148L4.93918 3.4796L4.93918 3.4796L5.41239 4.06148ZM6.54503 3.38275L6.50918 2.63356L6.50047 2.63407L6.54503 3.38275ZM6.56824 3.38164L6.54109 2.63208L6.53239 2.6325L6.56824 3.38164ZM7.76053 3.94909L7.34505 4.57349L7.34505 4.57349L7.76053 3.94909ZM8.22786 4.26005L8.64389 3.63601L8.64333 3.63564L8.22786 4.26005ZM8.22787 4.26005L7.81184 4.88409L7.81239 4.88446L8.22787 4.26005ZM9.69793 4.99582L9.65342 4.24714L9.65342 4.24714L9.69793 4.99582ZM10.3573 4.69289L10.8963 5.21438L10.8963 5.21438L10.3573 4.69289ZM10.7567 3.09823L11.5011 3.18977L11.5067 3.14417V3.09823H10.7567ZM10.7567 3.09823L10.0123 3.00669L10.0067 3.05229V3.09823H10.7567ZM10.9826 2.11257L10.3563 1.70006L10.3563 1.70006L10.9826 2.11257ZM11.3738 1.76655L11.0408 1.09453L11.0408 1.09453L11.3738 1.76655ZM15.2927 1.7666L15.6258 1.09461L15.6258 1.09461L15.2927 1.7666ZM15.6838 2.11249L16.3101 1.69991L16.3101 1.69991L15.6838 2.11249ZM16.6598 3.09836V3.09835H15.1598V3.09836H16.6598ZM16.6419 2.93568L16.6419 2.93566L15.1776 3.26106L15.1776 3.26107L16.6419 2.93568ZM16.8483 4.17179C16.8774 4.20185 16.8432 4.19399 16.7959 3.98132C16.7488 3.76933 16.7116 3.47365 16.6542 3.00684L15.1654 3.1899C15.219 3.62589 15.2651 4.0073 15.3317 4.30691C15.3981 4.60584 15.5083 4.94407 15.7704 5.21492L16.8483 4.17179ZM17.013 4.2475C16.9506 4.24377 16.8918 4.21676 16.8483 4.17179L15.7704 5.21492C16.075 5.52969 16.4865 5.71878 16.9238 5.74484L17.013 4.2475ZM18.0234 3.63587C17.6318 3.89642 17.3832 4.06081 17.1917 4.16314C16.9995 4.2658 16.9713 4.24501 17.013 4.2475L16.9238 5.74484C17.3 5.76727 17.6284 5.63047 17.8985 5.48617C18.1692 5.34154 18.4886 5.12802 18.8543 4.88468L18.0234 3.63587ZM18.4905 3.32507L18.0234 3.63587L18.8543 4.88468L19.3214 4.57388L18.4905 3.32507ZM20.1253 2.63253C19.7893 2.62037 19.5054 2.72167 19.2566 2.8493C19.0246 2.96828 18.7662 3.14157 18.4905 3.32507L19.3214 4.57388C19.6258 4.37132 19.8026 4.25506 19.9412 4.18392C20.0039 4.15179 20.0394 4.13937 20.0571 4.13449C20.0653 4.13224 20.0693 4.1317 20.0701 4.1316C20.0708 4.13152 20.0707 4.13154 20.071 4.13155L20.1253 2.63253ZM20.1573 2.63401L20.134 2.6329L20.0623 4.13118L20.0856 4.13229L20.1573 2.63401ZM21.7272 3.47999C21.4702 3.27099 21.2296 3.07382 21.0101 2.93323C20.7746 2.78242 20.5016 2.65446 20.166 2.63448L20.0769 4.13183C20.0772 4.13184 20.0771 4.13183 20.0778 4.13197C20.0786 4.13215 20.0825 4.13306 20.0905 4.13609C20.1076 4.14264 20.1418 4.15839 20.2011 4.19636C20.3323 4.28041 20.4971 4.41302 20.7808 4.64373L21.7272 3.47999ZM22.81 4.36051L21.7272 3.47999L20.7808 4.64373L21.8635 5.52425L22.81 4.36051ZM23.4853 5.0155C23.3203 4.76394 23.055 4.55981 22.81 4.36051L21.8635 5.52425C22.0151 5.64755 22.1064 5.72205 22.1718 5.78121C22.2345 5.83784 22.2391 5.85041 22.2311 5.83831L23.4853 5.0155ZM23.5735 6.78512C23.867 6.22284 23.8332 5.54581 23.4853 5.0155L22.2311 5.8383C22.2808 5.91406 22.2857 6.01078 22.2437 6.09111L23.5735 6.78512ZM22.9666 7.50402C23.1907 7.28134 23.4343 7.05184 23.5735 6.78512L22.2437 6.0911C22.2504 6.07827 22.2471 6.09123 22.1904 6.15381C22.1311 6.2192 22.0478 6.3024 21.9092 6.44016L22.9666 7.50402ZM22.3453 8.15189C22.3315 8.1876 22.3307 8.16365 22.4498 8.03127C22.5611 7.90748 22.7219 7.74725 22.9666 7.50402L21.9092 6.44016C21.6773 6.67063 21.4807 6.86567 21.3346 7.02812C21.1962 7.18198 21.0379 7.37524 20.9472 7.60851L22.3453 8.15189ZM22.4587 8.46198C22.3484 8.40183 22.2998 8.26907 22.3453 8.15189L20.9472 7.6085C20.6284 8.42874 20.9683 9.35813 21.7411 9.77916L22.4587 8.46198ZM23.3514 8.55615C23.0075 8.52818 22.7813 8.5095 22.6164 8.48676C22.44 8.46244 22.4251 8.44365 22.4587 8.46198L21.7411 9.77916C21.9608 9.8989 22.2065 9.94444 22.4115 9.9727C22.6279 10.0025 22.904 10.0247 23.2298 10.0512L23.3514 8.55615ZM23.9035 8.60105L23.3514 8.55615L23.2298 10.0512L23.782 10.0961L23.9035 8.60105ZM25.2396 8.89476C25.0237 8.76408 24.8009 8.70684 24.5944 8.67295C24.3975 8.64064 24.1602 8.62192 23.9035 8.60105L23.782 10.0961C24.0631 10.119 24.2291 10.1331 24.3515 10.1532C24.4643 10.1717 24.4768 10.1864 24.4627 10.1779L25.2396 8.89476ZM25.8988 9.60975C25.751 9.31393 25.5225 9.06603 25.2396 8.89476L24.4627 10.1779C24.5031 10.2024 24.5358 10.2378 24.5569 10.2801L25.8988 9.60975ZM26.0833 10.9652C26.0833 10.7077 26.0838 10.4697 26.0676 10.2708C26.0506 10.0623 26.0116 9.8355 25.8988 9.60975L24.5569 10.2801C24.5495 10.2653 24.5633 10.2789 24.5726 10.3929C24.5827 10.5166 24.5833 10.6832 24.5833 10.9652H26.0833ZM26.0833 11.8782V10.9652H24.5833V11.8782H26.0833ZM25.8989 13.2332C26.0116 13.0075 26.0506 12.7809 26.0676 12.5724C26.0838 12.3736 26.0833 12.1356 26.0833 11.8782H24.5833C24.5833 12.1601 24.5827 12.3267 24.5726 12.4503C24.5633 12.5642 24.5496 12.5779 24.5569 12.5631L25.8989 13.2332ZM25.2394 13.9486C25.5224 13.7773 25.7511 13.5292 25.8989 13.2332L24.5569 12.5631C24.5358 12.6054 24.5031 12.6408 24.4627 12.6653L25.2394 13.9486ZM23.9037 14.2421C24.1603 14.2213 24.3975 14.2026 24.5944 14.1703C24.8008 14.1364 25.0236 14.0792 25.2394 13.9486L24.4627 12.6653C24.4768 12.6568 24.4643 12.6716 24.3515 12.6901C24.2291 12.7101 24.0632 12.7242 23.7821 12.7471L23.9037 14.2421ZM23.3516 14.287L23.9037 14.2421L23.7821 12.7471L23.23 12.792L23.3516 14.287ZM22.4594 14.3812C22.4258 14.3995 22.4406 14.3807 22.6169 14.3564C22.7818 14.3337 23.0079 14.315 23.3516 14.287L23.23 12.792C22.9043 12.8185 22.6284 12.8406 22.4121 12.8704C22.2072 12.8987 21.9617 12.9442 21.742 13.0638L22.4594 14.3812ZM22.346 14.6913C22.3004 14.5741 22.349 14.4413 22.4594 14.3811L21.742 13.0638C20.9689 13.4848 20.6289 14.4146 20.948 15.235L22.346 14.6913ZM22.9669 15.3388C22.7224 15.0957 22.5616 14.9356 22.4503 14.8119C22.3313 14.6796 22.3321 14.6556 22.346 14.6913L20.948 15.235C21.0386 15.4681 21.1968 15.6613 21.3352 15.8151C21.4812 15.9774 21.6777 16.1724 21.9095 16.4027L22.9669 15.3388ZM23.5735 16.0573C23.4343 15.7908 23.1908 15.5614 22.9669 15.3388L21.9095 16.4027C22.048 16.5404 22.1313 16.6235 22.1905 16.6889C22.2472 16.7514 22.2505 16.7644 22.2438 16.7516L23.5735 16.0573ZM23.4853 17.8274C23.8334 17.297 23.8672 16.6197 23.5735 16.0573L22.2438 16.7515C22.2858 16.8319 22.281 16.9286 22.2312 17.0044L23.4853 17.8274ZM22.8103 18.482C23.0552 18.2829 23.3203 18.0788 23.4853 17.8274L22.2312 17.0044C22.2392 16.9923 22.2346 17.0049 22.172 17.0615C22.1065 17.1206 22.0154 17.1951 21.8638 17.3183L22.8103 18.482ZM21.7274 19.3627L22.8103 18.482L21.8638 17.3183L20.781 18.1989L21.7274 19.3627ZM20.1661 20.2082C20.5017 20.1882 20.7747 20.0603 21.0102 19.9095C21.2297 19.7689 21.4704 19.5717 21.7274 19.3627L20.781 18.1989C20.4973 18.4297 20.3324 18.5623 20.2012 18.6463C20.1419 18.6843 20.1077 18.7001 20.0906 18.7066C20.0827 18.7096 20.0787 18.7105 20.0779 18.7107C20.0773 18.7109 20.0773 18.7108 20.077 18.7109L20.1661 20.2082ZM20.1342 20.2098L20.1574 20.2087L20.0856 18.7104L20.0624 18.7115L20.1342 20.2098ZM18.4906 19.5176C18.7664 19.7011 19.0248 19.8744 19.2567 19.9934C19.5055 20.121 19.7895 20.2223 20.1255 20.2102L20.0712 18.7111C20.0709 18.7112 20.0709 18.7112 20.0702 18.7111C20.0694 18.711 20.0654 18.7105 20.0572 18.7082C20.0395 18.7033 20.004 18.6909 19.9414 18.6588C19.8027 18.5876 19.626 18.4714 19.3215 18.2688L18.4906 19.5176ZM18.0238 19.207L18.4906 19.5176L19.3215 18.2688L18.8547 17.9582L18.0238 19.207ZM17.0131 18.5952C16.9713 18.5977 16.9995 18.5768 17.1917 18.6795C17.3834 18.7819 17.632 18.9464 18.0238 19.207L18.8547 17.9582C18.4889 17.7148 18.1693 17.5011 17.8985 17.3565C17.6283 17.2121 17.2998 17.0753 16.9234 17.0978L17.0131 18.5952ZM16.8484 18.6708C16.8919 18.6259 16.9506 18.5989 17.0131 18.5952L16.9234 17.0978C16.4865 17.124 16.0752 17.3129 15.7707 17.6274L16.8484 18.6708ZM16.6542 19.8362C16.7116 19.3692 16.7488 19.0734 16.796 18.8614C16.8433 18.6486 16.8775 18.6408 16.8484 18.6708L15.7707 17.6274C15.5085 17.8983 15.3983 18.2367 15.3318 18.5357C15.2651 18.8354 15.219 19.217 15.1654 19.6531L16.6542 19.8362ZM16.3099 21.1436C16.4474 20.9349 16.5132 20.7172 16.5552 20.514C16.5952 20.3208 16.6233 20.0876 16.6542 19.8362L15.1654 19.6531C15.1315 19.9289 15.111 20.0909 15.0863 20.2101C15.0637 20.3194 15.0488 20.3313 15.0574 20.3182L16.3099 21.1436ZM15.6261 21.7485C15.9035 21.6109 16.1395 21.4022 16.3099 21.1436L15.0574 20.3182C15.0331 20.3552 14.9994 20.385 14.9597 20.4046L15.6261 21.7485ZM14.2864 21.9307C14.5397 21.9307 14.7746 21.9312 14.9712 21.9152C15.178 21.8982 15.4022 21.8595 15.6261 21.7485L14.9597 20.4046C14.9737 20.3977 14.9601 20.411 14.8489 20.4201C14.7276 20.4301 14.5642 20.4307 14.2864 20.4307V21.9307ZM12.3799 21.9307H14.2864V20.4307H12.3799V21.9307ZM11.0406 21.7486C11.2644 21.8596 11.4885 21.8982 11.6952 21.9152C11.8918 21.9312 12.1267 21.9307 12.3799 21.9307V20.4307C12.1022 20.4307 11.9389 20.4301 11.8176 20.4202C11.7063 20.4111 11.6928 20.3977 11.7068 20.4047L11.0406 21.7486ZM10.3564 21.1434C10.5269 21.4022 10.763 21.611 11.0406 21.7486L11.7068 20.4047C11.6671 20.385 11.6334 20.3552 11.609 20.3182L10.3564 21.1434ZM10.0123 19.8363C10.0432 20.0876 10.0713 20.3208 10.1112 20.514C10.1532 20.7171 10.219 20.9348 10.3564 21.1434L11.609 20.3182C11.6176 20.3312 11.6027 20.3194 11.5801 20.2101C11.5555 20.0909 11.535 19.9289 11.5011 19.6533L10.0123 19.8363ZM9.81814 18.6712C9.78905 18.6411 9.82321 18.649 9.87051 18.8617C9.91766 19.0737 9.95487 19.3695 10.0123 19.8363L11.5011 19.6533C11.4474 19.2172 11.4014 18.8357 11.3347 18.5361C11.2683 18.2371 11.1581 17.8988 10.8959 17.628L9.81814 18.6712ZM9.65341 18.5955C9.71585 18.5992 9.77463 18.6263 9.81814 18.6712L10.8959 17.628C10.5914 17.3133 10.1799 17.1243 9.7428 17.0982L9.65341 18.5955ZM8.64294 19.2072C9.03457 18.9466 9.28318 18.7822 9.47475 18.6799C9.66694 18.5772 9.69516 18.598 9.6534 18.5955L9.74281 17.0982C9.36651 17.0757 9.0381 17.2125 8.76796 17.3568C8.4972 17.5015 8.17776 17.715 7.81199 17.9584L8.64294 19.2072ZM8.17588 19.518L8.64294 19.2072L7.81199 17.9584L7.34494 18.2692L8.17588 19.518ZM6.54092 20.2106C6.87693 20.2227 7.16093 20.1214 7.40973 19.9938C7.64167 19.8748 7.90009 19.7015 8.17588 19.518L7.34494 18.2692C7.0405 18.4718 6.86373 18.588 6.72506 18.6592C6.66243 18.6913 6.6269 18.7037 6.60921 18.7086C6.60103 18.7109 6.59702 18.7114 6.5962 18.7115C6.59555 18.7116 6.59556 18.7116 6.59526 18.7115L6.54092 20.2106ZM6.50909 20.2091L6.53226 20.2102L6.60392 18.7119L6.58075 18.7108L6.50909 20.2091ZM4.93903 19.3631C5.19605 19.5721 5.43673 19.7693 5.65624 19.9099C5.89172 20.0607 6.16474 20.1887 6.50037 20.2086L6.58946 18.7113C6.58915 18.7112 6.58917 18.7113 6.58852 18.7111C6.58772 18.7109 6.58378 18.71 6.57585 18.707C6.55871 18.7005 6.52453 18.6847 6.46525 18.6467C6.33401 18.5627 6.16916 18.4301 5.88545 18.1993L4.93903 19.3631ZM3.85632 18.4826L4.93903 19.3631L5.88545 18.1993L4.80274 17.3188L3.85632 18.4826ZM3.18102 17.8276C3.34605 18.0792 3.61129 18.2833 3.85632 18.4826L4.80274 17.3188C4.65115 17.1955 4.55993 17.121 4.49447 17.0619C4.43183 17.0053 4.42724 16.9927 4.43518 17.0048L3.18102 17.8276ZM3.09281 16.0579C2.79933 16.6202 2.83308 17.2973 3.18102 17.8276L4.43518 17.0048C4.38548 16.929 4.38066 16.8323 4.42258 16.752L3.09281 16.0579ZM3.69964 15.3391C3.47563 15.5618 3.23201 15.7912 3.09281 16.0579L4.42258 16.752C4.41588 16.7648 4.4192 16.7519 4.4759 16.6893C4.53515 16.6239 4.61851 16.5407 4.75709 16.403L3.69964 15.3391ZM4.32087 14.6913C4.33475 14.6556 4.3355 14.6796 4.21644 14.8119C4.1051 14.9357 3.94431 15.0959 3.69964 15.3391L4.75709 16.403C4.98893 16.1725 5.18553 15.9775 5.33164 15.8151C5.47003 15.6612 5.62831 15.468 5.71897 15.2348L4.32087 14.6913ZM4.20746 14.3812C4.31786 14.4413 4.36642 14.5741 4.32087 14.6913L5.71897 15.2348C6.03781 14.4145 5.69789 13.485 4.92506 13.064L4.20746 14.3812ZM3.31487 14.287C3.65872 14.315 3.88493 14.3337 4.04986 14.3564C4.22622 14.3807 4.2411 14.3995 4.20746 14.3812L4.92506 13.064C4.70532 12.9443 4.45972 12.8987 4.25473 12.8705C4.0383 12.8406 3.76226 12.8185 3.43645 12.792L3.31487 14.287ZM2.76287 14.2422L3.31487 14.287L3.43645 12.792L2.88446 12.7471L2.76287 14.2422ZM1.42701 13.9485C1.64285 14.0792 1.86566 14.1364 2.0721 14.1703C2.26897 14.2026 2.50628 14.2213 2.76287 14.2422L2.88446 12.7471C2.60336 12.7242 2.43742 12.7101 2.31501 12.6901C2.20217 12.6715 2.1897 12.6568 2.20379 12.6653L1.42701 13.9485ZM0.767646 13.2333C0.915433 13.5293 1.14405 13.7772 1.42701 13.9485L2.20379 12.6653C2.16337 12.6408 2.13071 12.6054 2.10959 12.5631L0.767646 13.2333ZM0.583252 11.8781C0.583252 12.1355 0.58267 12.3736 0.598913 12.5724C0.615945 12.7809 0.654919 13.0076 0.767647 13.2333L2.10959 12.5631C2.11695 12.5779 2.10324 12.5642 2.09393 12.4503C2.08383 12.3266 2.08325 12.1601 2.08325 11.8781H0.583252ZM0.583252 10.9653V11.8781H2.08325V10.9653H0.583252ZM0.767761 9.60964C0.654964 9.83541 0.615966 10.0622 0.598923 10.2708C0.58267 10.4697 0.583252 10.7078 0.583252 10.9653H2.08325C2.08325 10.6832 2.08383 10.5166 2.09394 10.3929C2.10326 10.2789 2.11697 10.2653 2.10961 10.28L0.767761 9.60964ZM1.42679 8.89483C1.14401 9.06607 0.915512 9.3139 0.76776 9.60964L2.10961 10.28C2.13072 10.2378 2.16336 10.2024 2.20376 10.1779L1.42679 8.89483ZM2.76305 8.60104C2.50638 8.62192 2.26899 8.64064 2.07207 8.67296C1.86556 8.70685 1.64268 8.7641 1.42679 8.89483L2.20376 10.1779C2.18967 10.1865 2.20214 10.1717 2.31501 10.1532C2.43746 10.1331 2.60345 10.119 2.88464 10.0961L2.76305 8.60104ZM3.31503 8.55615L2.76305 8.60104L2.88464 10.0961L3.43662 10.0512L3.31503 8.55615ZM3.37583 8.55368H3.37583V10.0537H3.37583V8.55368ZM4.20811 8.46193C4.24176 8.44359 4.22689 8.46239 4.05043 8.48673C3.88542 8.50948 3.65908 8.52817 3.31504 8.55615L3.43663 10.0512C3.76261 10.0247 4.0388 10.0025 4.25534 9.97266C4.46045 9.94438 4.70617 9.89881 4.92602 9.77898L4.20811 8.46193ZM4.3215 8.15191C4.367 8.26906 4.31846 8.40178 4.20811 8.46194L4.92602 9.77898C5.69847 9.35792 6.03826 8.42885 5.71972 7.60878L4.3215 8.15191ZM3.69993 7.50374C3.94474 7.74708 4.10562 7.90739 4.21702 8.03123C4.33614 8.16367 4.33537 8.18763 4.3215 8.15191L5.71972 7.60878C5.62906 7.37539 5.47071 7.18204 5.33224 7.02811C5.18606 6.86558 4.98935 6.67045 4.75738 6.43988L3.69993 7.50374ZM3.09281 6.78451C3.23203 7.05137 3.4758 7.28097 3.69993 7.50374L4.75738 6.43988C4.61873 6.30207 4.53532 6.21883 4.47604 6.15341C4.4193 6.0908 4.41599 6.07783 4.42269 6.09068L3.09281 6.78451ZM3.18099 5.0153C2.83325 5.54551 2.79952 6.22234 3.09281 6.78451L4.42269 6.09068C4.3808 6.01037 4.38562 5.91368 4.43529 5.83793L3.18099 5.0153ZM3.85663 4.36C3.61146 4.55938 3.34607 4.7636 3.18099 5.0153L4.43529 5.83793C4.42735 5.85005 4.43193 5.83747 4.49461 5.78082C4.5601 5.72162 4.65137 5.64709 4.80304 5.52374L3.85663 4.36ZM4.93918 3.4796L3.85663 4.36L4.80304 5.52374L5.8856 4.64335L4.93918 3.4796ZM6.50047 2.63407C6.16485 2.65405 5.89184 2.78201 5.65637 2.93283C5.43687 3.07342 5.19619 3.2706 4.93918 3.4796L5.8856 4.64335C6.1693 4.41263 6.33414 4.28002 6.46538 4.19596C6.52466 4.15799 6.55884 4.14224 6.57598 4.13569C6.58391 4.13266 6.58784 4.13175 6.58865 4.13157C6.5893 4.13143 6.58928 4.13144 6.58959 4.13143L6.50047 2.63407ZM6.53239 2.6325L6.50918 2.63361L6.58088 4.13189L6.60409 4.13078L6.53239 2.6325ZM8.176 3.32468C7.90021 3.14117 7.6418 2.96788 7.40987 2.8489C7.16107 2.72127 6.87709 2.61996 6.54109 2.63213L6.59539 4.13115C6.5957 4.13114 6.59568 4.13112 6.59634 4.1312C6.59716 4.1313 6.60117 4.13184 6.60935 4.13409C6.62704 4.13897 6.66256 4.15139 6.72519 4.18352C6.86386 4.25466 7.04062 4.37093 7.34505 4.57349L8.176 3.32468ZM8.64333 3.63564L8.176 3.32468L7.34505 4.57349L7.81239 4.88445L8.64333 3.63564ZM8.64389 3.63601L8.64389 3.63601L7.81184 4.88408L7.81184 4.88409L8.64389 3.63601ZM9.65342 4.24714C9.69516 4.24466 9.66695 4.26544 9.47483 4.16279C9.28333 4.06048 9.03482 3.89613 8.64334 3.63564L7.81239 4.88446C8.17802 5.12774 8.49733 5.34121 8.76799 5.48581C9.03802 5.63008 9.36629 5.76686 9.74245 5.7445L9.65342 4.24714ZM9.81826 4.17141C9.77473 4.2164 9.71591 4.24342 9.65342 4.24714L9.74245 5.7445C10.1799 5.71849 10.5916 5.52932 10.8963 5.21438L9.81826 4.17141ZM10.0123 3.0067C9.95492 3.47341 9.91772 3.76902 9.8706 3.98097C9.82332 4.19359 9.78918 4.20146 9.81826 4.17141L10.8963 5.21438C11.1583 4.94355 11.2684 4.60539 11.3348 4.30653C11.4014 4.00698 11.4475 3.62565 11.5011 3.18977L10.0123 3.0067ZM10.0067 3.09823V3.09823H11.5067V3.09823H10.0067ZM10.3563 1.70006C10.2189 1.90865 10.1532 2.12629 10.1112 2.32931C10.0713 2.52241 10.0432 2.75551 10.0123 3.00669L11.5011 3.18976C11.535 2.91422 11.5555 2.75227 11.5801 2.63312C11.6027 2.52388 11.6176 2.51206 11.609 2.52508L10.3563 1.70006ZM11.0408 1.09453C10.763 1.23217 10.5268 1.44114 10.3563 1.70006L11.609 2.52509C11.6334 2.4881 11.6671 2.45824 11.7068 2.43858L11.0408 1.09453ZM12.3797 0.91259C12.1266 0.91259 11.8918 0.912007 11.6953 0.928081C11.4887 0.944979 11.2646 0.983638 11.0408 1.09453L11.7068 2.43858C11.6928 2.4455 11.7064 2.43218 11.8176 2.42309C11.9388 2.41317 12.1021 2.41259 12.3797 2.41259V0.91259ZM14.2866 0.91259H12.3797V2.41259H14.2866V0.91259ZM15.6258 1.09461C15.402 0.983671 15.1779 0.944994 14.9712 0.928087C14.7746 0.912007 14.5398 0.91259 14.2866 0.91259V2.41259C14.5643 2.41259 14.7276 2.41317 14.8489 2.42309C14.9601 2.43219 14.9737 2.44552 14.9597 2.43859L15.6258 1.09461ZM16.3101 1.69991C16.1396 1.44111 15.9035 1.23222 15.6258 1.09461L14.9597 2.43859C14.9993 2.45825 15.0331 2.48809 15.0574 2.52506L16.3101 1.69991ZM16.6542 3.00682C16.6233 2.75558 16.5952 2.52243 16.5552 2.32928C16.5132 2.12621 16.4475 1.90853 16.3101 1.69991L15.0574 2.52506C15.0489 2.51204 15.0637 2.52386 15.0863 2.63312C15.111 2.75229 15.1315 2.91428 15.1654 3.18989L16.6542 3.00682ZM17.3833 11.4217C17.3833 13.0259 15.7224 14.5753 13.3333 14.5753V16.0753C16.2462 16.0753 18.8833 14.1292 18.8833 11.4217H17.3833ZM13.3333 8.26805C15.7224 8.26805 17.3833 9.81742 17.3833 11.4217H18.8833C18.8833 8.7141 16.2462 6.76805 13.3333 6.76805V8.26805ZM9.2833 11.4217C9.2833 9.81742 10.9442 8.26805 13.3333 8.26805V6.76805C10.4204 6.76805 7.7833 8.7141 7.7833 11.4217H9.2833ZM13.3333 14.5753C10.9442 14.5753 9.2833 13.0259 9.2833 11.4217H7.7833C7.7833 14.1292 10.4204 16.0753 13.3333 16.0753V14.5753Z" fill="#757575"/>
</svg>
