<svg width="30" height="25" viewBox="0 0 30 25" fill="none" xmlns="http://www.w3.org/2000/svg">
<g clip-path="url(#clip0_90_10273)">
<rect width="29.3333" height="23.8554" transform="translate(0.666748 0.180664)" fill="white"/>
<path fill-rule="evenodd" clip-rule="evenodd" d="M15.2925 1.4231H17.819C19.4955 1.42309 20.81 1.42309 21.8664 1.49328C22.9421 1.56476 23.8308 1.71272 24.6352 2.04603C25.9575 2.59398 27.0327 3.46832 27.7064 4.54374C28.1163 5.1979 28.2982 5.92063 28.3861 6.79547C28.4724 7.65461 28.4724 8.72356 28.4724 10.087V14.3233C28.4724 16.8055 25.9981 18.8177 22.9459 18.8177H22.2105C21.9067 18.8177 21.6991 19.0671 21.8119 19.2965C22.6511 21.0028 20.2348 22.5454 18.3959 21.4772L16.1268 20.1591C15.6187 20.3058 15.0777 20.3949 14.5158 20.4168C14.3812 20.4221 14.2129 20.4221 13.9475 20.4221H13.9147L13.8446 20.4221C13.0647 20.4262 12.3038 20.6269 11.664 20.9985L11.6184 21.0253L9.13657 22.4866C7.50083 23.4498 5.4606 22.0398 6.16584 20.5864C6.18633 20.5442 6.17933 20.5041 6.15113 20.4698C6.12328 20.4359 6.08774 20.4221 6.04652 20.4221H5.47448C2.97639 20.4221 0.972412 18.7555 0.972412 16.721L0.972412 13.3752C0.972405 12.3054 0.9724 11.4576 1.04013 10.7742C1.10938 10.0755 1.25386 9.48378 1.58812 8.943C2.13 8.06631 2.99586 7.35166 4.06367 6.90315C4.28086 6.81193 4.50473 6.73775 4.73787 6.67722C4.8303 5.85347 5.01503 5.16626 5.40506 4.54374C6.07884 3.46832 7.15395 2.59398 8.47631 2.04603C9.28069 1.71272 10.1694 1.56476 11.2451 1.49328C12.3015 1.42309 13.616 1.42309 15.2925 1.4231ZM6.61682 6.43066C7.38721 6.39291 8.29772 6.39294 9.39175 6.39297L11.436 6.39298C12.7325 6.39297 13.7622 6.39296 14.5927 6.4489C15.443 6.50617 16.1654 6.62585 16.8256 6.90315C17.8934 7.35166 18.7593 8.06631 19.3011 8.943C19.6354 9.48378 19.7799 10.0755 19.8491 10.7742C19.9169 11.4576 19.9169 12.3054 19.9169 13.3752V15.5449C19.9169 15.7426 19.9169 15.8682 19.9105 15.9785C19.833 17.3293 19.0597 18.5305 17.875 19.3424L19.4615 20.264C19.8104 20.4667 20.2689 20.174 20.1097 19.8502C19.5152 18.6415 20.6097 17.3267 22.2105 17.3267H22.9459C24.9856 17.3267 26.6391 15.982 26.6391 14.3233V10.1204C26.6391 8.71639 26.6384 7.70822 26.5589 6.91688C26.4802 6.13425 26.3291 5.62957 26.0729 5.22062C25.5749 4.42575 24.7803 3.7795 23.8029 3.37449C23.3 3.16612 22.6794 3.04324 21.7171 2.97929C20.744 2.91464 19.5044 2.91406 17.778 2.91406H15.3335C13.6071 2.91406 12.3675 2.91464 11.3944 2.97929C10.4321 3.04324 9.81149 3.16612 9.30863 3.37449C8.33123 3.7795 7.53658 4.42575 7.03857 5.22062C6.83894 5.53925 6.70402 5.91406 6.61682 6.43066ZM9.49402 7.88394C7.65534 7.88394 6.56456 7.8869 5.76839 8.00409C5.40766 8.05719 5.13626 8.13071 4.90495 8.22787C4.18406 8.53066 3.59566 9.01481 3.22615 9.61262C3.04235 9.90998 2.92781 10.2859 2.86754 10.894C2.80644 11.5104 2.80575 12.2982 2.80575 13.4075V16.721C2.80575 17.9511 4.01224 18.9311 5.47448 18.9311H6.04652C7.45245 18.9311 8.37676 20.0918 7.87119 21.1337C7.84983 21.1777 7.85545 21.2013 7.86018 21.2141C7.86706 21.2328 7.8844 21.2563 7.91485 21.276C7.94534 21.2957 7.97353 21.3018 7.98943 21.3025C7.99724 21.3029 8.0191 21.3039 8.06141 21.279L10.5432 19.8176L10.5984 19.7852C11.5443 19.2358 12.6729 18.9373 13.8327 18.9312L13.9147 18.9311C14.2234 18.9311 14.3434 18.9309 14.4279 18.9276C14.9379 18.9077 15.4202 18.8062 15.8574 18.6388C17.1167 18.1567 18.0093 17.1253 18.0792 15.9089C18.0833 15.8381 18.0835 15.75 18.0835 15.5224V13.4075C18.0835 12.2982 18.0828 11.5104 18.0217 10.894C17.9615 10.2859 17.8469 9.90998 17.6631 9.61262C17.2936 9.01481 16.7052 8.53066 15.9843 8.22787C15.6278 8.07812 15.1763 7.98427 14.4414 7.93478C13.6954 7.88454 12.7416 7.88394 11.3953 7.88394H9.49402Z" fill="#5534A5"/>
<path d="M8.00019 14.0963C8.00019 14.6452 7.45298 15.0903 6.77797 15.0903C6.10295 15.0903 5.55575 14.6452 5.55575 14.0963C5.55575 13.5473 6.10295 13.1023 6.77797 13.1023C7.45298 13.1023 8.00019 13.5473 8.00019 14.0963Z" fill="#5534A5"/>
<path d="M11.6669 14.0963C11.6669 14.6452 11.1196 15.0903 10.4446 15.0903C9.76962 15.0903 9.22241 14.6452 9.22241 14.0963C9.22241 13.5473 9.76962 13.1023 10.4446 13.1023C11.1196 13.1023 11.6669 13.5473 11.6669 14.0963Z" fill="#5534A5"/>
<path d="M15.3335 14.0963C15.3335 14.6452 14.7863 15.0903 14.1113 15.0903C13.4363 15.0903 12.8891 14.6452 12.8891 14.0963C12.8891 13.5473 13.4363 13.1023 14.1113 13.1023C14.7863 13.1023 15.3335 13.5473 15.3335 14.0963Z" fill="#5534A5"/>
</g>
<defs>
<clipPath id="clip0_90_10273">
<rect width="29.3333" height="23.8554" fill="white" transform="translate(0.666748 0.180664)"/>
</clipPath>
</defs>
</svg>
