<svg width="30" height="25" viewBox="0 0 30 25" fill="none" xmlns="http://www.w3.org/2000/svg">
<path opacity="0.4" d="M20.3146 2.54211H24.453C26.1668 2.54211 27.5556 3.68106 27.5556 5.08666V8.48065C27.5556 9.88624 26.1668 11.0252 24.453 11.0252H20.3146C18.6007 11.0252 17.2119 9.88624 17.2119 8.48065V5.08666C17.2119 3.68106 18.6007 2.54211 20.3146 2.54211" fill="#C7B7EB"/>
<path fill-rule="evenodd" clip-rule="evenodd" d="M6.21373 2.54211H10.3521C12.066 2.54211 13.4548 3.68106 13.4548 5.08666V8.48065C13.4548 9.88624 12.066 11.0252 10.3521 11.0252H6.21373C4.49984 11.0252 3.11108 9.88624 3.11108 8.48065V5.08666C3.11108 3.68106 4.49984 2.54211 6.21373 2.54211ZM6.21373 13.9386H10.3521C12.066 13.9386 13.4548 15.0775 13.4548 16.4831V19.8771C13.4548 21.2817 12.066 22.4216 10.3521 22.4216H6.21373C4.49984 22.4216 3.11108 21.2817 3.11108 19.8771V16.4831C3.11108 15.0775 4.49984 13.9386 6.21373 13.9386ZM24.4529 13.9386H20.3145C18.6006 13.9386 17.2118 15.0775 17.2118 16.4831V19.8771C17.2118 21.2817 18.6006 22.4216 20.3145 22.4216H24.4529C26.1668 22.4216 27.5555 21.2817 27.5555 19.8771V16.4831C27.5555 15.0775 26.1668 13.9386 24.4529 13.9386Z" fill="#C7B7EB"/>
</svg>
