<svg width="38" height="35" viewBox="0 0 38 35" fill="none" xmlns="http://www.w3.org/2000/svg">
<path d="M11.5601 20.4183C12.783 22.9802 15.8146 24.7917 18.9994 24.7917C22.1706 24.7917 25.1963 22.9755 26.4298 20.4247" stroke="#2329D6" stroke-linecap="round"/>
<path fill-rule="evenodd" clip-rule="evenodd" d="M14.2501 14.5833C15.1245 14.5833 15.8334 13.9304 15.8334 13.125C15.8334 12.3195 15.1245 11.6666 14.2501 11.6666C13.3756 11.6666 12.6667 12.3195 12.6667 13.125C12.6667 13.9304 13.3756 14.5833 14.2501 14.5833Z" fill="#2329D6"/>
<path fill-rule="evenodd" clip-rule="evenodd" d="M23.7501 14.5833C24.6245 14.5833 25.3334 13.9304 25.3334 13.125C25.3334 12.3195 24.6245 11.6666 23.7501 11.6666C22.8756 11.6666 22.1667 12.3195 22.1667 13.125C22.1667 13.9304 22.8756 14.5833 23.7501 14.5833Z" fill="#2329D6"/>
<path fill-rule="evenodd" clip-rule="evenodd" d="M19.0001 32.0833C27.7446 32.0833 34.8334 25.5541 34.8334 17.5C34.8334 9.44581 27.7446 2.91663 19.0001 2.91663C10.2556 2.91663 3.16675 9.44581 3.16675 17.5C3.16675 25.5541 10.2556 32.0833 19.0001 32.0833Z" stroke="#2329D6"/>
</svg>
