<svg width="22" height="23" viewBox="0 0 22 23" fill="none" xmlns="http://www.w3.org/2000/svg">
<path fill-rule="evenodd" clip-rule="evenodd" d="M15.7674 0.0916748C19.4953 0.0916748 22 2.70747 22 6.59927V15.5841C22 19.4759 19.4953 22.0917 15.7663 22.0917H6.2315C2.5036 22.0917 0 19.4759 0 15.5841V6.59927C0 2.70747 2.5036 0.0916748 6.2315 0.0916748H15.7674ZM15.7674 1.74167H6.2315C3.4485 1.74167 1.65 3.64797 1.65 6.59927V15.5841C1.65 18.5354 3.4485 20.4417 6.2315 20.4417H15.7663C18.5504 20.4417 20.35 18.5354 20.35 15.5841V6.59927C20.35 3.64797 18.5504 1.74167 15.7674 1.74167ZM15.4985 7.89838C15.8208 8.22068 15.8208 8.74207 15.4985 9.06437L10.2779 14.285C10.1173 14.4467 9.90605 14.527 9.69485 14.527C9.48475 14.527 9.27245 14.4467 9.11185 14.285L6.50045 11.6747C6.17815 11.3524 6.17815 10.831 6.50045 10.5087C6.82275 10.1864 7.34415 10.1864 7.66645 10.5087L9.69485 12.5349L14.3325 7.89838C14.6548 7.57608 15.1762 7.57608 15.4985 7.89838Z" fill="#5534A5"/>
</svg>
