<svg width="30" height="25" viewBox="0 0 30 25" fill="none" xmlns="http://www.w3.org/2000/svg">
<rect width="29.3333" height="23.8554" transform="translate(0.666504 0.843384)" fill="white"/>
<path d="M22.2673 10.2595C22.4902 9.88984 22.3025 9.44319 21.848 9.26187C21.3935 9.08055 20.8443 9.23322 20.6213 9.60286L18.8364 12.562C18.2832 13.4792 16.6572 13.4344 16.1816 12.4888C15.1071 10.3527 11.4337 10.2515 10.1839 12.3236L8.39907 15.2827C8.17612 15.6524 8.36384 16.099 8.81836 16.2803C9.27288 16.4616 9.82209 16.309 10.045 15.9393L11.8299 12.9802C12.3831 12.063 14.0091 12.1078 14.4848 13.0534C15.5593 15.1895 19.2326 15.2907 20.4824 13.2186L22.2673 10.2595Z" fill="#C7B7EB"/>
<path fill-rule="evenodd" clip-rule="evenodd" d="M20.7886 3.20282C19.3926 3.07982 17.6331 3.07983 15.3885 3.07983H15.2779C13.0332 3.07983 11.2737 3.07982 9.87775 3.20282C8.45321 3.32833 7.29896 3.58907 6.31346 4.17137C5.71684 4.52389 5.19216 4.95059 4.75869 5.43579C4.04268 6.23726 3.72207 7.17595 3.56773 8.33446C3.41649 9.46972 3.41649 10.9006 3.4165 12.7261V12.8161C3.41649 14.6415 3.41649 16.0725 3.56773 17.2077C3.72207 18.3663 4.04268 19.3049 4.75869 20.1064C5.19216 20.5916 5.71684 21.0183 6.31346 21.3708C7.29896 21.9531 8.45321 22.2139 9.87775 22.3394C11.2737 22.4624 13.0331 22.4624 15.2777 22.4624H15.3885C17.6331 22.4624 19.3927 22.4624 20.7886 22.3394C22.2131 22.2139 23.3674 21.9531 24.3529 21.3708C24.9495 21.0183 25.4742 20.5916 25.9077 20.1064C26.6237 19.3049 26.9443 18.3663 27.0986 17.2077C27.2499 16.0725 27.2498 14.6416 27.2498 12.8162V12.7261C27.2498 10.9007 27.2499 9.4697 27.0986 8.33446C26.9443 7.17595 26.6237 6.23726 25.9077 5.43579C25.4742 4.95059 24.9495 4.52389 24.3529 4.17137C23.3674 3.58907 22.2131 3.32833 20.7886 3.20282ZM7.39106 5.37759C8.01196 5.01072 8.80667 4.79688 10.0752 4.68511C11.3609 4.57182 13.0212 4.5708 15.3332 4.5708C17.6451 4.5708 19.3054 4.57182 20.5911 4.68511C21.8597 4.79688 22.6544 5.01072 23.2753 5.37759C23.7163 5.63815 24.1041 5.95353 24.4245 6.31216C24.8756 6.8171 25.1385 7.4634 25.2759 8.49506C25.4152 9.54067 25.4165 10.8909 25.4165 12.7711C25.4165 14.6513 25.4152 16.0015 25.2759 17.0471C25.1385 18.0788 24.8756 18.7251 24.4245 19.23C24.1041 19.5887 23.7163 19.9041 23.2753 20.1646C22.6544 20.5315 21.8597 20.7453 20.5911 20.8571C19.3054 20.9704 17.6451 20.9714 15.3332 20.9714C13.0212 20.9714 11.3609 20.9704 10.0752 20.8571C8.80667 20.7453 8.01196 20.5315 7.39106 20.1646C6.95008 19.9041 6.56228 19.5887 6.24189 19.23C5.79078 18.7251 5.52783 18.0788 5.39039 17.0471C5.2511 16.0015 5.24984 14.6513 5.24984 12.7711C5.24984 10.8909 5.2511 9.54067 5.39039 8.49506C5.52783 7.4634 5.79078 6.8171 6.24189 6.31216C6.56228 5.95353 6.95008 5.63815 7.39106 5.37759Z" fill="#C7B7EB"/>
</svg>
