<svg width="23" height="23" viewBox="0 0 23 23" fill="none" xmlns="http://www.w3.org/2000/svg">
<path fill-rule="evenodd" clip-rule="evenodd" d="M16.186 0.70282C20.0129 0.70282 22.5841 3.24596 22.5841 7.02965V15.7649C22.5841 19.5486 20.0129 22.0917 16.1849 22.0917H6.39694C2.57007 22.0917 0 19.5486 0 15.7649V7.02965C0 3.24596 2.57007 0.70282 6.39694 0.70282H16.186ZM16.186 2.30699H6.39694C3.54005 2.30699 1.69381 4.16033 1.69381 7.02965V15.7649C1.69381 18.6342 3.54005 20.4875 6.39694 20.4875H16.1849C19.0429 20.4875 20.8903 18.6342 20.8903 15.7649V7.02965C20.8903 4.16033 19.0429 2.30699 16.186 2.30699Z" fill="#EAEAEA"/>
</svg>
