<svg width="30" height="25" viewBox="0 0 30 25" fill="none" xmlns="http://www.w3.org/2000/svg">
<path opacity="0.4" d="M20.3141 2.54217H24.4525C26.1664 2.54217 27.5551 3.68112 27.5551 5.08671V8.4807C27.5551 9.88629 26.1664 11.0252 24.4525 11.0252H20.3141C18.6002 11.0252 17.2114 9.88629 17.2114 8.4807V5.08671C17.2114 3.68112 18.6002 2.54217 20.3141 2.54217" fill="#C7B7EB"/>
<path fill-rule="evenodd" clip-rule="evenodd" d="M6.21348 2.54217H10.3519C12.0658 2.54217 13.4545 3.68112 13.4545 5.08671V8.4807C13.4545 9.88629 12.0658 11.0252 10.3519 11.0252H6.21348C4.4996 11.0252 3.11084 9.88629 3.11084 8.4807V5.08671C3.11084 3.68112 4.4996 2.54217 6.21348 2.54217ZM6.21348 13.9386H10.3519C12.0658 13.9386 13.4545 15.0776 13.4545 16.4832V19.8771C13.4545 21.2818 12.0658 22.4217 10.3519 22.4217H6.21348C4.4996 22.4217 3.11084 21.2818 3.11084 19.8771V16.4832C3.11084 15.0776 4.4996 13.9386 6.21348 13.9386ZM24.4526 13.9386H20.3142C18.6004 13.9386 17.2116 15.0776 17.2116 16.4832V19.8771C17.2116 21.2818 18.6004 22.4217 20.3142 22.4217H24.4526C26.1665 22.4217 27.5553 21.2818 27.5553 19.8771V16.4832C27.5553 15.0776 26.1665 13.9386 24.4526 13.9386Z" fill="#C7B7EB"/>
</svg>
