<svg width="27" height="22" viewBox="0 0 27 22" fill="none" xmlns="http://www.w3.org/2000/svg">
<path d="M15.91 3.09843H15.16V3.18076L15.1779 3.26113L15.91 3.09843ZM15.91 3.09842H16.66V3.05248L16.6544 3.00689L15.91 3.09842ZM15.91 3.09844L16.6544 3.00691L16.65 2.97103L16.6422 2.93574L15.91 3.09844ZM16.3096 4.69343L16.8485 4.17186L16.8485 4.17186L16.3096 4.69343ZM16.9687 4.99624L17.0133 4.24757L16.9687 4.99624ZM18.4391 4.26035L18.0236 3.63594V3.63594L18.4391 4.26035ZM18.9062 3.94954L19.3216 4.57395V4.57395L18.9062 3.94954ZM20.0984 3.38211L20.1343 2.63291L20.1256 2.6326L20.0984 3.38211ZM20.1217 3.38322L20.1662 2.6345L20.1575 2.63408L20.1217 3.38322ZM21.2543 4.06193L20.7811 4.6438L21.2543 4.06193ZM22.337 4.94245L22.8102 4.36058L22.337 4.94245ZM22.8585 5.42697L23.4856 5.01557V5.01557L22.8585 5.42697ZM22.9089 6.43818L23.5738 6.78519L23.5738 6.78518L22.9089 6.43818ZM22.4382 6.97216L21.9094 6.44023V6.44023L22.4382 6.97216ZM21.6465 7.88027L22.3456 8.15196L22.3456 8.15196L21.6465 7.88027ZM22.1002 9.12064L22.459 8.46205L22.459 8.46205L22.1002 9.12064ZM23.2909 9.30375L23.2301 10.0513L23.2909 9.30375ZM23.843 9.34865L23.7822 10.0962L23.843 9.34865ZM24.8514 9.53641L25.2398 8.89483L25.2398 8.89483L24.8514 9.53641ZM25.2281 9.94497L25.899 9.60982V9.60982L25.2281 9.94497ZM25.2282 12.8982L24.5572 12.5632L25.2282 12.8982ZM24.8513 13.307L25.2396 13.9486L25.2396 13.9486L24.8513 13.307ZM23.8432 13.4947L23.904 14.2422L23.8432 13.4947ZM23.291 13.5396L23.2303 12.7921L23.291 13.5396ZM22.101 13.7225L22.4596 14.3812L22.4596 14.3812L22.101 13.7225ZM21.6472 14.9632L22.3462 14.6914L22.3462 14.6914L21.6472 14.9632ZM22.4384 15.8708L22.9688 15.3405L22.9672 15.3389L22.4384 15.8708ZM22.4384 15.8708L21.9081 16.4012L21.9097 16.4028L22.4384 15.8708ZM22.9089 16.4045L23.5738 16.0574L23.5738 16.0574L22.9089 16.4045ZM22.8585 17.416L23.4855 17.8275V17.8275L22.8585 17.416ZM22.3373 17.9002L21.8641 17.3184L21.8641 17.3184L22.3373 17.9002ZM21.2544 18.7809L20.7812 18.199L21.2544 18.7809ZM20.1218 19.4596L20.1577 20.2088L20.1663 20.2083L20.1218 19.4596ZM20.0986 19.4607L20.1257 20.2103L20.1345 20.2099L20.0986 19.4607ZM18.9063 18.8933L19.3218 18.2689L18.9063 18.8933ZM18.4395 18.5827L18.024 19.2071V19.2071L18.4395 18.5827ZM16.9685 17.8466L16.9237 17.0979H16.9237L16.9685 17.8466ZM16.3098 18.1492L16.8486 18.6709L16.3098 18.1492ZM15.91 19.7447L16.6544 19.8363L15.91 19.7447ZM15.6839 20.731L15.0577 20.3183L15.0577 20.3183L15.6839 20.731ZM15.2931 21.0766L15.6263 21.7486L15.6263 21.7486L15.2931 21.0766ZM11.3739 21.0767L11.707 20.4047H11.707L11.3739 21.0767ZM10.983 20.7309L10.3567 21.1435V21.1435L10.983 20.7309ZM10.7569 19.7449L11.5013 19.6533V19.6533L10.7569 19.7449ZM10.3573 18.1497L10.8962 17.628L10.3573 18.1497ZM9.69835 17.8469L9.74305 17.0983H9.74305L9.69835 17.8469ZM8.22771 18.5829L7.81224 17.9585L7.81223 17.9585L8.22771 18.5829ZM7.76066 18.8937L8.17613 19.5181L8.17613 19.5181L7.76066 18.8937ZM6.56834 19.4611L6.53245 20.2103L6.54118 20.2106L6.56834 19.4611ZM6.54516 19.46L6.50062 20.2087L6.50928 20.2092L6.54516 19.46ZM5.41249 18.7813L4.93928 19.3631H4.93928L5.41249 18.7813ZM4.32977 17.9007L3.85657 18.4826L4.32977 17.9007ZM3.80835 17.4163L3.18127 17.8277L3.18127 17.8277L3.80835 17.4163ZM3.75794 16.405L3.09306 16.058L3.09306 16.058L3.75794 16.405ZM4.22861 15.8711L3.76009 15.2855L3.72854 15.3107L3.69988 15.3392L4.22861 15.8711ZM4.22861 15.8711L4.69714 16.4567L4.72868 16.4315L4.75734 16.403L4.22861 15.8711ZM5.02017 14.9631L5.71921 15.2348L5.71921 15.2348L5.02017 14.9631ZM4.5665 13.7227L4.92531 13.0641H4.9253L4.5665 13.7227ZM3.37591 13.5396L3.4367 12.792H3.4367L3.37591 13.5396ZM2.82391 13.4947L2.8847 12.7472L2.85435 12.7447H2.82391V13.4947ZM2.8239 13.4947L2.76311 14.2422L2.79345 14.2447H2.8239V13.4947ZM1.81565 13.307L1.42725 13.9486L1.42726 13.9486L1.81565 13.307ZM1.43886 12.8983L0.76789 13.2334H0.767891L1.43886 12.8983ZM1.43893 9.94491L2.10985 10.2801L2.10985 10.2801L1.43893 9.94491ZM1.81552 9.53645L1.42704 8.8949L1.42704 8.8949L1.81552 9.53645ZM2.82408 9.34864V8.59864H2.79364L2.76329 8.60111L2.82408 9.34864ZM2.82409 9.34864V10.0986H2.85453L2.88488 10.0962L2.82409 9.34864ZM3.37607 9.30375V8.55375H3.34562L3.31528 8.55622L3.37607 9.30375ZM3.37608 9.30375V10.0538H3.40652L3.43687 10.0513L3.37608 9.30375ZM4.56731 9.12053L4.92626 9.77905H4.92626L4.56731 9.12053ZM5.02085 7.88041L5.71996 7.60885V7.60885L5.02085 7.88041ZM4.2289 6.97189L3.69857 7.50222L3.70018 7.50382L4.2289 6.97189ZM4.2289 6.97188L4.75923 6.44155L4.75762 6.43995L4.2289 6.97188ZM3.75799 6.43766L3.09305 6.78458L3.09305 6.78458L3.75799 6.43766ZM3.80839 5.42668L4.43554 5.838L4.43554 5.838L3.80839 5.42668ZM4.33008 4.94194L4.80328 5.52381L4.83317 5.49951L4.86041 5.47227L4.33008 4.94194ZM4.33008 4.94194L3.85687 4.36007L3.82699 4.38437L3.79975 4.41161L4.33008 4.94194ZM5.41264 4.06155L4.93943 3.47967L4.93943 3.47967L5.41264 4.06155ZM6.54528 3.38282L6.50942 2.63363L6.50072 2.63414L6.54528 3.38282ZM6.56849 3.38171L6.54133 2.63215L6.53263 2.63257L6.56849 3.38171ZM7.76077 3.94916L7.3453 4.57356V4.57356L7.76077 3.94916ZM8.22811 4.26012L8.64413 3.63608L8.64358 3.63571L8.22811 4.26012ZM8.22811 4.26012L7.81208 4.88416L7.81264 4.88453L8.22811 4.26012ZM9.69818 4.99589L9.65366 4.24721L9.69818 4.99589ZM10.3575 4.69296L10.8966 5.21445L10.3575 4.69296ZM10.7569 3.0983L11.5013 3.18984L11.5069 3.14424V3.0983H10.7569ZM10.7569 3.0983L10.0125 3.00676L10.0069 3.05236V3.0983H10.7569ZM10.9829 2.11264L10.3565 1.70013L10.3565 1.70013L10.9829 2.11264ZM11.3741 1.76662L11.0411 1.09459V1.09459L11.3741 1.76662ZM15.293 1.76667L15.626 1.09468V1.09468L15.293 1.76667ZM15.684 2.11255L16.3103 1.69998L16.3103 1.69998L15.684 2.11255ZM16.66 3.09843V3.09842H15.16V3.09843H16.66ZM16.6422 2.93574L16.6422 2.93573L15.1779 3.26113L15.1779 3.26114L16.6422 2.93574ZM16.8485 4.17186C16.8776 4.20192 16.8434 4.19406 16.7962 3.98139C16.749 3.7694 16.7118 3.47372 16.6544 3.00691L15.1656 3.18997C15.2192 3.62596 15.2653 4.00737 15.3319 4.30698C15.3984 4.60591 15.5085 4.94414 15.7706 5.21499L16.8485 4.17186ZM17.0133 4.24757C16.9508 4.24384 16.892 4.21683 16.8485 4.17186L15.7706 5.21499C16.0752 5.52976 16.4868 5.71885 16.924 5.74491L17.0133 4.24757ZM18.0236 3.63594C17.632 3.89649 17.3835 4.06088 17.1919 4.16321C16.9998 4.26587 16.9715 4.24508 17.0133 4.24757L16.924 5.74491C17.3003 5.76733 17.6286 5.63054 17.8987 5.48624C18.1695 5.34161 18.4888 5.12809 18.8545 4.88475L18.0236 3.63594ZM18.4907 3.32514L18.0236 3.63594L18.8545 4.88475L19.3216 4.57395L18.4907 3.32514ZM20.1256 2.6326C19.7896 2.62043 19.5056 2.72174 19.2568 2.84937C19.0249 2.96835 18.7665 3.14164 18.4907 3.32514L19.3216 4.57395C19.6261 4.37139 19.8028 4.25513 19.9415 4.18399C20.0041 4.15186 20.0396 4.13944 20.0573 4.13456C20.0655 4.13231 20.0695 4.13177 20.0703 4.13167C20.071 4.13159 20.071 4.13161 20.0713 4.13162L20.1256 2.6326ZM20.1575 2.63408L20.1343 2.63296L20.0626 4.13125L20.0858 4.13236L20.1575 2.63408ZM21.7275 3.48006C21.4705 3.27106 21.2298 3.07388 21.0103 2.9333C20.7749 2.78249 20.5019 2.65453 20.1662 2.63455L20.0771 4.13189C20.0774 4.13191 20.0774 4.1319 20.078 4.13204C20.0788 4.13222 20.0828 4.13313 20.0907 4.13616C20.1079 4.14271 20.142 4.15846 20.2013 4.19643C20.3325 4.28048 20.4974 4.41309 20.7811 4.6438L21.7275 3.48006ZM22.8102 4.36058L21.7275 3.48006L20.7811 4.6438L21.8638 5.52432L22.8102 4.36058ZM23.4856 5.01557C23.3205 4.76401 23.0553 4.55988 22.8102 4.36058L21.8638 5.52432C22.0154 5.64761 22.1066 5.72211 22.1721 5.78128C22.2347 5.83791 22.2393 5.85048 22.2314 5.83837L23.4856 5.01557ZM23.5738 6.78518C23.8672 6.22291 23.8335 5.54587 23.4856 5.01557L22.2314 5.83837C22.2811 5.91413 22.2859 6.01085 22.244 6.09118L23.5738 6.78518ZM22.9669 7.50409C23.1909 7.28141 23.4346 7.05191 23.5738 6.78519L22.244 6.09117C22.2507 6.07834 22.2474 6.0913 22.1906 6.15388C22.1314 6.21927 22.048 6.30247 21.9094 6.44023L22.9669 7.50409ZM22.3456 8.15196C22.3317 8.18767 22.3309 8.16371 22.45 8.03134C22.5614 7.90755 22.7222 7.74732 22.9669 7.50409L21.9094 6.44023C21.6776 6.67069 21.4809 6.86574 21.3348 7.02819C21.1964 7.18205 21.0381 7.37531 20.9475 7.60858L22.3456 8.15196ZM22.459 8.46205C22.3486 8.4019 22.3 8.26913 22.3456 8.15196L20.9475 7.60857C20.6287 8.42881 20.9686 9.3582 21.7413 9.77923L22.459 8.46205ZM23.3517 8.55622C23.0078 8.52825 22.7815 8.50957 22.6166 8.48683C22.4402 8.46251 22.4253 8.44372 22.459 8.46205L21.7413 9.77923C21.9611 9.89897 22.2067 9.9445 22.4117 9.97277C22.6282 10.0026 22.9042 10.0248 23.2301 10.0513L23.3517 8.55622ZM23.9038 8.60112L23.3517 8.55622L23.2301 10.0513L23.7822 10.0962L23.9038 8.60112ZM25.2398 8.89483C25.024 8.76414 24.8011 8.70691 24.5947 8.67302C24.3978 8.64071 24.1604 8.62199 23.9038 8.60112L23.7822 10.0962C24.0633 10.119 24.2293 10.1331 24.3517 10.1532C24.4646 10.1717 24.4771 10.1865 24.463 10.178L25.2398 8.89483ZM25.899 9.60982C25.7513 9.314 25.5227 9.0661 25.2398 8.89483L24.463 10.178C24.5034 10.2024 24.536 10.2379 24.5571 10.2801L25.899 9.60982ZM26.0835 10.9653C26.0835 10.7078 26.0841 10.4697 26.0678 10.2709C26.0508 10.0623 26.0118 9.83557 25.899 9.60982L24.5571 10.2801C24.5498 10.2654 24.5635 10.279 24.5728 10.393C24.5829 10.5167 24.5835 10.6832 24.5835 10.9653H26.0835ZM26.0835 11.8782V10.9653H24.5835V11.8782H26.0835ZM25.8992 13.2333C26.0119 13.0076 26.0508 12.7809 26.0678 12.5724C26.0841 12.3736 26.0835 12.1356 26.0835 11.8782H24.5835C24.5835 12.1602 24.5829 12.3267 24.5728 12.4503C24.5635 12.5643 24.5498 12.5779 24.5572 12.5632L25.8992 13.2333ZM25.2396 13.9486C25.5227 13.7773 25.7514 13.5293 25.8992 13.2333L24.5572 12.5632C24.536 12.6055 24.5034 12.6409 24.4629 12.6654L25.2396 13.9486ZM23.904 14.2422C24.1605 14.2213 24.3978 14.2026 24.5946 14.1703C24.801 14.1365 25.0238 14.0793 25.2396 13.9486L24.4629 12.6654C24.477 12.6569 24.4646 12.6716 24.3517 12.6901C24.2293 12.7102 24.0634 12.7243 23.7824 12.7471L23.904 14.2422ZM23.3518 14.2871L23.904 14.2422L23.7824 12.7471L23.2303 12.7921L23.3518 14.2871ZM22.4596 14.3812C22.426 14.3995 22.4409 14.3808 22.6172 14.3565C22.782 14.3337 23.0081 14.3151 23.3518 14.2871L23.2303 12.7921C22.9046 12.8185 22.6287 12.8407 22.4123 12.8705C22.2074 12.8988 21.962 12.9443 21.7423 13.0639L22.4596 14.3812ZM22.3462 14.6914C22.3006 14.5742 22.3492 14.4414 22.4596 14.3812L21.7423 13.0639C20.9692 13.4849 20.6291 14.4146 20.9482 15.2351L22.3462 14.6914ZM22.9672 15.3389C22.7226 15.0958 22.5619 14.9357 22.4506 14.8119C22.3316 14.6796 22.3323 14.6557 22.3462 14.6914L20.9482 15.2351C21.0389 15.4682 21.1971 15.6613 21.3354 15.8151C21.4815 15.9775 21.678 16.1724 21.9097 16.4027L22.9672 15.3389ZM22.9688 15.3405L22.9688 15.3405L21.9081 16.4011L21.9081 16.4012L22.9688 15.3405ZM23.5738 16.0574C23.4346 15.7908 23.1911 15.5615 22.9672 15.3389L21.9097 16.4028C22.0482 16.5404 22.1316 16.6236 22.1908 16.6889C22.2475 16.7515 22.2508 16.7644 22.2441 16.7516L23.5738 16.0574ZM23.4855 17.8275C23.8336 17.2971 23.8674 16.6198 23.5738 16.0574L22.2441 16.7516C22.286 16.832 22.2812 16.9287 22.2315 17.0045L23.4855 17.8275ZM22.8105 18.4821C23.0554 18.2829 23.3205 18.0789 23.4855 17.8275L22.2315 17.0045C22.2394 16.9924 22.2348 17.005 22.1722 17.0615C22.1068 17.1207 22.0156 17.1951 21.8641 17.3184L22.8105 18.4821ZM21.7276 19.3628L22.8105 18.4821L21.8641 17.3184L20.7812 18.199L21.7276 19.3628ZM20.1663 20.2083C20.502 20.1883 20.775 20.0603 21.0104 19.9095C21.2299 19.7689 21.4706 19.5718 21.7276 19.3628L20.7812 18.199C20.4975 18.4297 20.3327 18.5623 20.2014 18.6464C20.1422 18.6844 20.108 18.7001 20.0908 18.7067C20.0829 18.7097 20.079 18.7106 20.0782 18.7108C20.0775 18.7109 20.0775 18.7109 20.0772 18.7109L20.1663 20.2083ZM20.1345 20.2099L20.1577 20.2088L20.0859 18.7105L20.0627 18.7116L20.1345 20.2099ZM18.4908 19.5177C18.7666 19.7012 19.025 19.8745 19.2569 19.9935C19.5057 20.1211 19.7897 20.2224 20.1257 20.2102L20.0714 18.7112C20.0711 18.7112 20.0711 18.7112 20.0705 18.7112C20.0697 18.7111 20.0656 18.7105 20.0575 18.7083C20.0398 18.7034 20.0042 18.691 19.9416 18.6588C19.8029 18.5877 19.6262 18.4714 19.3218 18.2689L18.4908 19.5177ZM18.024 19.2071L18.4908 19.5177L19.3218 18.2689L18.8549 17.9583L18.024 19.2071ZM17.0133 18.5952C16.9715 18.5977 16.9998 18.5769 17.192 18.6796C17.3836 18.782 17.6323 18.9464 18.024 19.2071L18.8549 17.9583C18.4891 17.7148 18.1696 17.5012 17.8988 17.3565C17.6286 17.2122 17.3001 17.0754 16.9237 17.0979L17.0133 18.5952ZM16.8486 18.6709C16.8921 18.626 16.9509 18.599 17.0133 18.5952L16.9237 17.0979C16.4867 17.1241 16.0755 17.313 15.771 17.6275L16.8486 18.6709ZM16.6544 19.8363C16.7119 19.3693 16.7491 19.0735 16.7962 18.8614C16.8436 18.6487 16.8777 18.6408 16.8486 18.6709L15.771 17.6275C15.5087 17.8984 15.3985 18.2367 15.332 18.5358C15.2654 18.8355 15.2193 19.2171 15.1657 19.6532L16.6544 19.8363ZM16.3102 21.1437C16.4477 20.935 16.5134 20.7172 16.5555 20.5141C16.5954 20.3209 16.6235 20.0876 16.6544 19.8363L15.1657 19.6532C15.1317 19.9289 15.1112 20.091 15.0866 20.2102C15.064 20.3195 15.0491 20.3313 15.0577 20.3183L16.3102 21.1437ZM15.6263 21.7486C15.9038 21.611 16.1397 21.4023 16.3102 21.1437L15.0577 20.3183C15.0333 20.3552 14.9996 20.3851 14.96 20.4047L15.6263 21.7486ZM14.2867 21.9307C14.5399 21.9307 14.7748 21.9313 14.9715 21.9152C15.1782 21.8983 15.4024 21.8596 15.6263 21.7486L14.96 20.4047C14.9739 20.3978 14.9604 20.4111 14.8491 20.4202C14.7278 20.4301 14.5645 20.4307 14.2867 20.4307V21.9307ZM12.3801 21.9307H14.2867V20.4307H12.3801V21.9307ZM11.0408 21.7487C11.2647 21.8596 11.4888 21.8983 11.6955 21.9152C11.8921 21.9313 12.127 21.9307 12.3801 21.9307V20.4307C12.1024 20.4307 11.9391 20.4301 11.8178 20.4202C11.7066 20.4111 11.693 20.3978 11.707 20.4047L11.0408 21.7487ZM10.3567 21.1435C10.5271 21.4022 10.7632 21.6111 11.0408 21.7487L11.707 20.4047C11.6674 20.3851 11.6336 20.3552 11.6093 20.3183L10.3567 21.1435ZM10.0125 19.8364C10.0434 20.0877 10.0715 20.3209 10.1115 20.5141C10.1535 20.7172 10.2192 20.9349 10.3567 21.1435L11.6093 20.3183C11.6179 20.3313 11.603 20.3195 11.5804 20.2102C11.5557 20.091 11.5352 19.929 11.5013 19.6533L10.0125 19.8364ZM9.81838 18.6713C9.78929 18.6412 9.82346 18.6491 9.87076 18.8618C9.9179 19.0738 9.95511 19.3695 10.0125 19.8364L11.5013 19.6533C11.4477 19.2173 11.4016 18.8358 11.335 18.5362C11.2685 18.2372 11.1584 17.8989 10.8962 17.628L9.81838 18.6713ZM9.65365 18.5956C9.71609 18.5993 9.77487 18.6263 9.81838 18.6713L10.8962 17.628C10.5916 17.3134 10.1802 17.1244 9.74305 17.0983L9.65365 18.5956ZM8.64318 19.2073C9.03481 18.9467 9.28342 18.7823 9.475 18.6799C9.66719 18.5773 9.69541 18.5981 9.65365 18.5956L9.74305 17.0983C9.36675 17.0758 9.03834 17.2126 8.7682 17.3569C8.49744 17.5016 8.178 17.7151 7.81224 17.9585L8.64318 19.2073ZM8.17613 19.5181L8.64318 19.2073L7.81223 17.9585L7.34518 18.2693L8.17613 19.5181ZM6.54118 20.2106C6.87718 20.2228 7.16117 20.1215 7.40998 19.9939C7.64191 19.8749 7.90033 19.7016 8.17613 19.5181L7.34519 18.2693C7.04074 18.4718 6.86398 18.5881 6.72531 18.6592C6.66267 18.6914 6.62715 18.7038 6.60946 18.7087C6.60127 18.7109 6.59727 18.7115 6.59645 18.7116C6.59579 18.7116 6.59581 18.7116 6.5955 18.7116L6.54118 20.2106ZM6.50928 20.2092L6.53245 20.2103L6.60423 18.712L6.58105 18.7109L6.50928 20.2092ZM4.93928 19.3631C5.19629 19.5722 5.43698 19.7693 5.65649 19.9099C5.89197 20.0608 6.16499 20.1887 6.50062 20.2087L6.58971 18.7113C6.5894 18.7113 6.58942 18.7113 6.58877 18.7112C6.58796 18.711 6.58402 18.7101 6.57609 18.7071C6.55895 18.7005 6.52477 18.6848 6.4655 18.6468C6.33425 18.5627 6.1694 18.4301 5.8857 18.1994L4.93928 19.3631ZM3.85657 18.4826L4.93928 19.3631L5.8857 18.1994L4.80298 17.3189L3.85657 18.4826ZM3.18127 17.8277C3.34629 18.0792 3.61153 18.2833 3.85657 18.4826L4.80298 17.3189C4.6514 17.1956 4.56018 17.1211 4.49472 17.0619C4.43207 17.0053 4.42748 16.9928 4.43543 17.0049L3.18127 17.8277ZM3.09306 16.058C2.79957 16.6203 2.83332 17.2974 3.18127 17.8277L4.43543 17.0049C4.38572 16.9291 4.3809 16.8324 4.42283 16.752L3.09306 16.058ZM3.69988 15.3392C3.47588 15.5618 3.23225 15.7913 3.09306 16.058L4.42283 16.752C4.41613 16.7649 4.41944 16.7519 4.47615 16.6893C4.5354 16.624 4.61876 16.5408 4.75733 16.403L3.69988 15.3392ZM3.76009 15.2854L3.76009 15.2855L4.69713 16.4568L4.69714 16.4567L3.76009 15.2854ZM4.32112 14.6914C4.335 14.6557 4.33575 14.6796 4.21669 14.812C4.10535 14.9358 3.94456 15.096 3.69989 15.3392L4.75734 16.403C4.98918 16.1726 5.18578 15.9776 5.33189 15.8151C5.47028 15.6613 5.62855 15.4681 5.71921 15.2348L4.32112 14.6914ZM4.2077 14.3813C4.31811 14.4414 4.36667 14.5742 4.32112 14.6914L5.71921 15.2348C6.03806 14.4145 5.69813 13.4851 4.92531 13.0641L4.2077 14.3813ZM3.31511 14.2871C3.65896 14.3151 3.88518 14.3338 4.0501 14.3565C4.22647 14.3808 4.24134 14.3996 4.2077 14.3813L4.9253 13.0641C4.70556 12.9443 4.45997 12.8988 4.25497 12.8705C4.03854 12.8407 3.76251 12.8185 3.4367 12.792L3.31511 14.2871ZM2.76312 14.2422L3.31511 14.2871L3.4367 12.792L2.8847 12.7472L2.76312 14.2422ZM2.8239 14.2447H2.82391V12.7447H2.8239V14.2447ZM1.42726 13.9486C1.64309 14.0792 1.86591 14.1365 2.07234 14.1703C2.26921 14.2026 2.50652 14.2214 2.76311 14.2422L2.88469 12.7472C2.6036 12.7243 2.43766 12.7102 2.31525 12.6901C2.20241 12.6716 2.18994 12.6568 2.20403 12.6654L1.42726 13.9486ZM0.767891 13.2334C0.915678 13.5293 1.1443 13.7773 1.42725 13.9486L2.20404 12.6654C2.16361 12.6409 2.13095 12.6055 2.10984 12.5632L0.767891 13.2334ZM0.583496 11.8781C0.583496 12.1356 0.582915 12.3736 0.599157 12.5725C0.616189 12.781 0.655163 13.0077 0.76789 13.2334L2.10984 12.5632C2.1172 12.5779 2.10349 12.5643 2.09418 12.4503C2.08408 12.3267 2.0835 12.1602 2.0835 11.8781H0.583496ZM0.583496 10.9654V11.8781H2.0835V10.9654H0.583496ZM0.768004 9.60971C0.655208 9.83548 0.61621 10.0623 0.599167 10.2708C0.582914 10.4697 0.583496 10.7079 0.583496 10.9654H2.0835C2.0835 10.6833 2.08408 10.5167 2.09418 10.393C2.1035 10.279 2.11722 10.2654 2.10985 10.2801L0.768004 9.60971ZM1.42704 8.8949C1.14425 9.06614 0.915756 9.31397 0.768004 9.60971L2.10985 10.2801C2.13096 10.2379 2.1636 10.2025 2.204 10.178L1.42704 8.8949ZM2.76329 8.60111C2.50662 8.62198 2.26923 8.64071 2.07231 8.67303C1.86581 8.70692 1.64292 8.76417 1.42704 8.8949L2.204 10.178C2.18991 10.1865 2.20238 10.1717 2.31525 10.1532C2.4377 10.1331 2.6037 10.119 2.88488 10.0962L2.76329 8.60111ZM2.82409 8.59864H2.82408V10.0986H2.82409V8.59864ZM3.31528 8.55622L2.76329 8.60111L2.88488 10.0962L3.43686 10.0513L3.31528 8.55622ZM3.37608 8.55375H3.37607V10.0538H3.37608V8.55375ZM4.20836 8.462C4.24201 8.44366 4.22713 8.46246 4.05067 8.4868C3.88566 8.50955 3.65932 8.52824 3.31528 8.55622L3.43687 10.0513C3.76286 10.0248 4.03904 10.0026 4.25559 9.97273C4.46069 9.94445 4.70642 9.89888 4.92626 9.77905L4.20836 8.462ZM4.32174 8.15197C4.36725 8.26913 4.31871 8.40185 4.20836 8.462L4.92626 9.77905C5.69872 9.35799 6.03851 8.42892 5.71996 7.60885L4.32174 8.15197ZM3.70018 7.50382C3.94499 7.74716 4.10586 7.90746 4.21726 8.03131C4.33638 8.16374 4.33562 8.1877 4.32174 8.15198L5.71996 7.60885C5.6293 7.37546 5.47095 7.18211 5.33249 7.02818C5.1863 6.86566 4.98959 6.67053 4.75763 6.43996L3.70018 7.50382ZM3.69857 7.50221L3.69857 7.50222L4.75923 6.44156L4.75923 6.44155L3.69857 7.50221ZM3.09305 6.78458C3.23228 7.05144 3.47605 7.28104 3.70017 7.50381L4.75762 6.43995C4.61897 6.30214 4.53556 6.2189 4.47628 6.15348C4.41955 6.09087 4.41624 6.0779 4.42294 6.09075L3.09305 6.78458ZM3.18124 5.01537C2.8335 5.54558 2.79976 6.22241 3.09305 6.78458L4.42294 6.09075C4.38104 6.01044 4.38586 5.91375 4.43554 5.838L3.18124 5.01537ZM3.85687 4.36007C3.6117 4.55945 3.34631 4.76367 3.18124 5.01537L4.43554 5.838C4.42759 5.85012 4.43218 5.83754 4.49485 5.78089C4.56035 5.72169 4.65161 5.64716 4.80328 5.52381L3.85687 4.36007ZM3.79975 4.41161L3.79975 4.41161L4.86041 5.47227L4.86041 5.47227L3.79975 4.41161ZM4.93943 3.47967L3.85687 4.36007L4.80329 5.52381L5.88584 4.64342L4.93943 3.47967ZM6.50072 2.63414C6.16509 2.65412 5.89208 2.78208 5.65661 2.9329C5.43711 3.07349 5.19643 3.27067 4.93943 3.47967L5.88584 4.64342C6.16954 4.4127 6.33438 4.28009 6.46563 4.19603C6.5249 4.15806 6.55908 4.14231 6.57622 4.13576C6.58415 4.13273 6.58809 4.13182 6.58889 4.13164C6.58954 4.1315 6.58953 4.13151 6.58983 4.13149L6.50072 2.63414ZM6.53263 2.63257L6.50942 2.63368L6.58113 4.13196L6.60434 4.13085L6.53263 2.63257ZM8.17624 3.32475C7.90045 3.14124 7.64204 2.96795 7.41011 2.84897C7.16132 2.72134 6.87733 2.62003 6.54134 2.6322L6.59564 4.13122C6.59594 4.13121 6.59593 4.13119 6.59658 4.13127C6.5974 4.13137 6.60141 4.13191 6.60959 4.13416C6.62728 4.13904 6.66281 4.15146 6.72544 4.18359C6.86411 4.25473 7.04086 4.371 7.3453 4.57356L8.17624 3.32475ZM8.64358 3.63571L8.17624 3.32475L7.3453 4.57356L7.81263 4.88452L8.64358 3.63571ZM8.64413 3.63608L8.64413 3.63608L7.81208 4.88415L7.81208 4.88416L8.64413 3.63608ZM9.65366 4.24721C9.69541 4.24473 9.66719 4.26551 9.47507 4.16286C9.28357 4.06055 9.03506 3.8962 8.64358 3.63571L7.81264 4.88453C8.17826 5.12781 8.49758 5.34128 8.76823 5.48588C9.03827 5.63015 9.36654 5.76693 9.74269 5.74456L9.65366 4.24721ZM9.8185 4.17148C9.77497 4.21647 9.71615 4.24349 9.65366 4.24721L9.74269 5.74456C10.1801 5.71856 10.5919 5.52939 10.8966 5.21445L9.8185 4.17148ZM10.0125 3.00677C9.95516 3.47348 9.91797 3.76909 9.87084 3.98104C9.82357 4.19366 9.78942 4.20153 9.8185 4.17148L10.8966 5.21445C11.1586 4.94362 11.2686 4.60546 11.3351 4.3066C11.4017 4.00705 11.4477 3.62572 11.5013 3.18984L10.0125 3.00677ZM10.0069 3.0983V3.0983H11.5069V3.0983H10.0069ZM10.3565 1.70013C10.2192 1.90871 10.1534 2.12635 10.1114 2.32938C10.0715 2.52248 10.0434 2.75558 10.0125 3.00676L11.5013 3.18983C11.5352 2.91429 11.5557 2.75234 11.5804 2.63319C11.603 2.52395 11.6178 2.51213 11.6093 2.52515L10.3565 1.70013ZM11.0411 1.09459C10.7633 1.23224 10.527 1.44121 10.3565 1.70013L11.6093 2.52516C11.6336 2.48817 11.6674 2.45831 11.707 2.43865L11.0411 1.09459ZM12.3799 0.912659C12.1269 0.912659 11.8921 0.912077 11.6955 0.92815C11.4889 0.945048 11.2649 0.983707 11.0411 1.09459L11.707 2.43865C11.6931 2.44557 11.7066 2.43225 11.8178 2.42316C11.9391 2.41324 12.1023 2.41266 12.3799 2.41266V0.912659ZM14.2869 0.912659H12.3799V2.41266H14.2869V0.912659ZM15.626 1.09468C15.4022 0.98374 15.1781 0.945063 14.9714 0.928157C14.7749 0.912076 14.54 0.912659 14.2869 0.912659V2.41266C14.5646 2.41266 14.7279 2.41324 14.8491 2.42316C14.9603 2.43226 14.9739 2.44559 14.9599 2.43866L15.626 1.09468ZM16.3103 1.69998C16.1398 1.44118 15.9037 1.23229 15.626 1.09468L14.9599 2.43866C14.9996 2.45832 15.0333 2.48816 15.0577 2.52513L16.3103 1.69998ZM16.6544 3.00689C16.6235 2.75565 16.5954 2.5225 16.5555 2.32935C16.5135 2.12628 16.4477 1.9086 16.3103 1.69998L15.0577 2.52513C15.0491 2.51211 15.064 2.52393 15.0866 2.63319C15.1112 2.75236 15.1317 2.91435 15.1656 3.18996L16.6544 3.00689ZM17.3835 11.4217C17.3835 13.026 15.7226 14.5753 13.3335 14.5753V16.0753C16.2464 16.0753 18.8835 14.1293 18.8835 11.4217H17.3835ZM13.3335 8.26811C15.7226 8.26811 17.3835 9.81748 17.3835 11.4217H18.8835C18.8835 8.71417 16.2464 6.76811 13.3335 6.76811V8.26811ZM9.28355 11.4217C9.28355 9.81748 10.9445 8.26811 13.3335 8.26811V6.76811C10.4207 6.76811 7.78355 8.71417 7.78355 11.4217H9.28355ZM13.3335 14.5753C10.9445 14.5753 9.28355 13.026 9.28355 11.4217H7.78355C7.78355 14.1293 10.4207 16.0753 13.3335 16.0753V14.5753Z" fill="#5534A5"/>
</svg>
