<svg width="23" height="22" viewBox="0 0 23 22" fill="none" xmlns="http://www.w3.org/2000/svg">
<path fill-rule="evenodd" clip-rule="evenodd" d="M16.186 0.508362C20.0129 0.508362 22.5841 3.0515 22.5841 6.8352V15.5704C22.5841 19.3541 20.0129 21.8973 16.1849 21.8973H6.39694C2.57007 21.8973 0 19.3541 0 15.5704V6.8352C0 3.0515 2.57007 0.508362 6.39694 0.508362H16.186ZM16.186 2.11253H6.39694C3.54005 2.11253 1.69381 3.96588 1.69381 6.8352V15.5704C1.69381 18.4397 3.54005 20.2931 6.39694 20.2931H16.1849C19.0429 20.2931 20.8903 18.4397 20.8903 15.5704V6.8352C20.8903 3.96588 19.0429 2.11253 16.186 2.11253Z" fill="#EAEAEA"/>
</svg>
