<svg width="23" height="73" viewBox="0 0 23 73" fill="none" xmlns="http://www.w3.org/2000/svg">
<path fill-rule="evenodd" clip-rule="evenodd" d="M16.186 0.0916748C20.0129 0.0916748 22.5841 2.70747 22.5841 6.59927V15.5841C22.5841 19.4759 20.0129 22.0917 16.1849 22.0917H6.39694C2.57007 22.0917 0 19.4759 0 15.5841V6.59927C0 2.70747 2.57007 0.0916748 6.39694 0.0916748H16.186ZM16.186 1.74167H6.39694C3.54005 1.74167 1.69381 3.64797 1.69381 6.59927V15.5841C1.69381 18.5354 3.54005 20.4417 6.39694 20.4417H16.1849C19.0429 20.4417 20.8903 18.5354 20.8903 15.5841V6.59927C20.8903 3.64797 19.0429 1.74167 16.186 1.74167Z" fill="#EAEAEA"/>
<path fill-rule="evenodd" clip-rule="evenodd" d="M16.186 50.0917C20.0129 50.0917 22.5841 52.7075 22.5841 56.5993V65.5841C22.5841 69.4759 20.0129 72.0917 16.1849 72.0917H6.39694C2.57007 72.0917 0 69.4759 0 65.5841V56.5993C0 52.7075 2.57007 50.0917 6.39694 50.0917H16.186ZM16.186 51.7417H6.39694C3.54005 51.7417 1.69381 53.648 1.69381 56.5993V65.5841C1.69381 68.5354 3.54005 70.4417 6.39694 70.4417H16.1849C19.0429 70.4417 20.8903 68.5354 20.8903 65.5841V56.5993C20.8903 53.648 19.0429 51.7417 16.186 51.7417Z" fill="#EAEAEA"/>
</svg>
