<svg width="30" height="25" viewBox="0 0 30 25" fill="none" xmlns="http://www.w3.org/2000/svg">
<rect width="29.3333" height="23.8554" transform="translate(0.666504 0.867477)" fill="white"/>
<path d="M22.2673 10.2836C22.4902 9.91393 22.3025 9.46729 21.848 9.28597C21.3935 9.10465 20.8443 9.25731 20.6213 9.62695L18.8364 12.5861C18.2832 13.5033 16.6572 13.4585 16.1816 12.5129C15.1071 10.3768 11.4337 10.2756 10.1839 12.3477L8.39907 15.3068C8.17612 15.6765 8.36384 16.1231 8.81836 16.3044C9.27288 16.4857 9.82209 16.3331 10.045 15.9634L11.8299 13.0043C12.3831 12.0871 14.0091 12.1319 14.4848 13.0775C15.5593 15.2136 19.2326 15.3148 20.4824 13.2427L22.2673 10.2836Z" fill="#C7B7EB"/>
<path fill-rule="evenodd" clip-rule="evenodd" d="M20.7886 3.22691C19.3926 3.10391 17.6331 3.10392 15.3885 3.10393H15.2779C13.0332 3.10392 11.2737 3.10391 9.87775 3.22691C8.45321 3.35243 7.29896 3.61317 6.31346 4.19546C5.71684 4.54799 5.19216 4.97468 4.75869 5.45988C4.04268 6.26135 3.72207 7.20004 3.56773 8.35856C3.41649 9.49381 3.41649 10.9247 3.4165 12.7502V12.8402C3.41649 14.6656 3.41649 16.0966 3.56773 17.2318C3.72207 18.3903 4.04268 19.329 4.75869 20.1305C5.19216 20.6157 5.71684 21.0424 6.31346 21.3949C7.29896 21.9772 8.45321 22.238 9.87775 22.3635C11.2737 22.4865 13.0331 22.4865 15.2777 22.4865H15.3885C17.6331 22.4865 19.3927 22.4865 20.7886 22.3635C22.2131 22.238 23.3674 21.9772 24.3529 21.3949C24.9495 21.0424 25.4742 20.6157 25.9077 20.1305C26.6237 19.329 26.9443 18.3903 27.0986 17.2318C27.2499 16.0966 27.2498 14.6657 27.2498 12.8403V12.7502C27.2498 10.9248 27.2499 9.49379 27.0986 8.35856C26.9443 7.20004 26.6237 6.26135 25.9077 5.45988C25.4742 4.97468 24.9495 4.54799 24.3529 4.19546C23.3674 3.61317 22.2131 3.35243 20.7886 3.22691ZM7.39106 5.40168C8.01196 5.03482 8.80667 4.82097 10.0752 4.7092C11.3609 4.59592 13.0212 4.59489 15.3332 4.59489C17.6451 4.59489 19.3054 4.59592 20.5911 4.7092C21.8597 4.82097 22.6544 5.03482 23.2753 5.40168C23.7163 5.66224 24.1041 5.97762 24.4245 6.33625C24.8756 6.84119 25.1385 7.48749 25.2759 8.51915C25.4152 9.56476 25.4165 10.915 25.4165 12.7952C25.4165 14.6754 25.4152 16.0256 25.2759 17.0712C25.1385 18.1029 24.8756 18.7492 24.4245 19.2541C24.1041 19.6128 23.7163 19.9281 23.2753 20.1887C22.6544 20.5556 21.8597 20.7694 20.5911 20.8812C19.3054 20.9945 17.6451 20.9955 15.3332 20.9955C13.0212 20.9955 11.3609 20.9945 10.0752 20.8812C8.80667 20.7694 8.01196 20.5556 7.39106 20.1887C6.95008 19.9281 6.56228 19.6128 6.24189 19.2541C5.79078 18.7492 5.52783 18.1029 5.39039 17.0712C5.2511 16.0256 5.24984 14.6754 5.24984 12.7952C5.24984 10.915 5.2511 9.56476 5.39039 8.51915C5.52783 7.48749 5.79078 6.84119 6.24189 6.33625C6.56228 5.97762 6.95008 5.66224 7.39106 5.40168Z" fill="#C7B7EB"/>
</svg>
