<svg width="30" height="25" viewBox="0 0 30 25" fill="none" xmlns="http://www.w3.org/2000/svg">
<g clip-path="url(#clip0_48_2521)">
<rect width="29.3333" height="23.8554" transform="translate(0.666504 0.180725)" fill="white"/>
<path fill-rule="evenodd" clip-rule="evenodd" d="M15.2923 1.42322H17.8187C19.4953 1.42321 20.8097 1.42321 21.8661 1.4934C22.9419 1.56488 23.8306 1.71284 24.6349 2.04616C25.9573 2.59411 27.0324 3.46845 27.7062 4.54386C28.116 5.19803 28.298 5.92075 28.3859 6.79559C28.4722 7.65473 28.4722 8.72368 28.4722 10.0871V14.3234C28.4722 16.8056 25.9979 18.8178 22.9457 18.8178H22.2102C21.9065 18.8178 21.6988 19.0673 21.8116 19.2966C22.6509 21.0029 20.2345 22.5455 18.3957 21.4774L16.1265 20.1592C15.6184 20.306 15.0774 20.395 14.5156 20.4169C14.3809 20.4222 14.2126 20.4222 13.9473 20.4222H13.9145L13.8443 20.4222C13.0644 20.4264 12.3035 20.627 11.6638 20.9986L11.6181 21.0254L9.13633 22.4867C7.50059 23.4499 5.46036 22.0399 6.16559 20.5865C6.18608 20.5443 6.17909 20.5043 6.15089 20.4699C6.12304 20.436 6.08749 20.4222 6.04628 20.4222H5.47424C2.97615 20.4222 0.972168 18.7556 0.972168 16.7211L0.972168 13.3753C0.972161 12.3055 0.972156 11.4577 1.03989 10.7743C1.10914 10.0756 1.25362 9.4839 1.58788 8.94312C2.12976 8.06643 2.99561 7.35178 4.06342 6.90328C4.28062 6.81205 4.50449 6.73787 4.73763 6.67734C4.83005 5.85359 5.01479 5.16639 5.40482 4.54386C6.07859 3.46845 7.15371 2.59411 8.47607 2.04616C9.28045 1.71284 10.1691 1.56488 11.2449 1.4934C12.3013 1.42321 13.6157 1.42321 15.2923 1.42322ZM6.61657 6.43078C7.38696 6.39303 8.29748 6.39306 9.39151 6.3931L11.4358 6.3931C12.7322 6.39309 13.762 6.39309 14.5925 6.44902C15.4427 6.50629 16.1651 6.62597 16.8254 6.90328C17.8932 7.35178 18.759 8.06643 19.3009 8.94312C19.6352 9.4839 19.7796 10.0756 19.8489 10.7743C19.9166 11.4577 19.9166 12.3055 19.9166 13.3753V15.545C19.9166 15.7427 19.9166 15.8684 19.9103 15.9786C19.8327 17.3294 19.0594 18.5306 17.8748 19.3425L19.4613 20.2641C19.8102 20.4668 20.2686 20.1741 20.1094 19.8503C19.5149 18.6416 20.6095 17.3268 22.2102 17.3268H22.9457C24.9854 17.3268 26.6388 15.9821 26.6388 14.3234V10.1205C26.6388 8.71651 26.6381 7.70835 26.5586 6.91701C26.48 6.13437 26.3289 5.62969 26.0727 5.22074C25.5747 4.42587 24.78 3.77962 23.8026 3.37461C23.2998 3.16624 22.6792 3.04336 21.7168 2.97942C20.7438 2.91476 19.5041 2.91418 17.7777 2.91418H15.3333C13.6069 2.91418 12.3672 2.91476 11.3942 2.97942C10.4318 3.04336 9.81124 3.16624 9.30838 3.37461C8.33099 3.77962 7.53634 4.42587 7.03833 5.22074C6.8387 5.53938 6.70377 5.91418 6.61657 6.43078ZM9.49377 7.88406C7.65509 7.88406 6.56431 7.88702 5.76814 8.00421C5.40741 8.05731 5.13602 8.13084 4.90471 8.22799C4.18381 8.53078 3.59541 9.01494 3.2259 9.61275C3.04211 9.9101 2.92756 10.286 2.8673 10.8941C2.8062 11.5106 2.8055 12.2983 2.8055 13.4076V16.7211C2.8055 17.9513 4.012 18.9312 5.47424 18.9312H6.04628C7.45221 18.9312 8.37652 20.0919 7.87095 21.1338C7.84959 21.1778 7.85521 21.2014 7.85993 21.2143C7.86681 21.2329 7.88416 21.2564 7.91461 21.2761C7.94509 21.2959 7.97328 21.3019 7.98919 21.3026C7.997 21.303 8.01886 21.304 8.06117 21.2791L10.543 19.8178L10.5982 19.7854C11.5441 19.2359 12.6726 18.9374 13.8324 18.9313L13.9145 18.9312C14.2232 18.9312 14.3432 18.931 14.4277 18.9277C14.9377 18.9078 15.4199 18.8063 15.8572 18.6389C17.1164 18.1568 18.0091 17.1254 18.079 15.909C18.083 15.8382 18.0833 15.7501 18.0833 15.5225V13.4076C18.0833 12.2983 18.0826 11.5106 18.0215 10.8941C17.9612 10.286 17.8467 9.9101 17.6629 9.61275C17.2934 9.01494 16.705 8.53078 15.9841 8.22799C15.6276 8.07825 15.1761 7.9844 14.4412 7.9349C13.6952 7.88466 12.7413 7.88406 11.395 7.88406H9.49377Z" fill="#757575"/>
<path d="M7.99995 14.0964C7.99995 14.6454 7.45274 15.0904 6.77772 15.0904C6.10271 15.0904 5.5555 14.6454 5.5555 14.0964C5.5555 13.5475 6.10271 13.1024 6.77772 13.1024C7.45274 13.1024 7.99995 13.5475 7.99995 14.0964Z" fill="#757575"/>
<path d="M11.6666 14.0964C11.6666 14.6454 11.1194 15.0904 10.4444 15.0904C9.76938 15.0904 9.22217 14.6454 9.22217 14.0964C9.22217 13.5475 9.76938 13.1024 10.4444 13.1024C11.1194 13.1024 11.6666 13.5475 11.6666 14.0964Z" fill="#757575"/>
<path d="M15.3333 14.0964C15.3333 14.6454 14.7861 15.0904 14.1111 15.0904C13.436 15.0904 12.8888 14.6454 12.8888 14.0964C12.8888 13.5475 13.436 13.1024 14.1111 13.1024C14.7861 13.1024 15.3333 13.5475 15.3333 14.0964Z" fill="#757575"/>
</g>
<defs>
<clipPath id="clip0_48_2521">
<rect width="29.3333" height="23.8554" fill="white" transform="translate(0.666504 0.180725)"/>
</clipPath>
</defs>
</svg>
