<svg width="38" height="35" viewBox="0 0 38 35" fill="none" xmlns="http://www.w3.org/2000/svg">
<path d="M11.5601 20.4183C12.783 22.9802 15.8146 24.7917 18.9994 24.7917C22.1706 24.7917 25.1963 22.9755 26.4298 20.4247" stroke="#2329D6" stroke-linecap="round"/>
<path fill-rule="evenodd" clip-rule="evenodd" d="M14.2498 14.5833C15.1243 14.5833 15.8332 13.9304 15.8332 13.125C15.8332 12.3196 15.1243 11.6667 14.2498 11.6667C13.3754 11.6667 12.6665 12.3196 12.6665 13.125C12.6665 13.9304 13.3754 14.5833 14.2498 14.5833Z" fill="#2329D6"/>
<path fill-rule="evenodd" clip-rule="evenodd" d="M23.7498 14.5833C24.6243 14.5833 25.3332 13.9304 25.3332 13.125C25.3332 12.3196 24.6243 11.6667 23.7498 11.6667C22.8754 11.6667 22.1665 12.3196 22.1665 13.125C22.1665 13.9304 22.8754 14.5833 23.7498 14.5833Z" fill="#2329D6"/>
<path fill-rule="evenodd" clip-rule="evenodd" d="M18.9998 32.0833C27.7443 32.0833 34.8332 25.5542 34.8332 17.5C34.8332 9.44585 27.7443 2.91667 18.9998 2.91667C10.2553 2.91667 3.1665 9.44585 3.1665 17.5C3.1665 25.5542 10.2553 32.0833 18.9998 32.0833Z" stroke="#2329D6"/>
</svg>
