<svg width="30" height="25" viewBox="0 0 30 25" fill="none" xmlns="http://www.w3.org/2000/svg">
<rect width="29.3333" height="23.8554" transform="translate(0.333496 0.903625)" fill="white"/>
<path d="M21.9343 10.3197C22.1572 9.95008 21.9695 9.50344 21.515 9.32211C21.0605 9.14079 20.5112 9.29346 20.2883 9.6631L18.5034 12.6222C17.9502 13.5394 16.3242 13.4946 15.8486 12.5491C14.7741 10.413 11.1007 10.3118 9.85092 12.3838L8.06607 15.343C7.84311 15.7126 8.03083 16.1592 8.48535 16.3406C8.93988 16.5219 9.48908 16.3692 9.71204 15.9996L11.4969 13.0405C12.0501 12.1233 13.6761 12.1681 14.1517 13.1136C15.2263 15.2497 18.8996 15.3509 20.1494 13.2788L21.9343 10.3197Z" fill="#C7B7EB"/>
<path fill-rule="evenodd" clip-rule="evenodd" d="M20.4556 3.26306C19.0596 3.14006 17.3001 3.14007 15.0555 3.14008H14.9449C12.7002 3.14007 10.9407 3.14006 9.54474 3.26306C8.1202 3.38858 6.96596 3.64931 5.98045 4.23161C5.38383 4.58413 4.85915 5.01083 4.42568 5.49603C3.70967 6.2975 3.38906 7.23619 3.23472 8.39471C3.08348 9.52996 3.08349 10.9609 3.0835 12.7864V12.8763C3.08349 14.7018 3.08348 16.1327 3.23472 17.268C3.38906 18.4265 3.70967 19.3652 4.42568 20.1666C4.85915 20.6519 5.38383 21.0785 5.98045 21.4311C6.96596 22.0134 8.1202 22.2741 9.54474 22.3996C10.9407 22.5226 12.7001 22.5226 14.9447 22.5226H15.0555C17.3001 22.5226 19.0597 22.5226 20.4556 22.3996C21.8801 22.2741 23.0344 22.0134 24.0199 21.4311C24.6165 21.0785 25.1412 20.6519 25.5746 20.1666C26.2907 19.3652 26.6113 18.4265 26.7656 17.268C26.9168 16.1327 26.9168 14.7018 26.9168 12.8764V12.7863C26.9168 10.9609 26.9168 9.52994 26.7656 8.39471C26.6113 7.23619 26.2907 6.2975 25.5746 5.49603C25.1412 5.01083 24.6165 4.58413 24.0199 4.23161C23.0344 3.64931 21.8801 3.38858 20.4556 3.26306ZM7.05806 5.43783C7.67895 5.07097 8.47366 4.85712 9.74222 4.74535C11.0279 4.63206 12.6882 4.63104 15.0002 4.63104C17.3121 4.63104 18.9724 4.63206 20.2581 4.74535C21.5267 4.85712 22.3214 5.07096 22.9423 5.43783C23.3833 5.69839 23.7711 6.01377 24.0914 6.3724C24.5426 6.87734 24.8055 7.52364 24.9429 8.5553C25.0822 9.60091 25.0835 10.9512 25.0835 12.8313C25.0835 14.7115 25.0822 16.0618 24.9429 17.1074C24.8055 18.139 24.5426 18.7853 24.0914 19.2903C23.7711 19.6489 23.3833 19.9643 22.9423 20.2249C22.3214 20.5917 21.5267 20.8056 20.2581 20.9173C18.9724 21.0306 17.3121 21.0316 15.0002 21.0316C12.6882 21.0316 11.0279 21.0306 9.74222 20.9173C8.47366 20.8056 7.67895 20.5917 7.05806 20.2249C6.61708 19.9643 6.22927 19.6489 5.90888 19.2903C5.45777 18.7853 5.19483 18.139 5.05739 17.1074C4.91809 16.0618 4.91683 14.7115 4.91683 12.8313C4.91683 10.9512 4.91809 9.60091 5.05739 8.5553C5.19483 7.52364 5.45777 6.87734 5.90888 6.3724C6.22927 6.01377 6.61708 5.69839 7.05806 5.43783Z" fill="#C7B7EB"/>
</svg>
