<svg width="27" height="22" viewBox="0 0 27 22" fill="none" xmlns="http://www.w3.org/2000/svg">
<path d="M15.9098 3.09849L15.1654 3.19002V3.19002L15.9098 3.09849ZM15.6838 2.11262L15.0575 2.52519L15.0575 2.52519L15.6838 2.11262ZM16.3094 4.69347L16.8483 4.17191V4.17191L16.3094 4.69347ZM16.9685 4.99629L17.0131 4.24762H17.0131L16.9685 4.99629ZM18.4389 4.2604L18.8544 4.8848L18.8544 4.8848L18.4389 4.2604ZM18.906 3.94959L18.4905 3.32519L18.4905 3.32519L18.906 3.94959ZM20.0982 3.38216L20.1341 2.63296L20.1254 2.63265L20.0982 3.38216ZM20.1215 3.38327L20.1661 2.63454L20.1573 2.63413L20.1215 3.38327ZM21.2541 4.06198L21.7273 3.48011L21.7273 3.48011L21.2541 4.06198ZM22.3368 4.9425L21.8636 5.52437H21.8636L22.3368 4.9425ZM22.8583 5.42702L23.4854 5.01562V5.01562L22.8583 5.42702ZM22.9087 6.43823L23.5736 6.78524L23.5736 6.78523L22.9087 6.43823ZM22.438 6.97221L21.9092 6.44027V6.44028L22.438 6.97221ZM21.6463 7.88031L20.9473 7.60862L21.6463 7.88031ZM22.1 9.12069L22.4588 8.4621L22.4588 8.4621L22.1 9.12069ZM23.2907 9.3038L23.2299 10.0513L23.2907 9.3038ZM23.8428 9.3487L23.9036 8.60117L23.8428 9.3487ZM24.8512 9.53646L25.2397 8.89488V8.89488L24.8512 9.53646ZM25.2279 9.94502L24.557 10.2802L24.557 10.2802L25.2279 9.94502ZM25.228 12.8983L24.557 12.5632L24.557 12.5632L25.228 12.8983ZM24.8511 13.3071L25.2394 13.9487L25.2394 13.9487L24.8511 13.3071ZM23.843 13.4947L23.7822 12.7472L23.843 13.4947ZM23.2909 13.5396L23.3517 14.2872L23.2909 13.5396ZM22.1008 13.7226L21.7421 13.0639L21.7421 13.0639L22.1008 13.7226ZM21.647 14.9633L20.948 15.2351L20.948 15.2352L21.647 14.9633ZM22.4383 15.8709L22.967 15.339L22.967 15.339L22.4383 15.8709ZM22.9087 16.4045L22.2439 16.7517L22.2439 16.7517L22.9087 16.4045ZM22.8583 17.416L23.4853 17.8276L23.4853 17.8276L22.8583 17.416ZM22.3371 17.9003L21.8639 17.3184L21.8639 17.3184L22.3371 17.9003ZM21.2542 18.7809L20.781 18.1991V18.1991L21.2542 18.7809ZM20.1216 19.4597L20.1574 20.2089L20.1662 20.2083L20.1216 19.4597ZM20.0984 19.4608L20.1255 20.2103L20.1342 20.2099L20.0984 19.4608ZM18.9061 18.8933L18.4906 19.5177L18.4906 19.5177L18.9061 18.8933ZM18.4393 18.5827L18.8548 17.9583H18.8548L18.4393 18.5827ZM16.9683 17.8466L16.9235 17.098H16.9235L16.9683 17.8466ZM16.3096 18.1492L16.8484 18.6709H16.8484L16.3096 18.1492ZM15.9099 19.7448L15.1655 19.6533V19.6533L15.9099 19.7448ZM15.6837 20.731L15.0575 20.3184L15.0575 20.3184L15.6837 20.731ZM15.2929 21.0767L14.9598 20.4048L14.9598 20.4048L15.2929 21.0767ZM11.3737 21.0768L11.0406 21.7487L11.0406 21.7487L11.3737 21.0768ZM10.9828 20.731L10.3565 21.1436L10.3565 21.1436L10.9828 20.731ZM10.7567 19.745L11.5011 19.6534L11.4992 19.6375L11.4965 19.6217L10.7567 19.745ZM10.7567 19.7449L10.0123 19.8365L10.0143 19.8524L10.0169 19.8682L10.7567 19.7449ZM10.3571 18.1497L10.896 17.6281L10.896 17.6281L10.3571 18.1497ZM9.69817 17.847L9.74287 17.0983H9.74287L9.69817 17.847ZM8.22751 18.5829L8.64299 19.2074H8.64299L8.22751 18.5829ZM7.76047 18.8937L8.17594 19.5181L8.17594 19.5181L7.76047 18.8937ZM6.56815 19.4612L6.53227 20.2104L6.54099 20.2107L6.56815 19.4612ZM6.54498 19.4601L6.50043 20.2088L6.50909 20.2092L6.54498 19.4601ZM5.4123 18.7813L5.88551 18.1994H5.88551L5.4123 18.7813ZM4.32959 17.9008L3.85638 18.4827L4.32959 17.9008ZM3.80816 17.4163L4.43525 17.0049L4.43524 17.0049L3.80816 17.4163ZM3.75776 16.4051L3.09287 16.058H3.09287L3.75776 16.4051ZM4.22842 15.8712L3.7599 15.2855L3.72835 15.3107L3.6997 15.3392L4.22842 15.8712ZM4.22843 15.8711L4.69695 16.4568L4.7285 16.4316L4.75716 16.4031L4.22843 15.8711ZM5.01998 14.9631L4.32094 14.6914L4.32094 14.6914L5.01998 14.9631ZM4.56632 13.7227L4.20752 14.3813H4.20752L4.56632 13.7227ZM3.37572 13.5396L3.43652 12.7921H3.43652L3.37572 13.5396ZM2.82372 13.4947L2.88452 12.7472L2.82372 13.4947ZM1.81546 13.307L2.20385 12.6654L2.20385 12.6654L1.81546 13.307ZM1.43868 12.8984L0.767707 13.2335L0.767708 13.2335L1.43868 12.8984ZM1.43875 9.94496L2.10967 10.2802H2.10967L1.43875 9.94496ZM1.81534 9.53649L1.42686 8.89495L1.42686 8.89495L1.81534 9.53649ZM2.8239 9.34869L2.76311 8.60116H2.76311L2.8239 9.34869ZM3.37589 9.3038V8.5538H3.34544L3.31509 8.55627L3.37589 9.3038ZM3.37589 9.3038V10.0538H3.40634L3.43669 10.0513L3.37589 9.3038ZM4.56712 9.12058L4.92607 9.7791L4.92607 9.7791L4.56712 9.12058ZM5.02066 7.88046L5.71977 7.6089L5.02066 7.88046ZM4.22871 6.97193L3.69838 7.50226L3.69999 7.50386L4.22871 6.97193ZM4.22871 6.97193L4.75904 6.4416L4.75743 6.44L4.22871 6.97193ZM3.75781 6.43771L3.09286 6.78462L3.09286 6.78463L3.75781 6.43771ZM3.8082 5.42673L4.43535 5.83805L4.43535 5.83805L3.8082 5.42673ZM4.32989 4.94199L4.8031 5.52386L4.83298 5.49956L4.86022 5.47232L4.32989 4.94199ZM4.32989 4.94199L3.85668 4.36012L3.8268 4.38442L3.79956 4.41166L4.32989 4.94199ZM5.41245 4.06159L4.93924 3.47972V3.47972L5.41245 4.06159ZM6.54509 3.38287L6.50923 2.63367L6.50053 2.63419L6.54509 3.38287ZM6.5683 3.38176L6.54115 2.6322L6.53244 2.63261L6.5683 3.38176ZM7.76058 3.94921L7.34511 4.57361V4.57361L7.76058 3.94921ZM8.22793 4.26017L8.6434 3.63576L8.22793 4.26017ZM9.69799 4.99594L9.65348 4.24726L9.69799 4.99594ZM10.3573 4.69301L10.8964 5.21449L10.3573 4.69301ZM10.7568 3.09836L10.0124 3.00683V3.00683L10.7568 3.09836ZM10.9827 2.11271L11.6091 2.52522V2.52522L10.9827 2.11271ZM11.3739 1.76668L11.7069 2.43871L11.7069 2.43871L11.3739 1.76668ZM15.2928 1.76673L14.9597 2.43872L14.9597 2.43872L15.2928 1.76673ZM16.6542 3.00695C16.6233 2.75571 16.5953 2.52256 16.5553 2.32941C16.5133 2.12635 16.4476 1.90866 16.3101 1.70004L15.0575 2.52519C15.0489 2.51217 15.0638 2.52399 15.0864 2.63325C15.111 2.75243 15.1315 2.91441 15.1654 3.19002L16.6542 3.00695ZM16.8483 4.17191C16.8774 4.20197 16.8433 4.19411 16.796 3.98143C16.7488 3.76945 16.7116 3.47377 16.6542 3.00695L15.1654 3.19002C15.219 3.626 15.2651 4.00742 15.3317 4.30703C15.3982 4.60595 15.5083 4.94419 15.7704 5.21504L16.8483 4.17191ZM17.0131 4.24762C16.9506 4.24389 16.8918 4.21688 16.8483 4.17191L15.7704 5.21504C16.075 5.52981 16.4866 5.7189 16.9239 5.74496L17.0131 4.24762ZM18.0234 3.63599C17.6318 3.89654 17.3833 4.06093 17.1917 4.16326C16.9996 4.26592 16.9714 4.24513 17.0131 4.24762L16.9239 5.74496C17.3001 5.76738 17.6284 5.63059 17.8985 5.48629C18.1693 5.34166 18.4886 5.12814 18.8544 4.8848L18.0234 3.63599ZM18.4905 3.32519L18.0234 3.63599L18.8544 4.8848L19.3215 4.574L18.4905 3.32519ZM20.1254 2.63265C19.7894 2.62048 19.5054 2.72179 19.2566 2.84942C19.0247 2.9684 18.7663 3.14169 18.4905 3.32519L19.3215 4.574C19.6259 4.37144 19.8026 4.25518 19.9413 4.18404C20.0039 4.15191 20.0395 4.13949 20.0571 4.13461C20.0653 4.13235 20.0693 4.13182 20.0702 4.13172C20.0708 4.13164 20.0708 4.13165 20.0711 4.13166L20.1254 2.63265ZM20.1573 2.63413L20.1341 2.63301L20.0624 4.1313L20.0856 4.13241L20.1573 2.63413ZM21.7273 3.48011C21.4703 3.27111 21.2296 3.07393 21.0101 2.93335C20.7747 2.78254 20.5017 2.65457 20.1661 2.63459L20.0769 4.13194C20.0772 4.13196 20.0772 4.13194 20.0779 4.13209C20.0787 4.13227 20.0826 4.13318 20.0905 4.13621C20.1077 4.14276 20.1418 4.15851 20.2011 4.19648C20.3324 4.28053 20.4972 4.41314 20.7809 4.64385L21.7273 3.48011ZM22.81 4.36063L21.7273 3.48011L20.7809 4.64385L21.8636 5.52437L22.81 4.36063ZM23.4854 5.01562C23.3203 4.76406 23.0551 4.55992 22.81 4.36063L21.8636 5.52437C22.0152 5.64766 22.1064 5.72216 22.1719 5.78133C22.2345 5.83796 22.2391 5.85053 22.2312 5.83842L23.4854 5.01562ZM23.5736 6.78523C23.867 6.22296 23.8333 5.54592 23.4854 5.01562L22.2312 5.83842C22.2809 5.91418 22.2857 6.0109 22.2438 6.09123L23.5736 6.78523ZM22.9667 7.50414C23.1907 7.28145 23.4344 7.05196 23.5736 6.78524L22.2438 6.09122C22.2505 6.07838 22.2472 6.09135 22.1905 6.15393C22.1312 6.21932 22.0478 6.30252 21.9092 6.44027L22.9667 7.50414ZM22.3454 8.15201C22.3315 8.18772 22.3308 8.16376 22.4498 8.03139C22.5612 7.9076 22.722 7.74737 22.9667 7.50414L21.9092 6.44028C21.6774 6.67074 21.4808 6.86579 21.3346 7.02823C21.1962 7.1821 21.0379 7.37535 20.9473 7.60862L22.3454 8.15201ZM22.4588 8.4621C22.3484 8.40195 22.2999 8.26918 22.3454 8.15201L20.9473 7.60862C20.6285 8.42886 20.9684 9.35825 21.7411 9.77928L22.4588 8.4621ZM23.3515 8.55627C23.0076 8.5283 22.7814 8.50962 22.6164 8.48688C22.44 8.46256 22.4252 8.44377 22.4588 8.4621L21.7411 9.77928C21.9609 9.89902 22.2065 9.94455 22.4115 9.97282C22.628 10.0027 22.9041 10.0248 23.2299 10.0513L23.3515 8.55627ZM23.9036 8.60117L23.3515 8.55627L23.2299 10.0513L23.782 10.0962L23.9036 8.60117ZM25.2397 8.89488C25.0238 8.76419 24.801 8.70696 24.5945 8.67307C24.3976 8.64076 24.1602 8.62204 23.9036 8.60117L23.782 10.0962C24.0632 10.1191 24.2291 10.1332 24.3516 10.1533C24.4644 10.1718 24.4769 10.1866 24.4628 10.178L25.2397 8.89488ZM25.8989 9.60988C25.7511 9.31405 25.5225 9.06614 25.2397 8.89488L24.4628 10.178C24.5032 10.2025 24.5359 10.2379 24.557 10.2802L25.8989 9.60988ZM26.0833 10.9653C26.0833 10.7079 26.0839 10.4698 26.0676 10.2709C26.0506 10.0624 26.0116 9.83561 25.8989 9.60987L24.557 10.2802C24.5496 10.2654 24.5633 10.2791 24.5726 10.3931C24.5827 10.5167 24.5833 10.6833 24.5833 10.9653H26.0833ZM26.0833 11.8783V10.9653H24.5833V11.8783H26.0833ZM25.899 13.2333C26.0117 13.0077 26.0506 12.781 26.0677 12.5725C26.0839 12.3737 26.0833 12.1357 26.0833 11.8783H24.5833C24.5833 12.1603 24.5827 12.3268 24.5726 12.4504C24.5633 12.5643 24.5496 12.578 24.557 12.5632L25.899 13.2333ZM25.2394 13.9487C25.5225 13.7774 25.7512 13.5293 25.899 13.2333L24.557 12.5632C24.5359 12.6055 24.5032 12.641 24.4628 12.6654L25.2394 13.9487ZM23.9038 14.2423C24.1603 14.2214 24.3976 14.2027 24.5944 14.1704C24.8008 14.1365 25.0236 14.0793 25.2394 13.9487L24.4628 12.6654C24.4769 12.6569 24.4644 12.6717 24.3516 12.6902C24.2292 12.7103 24.0632 12.7243 23.7822 12.7472L23.9038 14.2423ZM23.3517 14.2872L23.9038 14.2423L23.7822 12.7472L23.2301 12.7921L23.3517 14.2872ZM22.4594 14.3813C22.4258 14.3996 22.4407 14.3808 22.617 14.3565C22.7818 14.3338 23.008 14.3151 23.3517 14.2872L23.2301 12.7921C22.9044 12.8186 22.6285 12.8407 22.4122 12.8706C22.2072 12.8988 21.9618 12.9443 21.7421 13.0639L22.4594 14.3813ZM22.346 14.6914C22.3004 14.5742 22.349 14.4414 22.4595 14.3813L21.7421 13.0639C20.969 13.4849 20.6289 14.4147 20.948 15.2351L22.346 14.6914ZM22.967 15.339C22.7224 15.0959 22.5617 14.9357 22.4504 14.812C22.3314 14.6797 22.3321 14.6558 22.346 14.6914L20.948 15.2352C21.0387 15.4683 21.1969 15.6614 21.3352 15.8152C21.4813 15.9775 21.6778 16.1725 21.9095 16.4028L22.967 15.339ZM23.5736 16.0574C23.4344 15.7909 23.1909 15.5615 22.967 15.339L21.9095 16.4028C22.048 16.5405 22.1314 16.6236 22.1906 16.689C22.2473 16.7515 22.2506 16.7645 22.2439 16.7517L23.5736 16.0574ZM23.4853 17.8276C23.8335 17.2971 23.8672 16.6198 23.5736 16.0574L22.2439 16.7517C22.2858 16.832 22.281 16.9288 22.2313 17.0045L23.4853 17.8276ZM22.8103 18.4822C23.0552 18.283 23.3204 18.079 23.4853 17.8276L22.2313 17.0045C22.2392 16.9924 22.2346 17.005 22.172 17.0616C22.1066 17.1207 22.0154 17.1952 21.8639 17.3184L22.8103 18.4822ZM21.7274 19.3628L22.8103 18.4822L21.8639 17.3184L20.781 18.1991L21.7274 19.3628ZM20.1662 20.2083C20.5018 20.1884 20.7748 20.0604 21.0103 19.9096C21.2298 19.769 21.4704 19.5718 21.7274 19.3628L20.781 18.1991C20.4973 18.4298 20.3325 18.5624 20.2012 18.6465C20.142 18.6844 20.1078 18.7002 20.0906 18.7067C20.0827 18.7097 20.0788 18.7107 20.078 18.7108C20.0773 18.711 20.0773 18.711 20.077 18.711L20.1662 20.2083ZM20.1342 20.2099L20.1574 20.2088L20.0858 18.7105L20.0626 18.7116L20.1342 20.2099ZM18.4906 19.5177C18.7664 19.7012 19.0248 19.8745 19.2568 19.9935C19.5056 20.1211 19.7895 20.2225 20.1255 20.2103L20.0712 18.7113C20.0709 18.7113 20.0709 18.7113 20.0703 18.7112C20.0695 18.7111 20.0655 18.7106 20.0573 18.7083C20.0396 18.7034 20.0041 18.691 19.9414 18.6589C19.8028 18.5877 19.626 18.4715 19.3216 18.2689L18.4906 19.5177ZM18.0238 19.2071L18.4906 19.5177L19.3216 18.2689L18.8548 17.9583L18.0238 19.2071ZM17.0131 18.5953C16.9714 18.5978 16.9996 18.577 17.1918 18.6797C17.3834 18.782 17.6321 18.9465 18.0238 19.2071L18.8548 17.9583C18.4889 17.7149 18.1694 17.5013 17.8986 17.3566C17.6284 17.2123 17.2999 17.0754 16.9235 17.098L17.0131 18.5953ZM16.8484 18.6709C16.8919 18.626 16.9507 18.599 17.0131 18.5953L16.9235 17.098C16.4866 17.1241 16.0753 17.3131 15.7708 17.6275L16.8484 18.6709ZM16.6543 19.8363C16.7117 19.3693 16.7489 19.0735 16.7961 18.8615C16.8434 18.6487 16.8775 18.6409 16.8484 18.6709L15.7708 17.6275C15.5085 17.8984 15.3983 18.2368 15.3318 18.5358C15.2652 18.8355 15.2191 19.2171 15.1655 19.6533L16.6543 19.8363ZM16.31 21.1437C16.4475 20.9351 16.5133 20.7173 16.5553 20.5141C16.5953 20.3209 16.6233 20.0877 16.6543 19.8363L15.1655 19.6533C15.1316 19.929 15.111 20.091 15.0864 20.2103C15.0638 20.3196 15.0489 20.3314 15.0575 20.3184L16.31 21.1437ZM15.6261 21.7486C15.9036 21.6111 16.1396 21.4023 16.31 21.1437L15.0575 20.3184C15.0331 20.3553 14.9994 20.3851 14.9598 20.4048L15.6261 21.7486ZM14.2865 21.9308C14.5397 21.9308 14.7746 21.9314 14.9713 21.9153C15.1781 21.8984 15.4022 21.8597 15.6261 21.7486L14.9598 20.4048C14.9738 20.3978 14.9602 20.4112 14.849 20.4203C14.7276 20.4302 14.5643 20.4308 14.2865 20.4308V21.9308ZM12.38 21.9308H14.2865V20.4308H12.38V21.9308ZM11.0406 21.7487C11.2645 21.8597 11.4886 21.8984 11.6953 21.9153C11.8919 21.9314 12.1268 21.9308 12.38 21.9308V20.4308C12.1022 20.4308 11.9389 20.4302 11.8176 20.4203C11.7064 20.4112 11.6928 20.3979 11.7068 20.4048L11.0406 21.7487ZM10.3565 21.1436C10.527 21.4023 10.763 21.6111 11.0406 21.7487L11.7068 20.4048C11.6672 20.3851 11.6334 20.3553 11.6091 20.3183L10.3565 21.1436ZM10.0123 19.8365C10.0432 20.0878 10.0713 20.3209 10.1113 20.5141C10.1533 20.7172 10.219 20.9349 10.3565 21.1436L11.6091 20.3183C11.6177 20.3314 11.6028 20.3195 11.5802 20.2103C11.5555 20.0911 11.535 19.9291 11.5011 19.6534L10.0123 19.8365ZM10.0169 19.8682L10.0169 19.8682L11.4965 19.6217L11.4965 19.6216L10.0169 19.8682ZM9.81819 18.6713C9.7891 18.6413 9.82327 18.6491 9.87057 18.8618C9.91772 19.0738 9.95492 19.3696 10.0123 19.8365L11.5011 19.6534C11.4475 19.2173 11.4014 18.8359 11.3348 18.5362C11.2683 18.2372 11.1582 17.8989 10.896 17.6281L9.81819 18.6713ZM9.65346 18.5956C9.71591 18.5994 9.77469 18.6264 9.8182 18.6713L10.896 17.6281C10.5914 17.3134 10.18 17.1244 9.74287 17.0983L9.65346 18.5956ZM8.64299 19.2074C9.03462 18.9468 9.28323 18.7823 9.47481 18.68C9.667 18.5773 9.69522 18.5981 9.65346 18.5956L9.74287 17.0983C9.36657 17.0758 9.03816 17.2126 8.76801 17.357C8.49725 17.5016 8.17781 17.7152 7.81204 17.9585L8.64299 19.2074ZM8.17594 19.5181L8.64299 19.2074L7.81204 17.9585L7.345 18.2693L8.17594 19.5181ZM6.54099 20.2107C6.877 20.2229 7.16099 20.1215 7.40979 19.9939C7.64173 19.8749 7.90015 19.7016 8.17594 19.5181L7.345 18.2693C7.04056 18.4719 6.8638 18.5881 6.72512 18.6593C6.66249 18.6914 6.62696 18.7038 6.60927 18.7087C6.60109 18.711 6.59708 18.7115 6.59626 18.7116C6.5956 18.7117 6.59562 18.7117 6.59531 18.7117L6.54099 20.2107ZM6.50909 20.2092L6.53227 20.2103L6.60404 18.712L6.58086 18.7109L6.50909 20.2092ZM4.9391 19.3632C5.19611 19.5722 5.43679 19.7694 5.6563 19.91C5.89178 20.0608 6.1648 20.1888 6.50043 20.2087L6.58952 18.7114C6.58921 18.7114 6.58923 18.7114 6.58858 18.7112C6.58778 18.7111 6.58384 18.7101 6.57591 18.7071C6.55877 18.7006 6.52459 18.6848 6.46531 18.6468C6.33407 18.5628 6.16922 18.4302 5.88551 18.1994L4.9391 19.3632ZM3.85638 18.4827L4.9391 19.3632L5.88551 18.1994L4.8028 17.3189L3.85638 18.4827ZM3.18108 17.8278C3.34611 18.0793 3.61135 18.2834 3.85638 18.4827L4.8028 17.3189C4.65121 17.1957 4.55999 17.1212 4.49454 17.062C4.43189 17.0054 4.4273 16.9928 4.43525 17.0049L3.18108 17.8278ZM3.09287 16.058C2.79939 16.6203 2.83314 17.2974 3.18108 17.8278L4.43524 17.0049C4.38554 16.9291 4.38072 16.8324 4.42264 16.7521L3.09287 16.058ZM3.6997 15.3392C3.4757 15.5619 3.23207 15.7914 3.09287 16.058L4.42264 16.7521C4.41594 16.7649 4.41926 16.752 4.47596 16.6894C4.53521 16.624 4.61857 16.5408 4.75715 16.4031L3.6997 15.3392ZM3.75991 15.2855L3.7599 15.2855L4.69694 16.4568L4.69695 16.4568L3.75991 15.2855ZM4.32094 14.6914C4.33481 14.6557 4.33557 14.6797 4.21651 14.812C4.10516 14.9358 3.94438 15.096 3.6997 15.3392L4.75716 16.4031C4.98899 16.1726 5.18559 15.9776 5.3317 15.8152C5.4701 15.6613 5.62837 15.4681 5.71903 15.2349L4.32094 14.6914ZM4.20752 14.3813C4.31792 14.4415 4.36648 14.5742 4.32094 14.6914L5.71903 15.2349C6.03788 14.4146 5.69795 13.4851 4.92512 13.0641L4.20752 14.3813ZM3.31493 14.2872C3.65878 14.3151 3.88499 14.3338 4.04992 14.3565C4.22628 14.3809 4.24116 14.3996 4.20752 14.3813L4.92512 13.0641C4.70538 12.9444 4.45978 12.8989 4.25479 12.8706C4.03836 12.8408 3.76233 12.8186 3.43652 12.7921L3.31493 14.2872ZM2.76293 14.2423L3.31493 14.2872L3.43652 12.7921L2.88452 12.7472L2.76293 14.2423ZM1.42707 13.9486C1.64291 14.0793 1.86573 14.1365 2.07216 14.1704C2.26903 14.2027 2.50635 14.2214 2.76293 14.2423L2.88452 12.7472C2.60342 12.7243 2.43748 12.7103 2.31507 12.6902C2.20223 12.6717 2.18976 12.6569 2.20385 12.6654L1.42707 13.9486ZM0.767708 13.2335C0.915494 13.5294 1.14412 13.7773 1.42707 13.9486L2.20385 12.6654C2.16343 12.641 2.13077 12.6055 2.10965 12.5633L0.767708 13.2335ZM0.583313 11.8782C0.583313 12.1356 0.582731 12.3737 0.598974 12.5725C0.616006 12.781 0.65498 13.0077 0.767707 13.2335L2.10966 12.5633C2.11701 12.578 2.1033 12.5644 2.09399 12.4504C2.08389 12.3268 2.08331 12.1602 2.08331 11.8782H0.583313ZM0.583313 10.9654V11.8782H2.08331V10.9654H0.583313ZM0.767821 9.60976C0.655025 9.83553 0.616026 10.0623 0.598984 10.2709C0.582731 10.4698 0.583313 10.7079 0.583313 10.9654H2.08331C2.08331 10.6833 2.08389 10.5167 2.094 10.393C2.10332 10.279 2.11703 10.2654 2.10967 10.2802L0.767821 9.60976ZM1.42686 8.89495C1.14407 9.06619 0.915573 9.31402 0.767821 9.60976L2.10967 10.2802C2.13078 10.2379 2.16342 10.2025 2.20382 10.178L1.42686 8.89495ZM2.76311 8.60116C2.50644 8.62203 2.26905 8.64076 2.07213 8.67308C1.86563 8.70697 1.64274 8.76422 1.42686 8.89495L2.20382 10.178C2.18973 10.1866 2.2022 10.1718 2.31507 10.1533C2.43752 10.1332 2.60351 10.1191 2.8847 10.0962L2.76311 8.60116ZM3.31509 8.55627L2.76311 8.60116L2.8847 10.0962L3.43668 10.0513L3.31509 8.55627ZM3.37589 8.5538H3.37589V10.0538H3.37589V8.5538ZM4.20817 8.46205C4.24182 8.44371 4.22694 8.46251 4.05049 8.48684C3.88547 8.5096 3.65914 8.52829 3.3151 8.55627L3.43669 10.0513C3.76267 10.0248 4.03886 10.0026 4.2554 9.97278C4.46051 9.9445 4.70623 9.89893 4.92607 9.7791L4.20817 8.46205ZM4.32155 8.15202C4.36706 8.26918 4.31852 8.4019 4.20817 8.46205L4.92607 9.7791C5.69853 9.35804 6.03832 8.42896 5.71977 7.6089L4.32155 8.15202ZM3.69999 7.50386C3.9448 7.7472 4.10567 7.9075 4.21707 8.03135C4.33619 8.16379 4.33543 8.18775 4.32155 8.15202L5.71977 7.6089C5.62911 7.37551 5.47077 7.18216 5.3323 7.02822C5.18611 6.8657 4.9894 6.67057 4.75744 6.44L3.69999 7.50386ZM3.69838 7.50226L3.69838 7.50226L4.75904 6.4416L4.75904 6.4416L3.69838 7.50226ZM3.09286 6.78463C3.23209 7.05149 3.47586 7.28109 3.69998 7.50386L4.75743 6.44C4.61878 6.30218 4.53538 6.21894 4.4761 6.15353C4.41936 6.09092 4.41605 6.07795 4.42275 6.0908L3.09286 6.78463ZM3.18105 5.01541C2.83331 5.54563 2.79957 6.22246 3.09286 6.78462L4.42275 6.0908C4.38085 6.01049 4.38567 5.9138 4.43535 5.83805L3.18105 5.01541ZM3.85668 4.36012C3.61152 4.5595 3.34613 4.76372 3.18105 5.01542L4.43535 5.83805C4.4274 5.85017 4.43199 5.83759 4.49467 5.78093C4.56016 5.72174 4.65143 5.64721 4.8031 5.52386L3.85668 4.36012ZM3.79956 4.41166L3.79956 4.41166L4.86022 5.47232L4.86022 5.47232L3.79956 4.41166ZM4.93924 3.47972L3.85668 4.36012L4.8031 5.52386L5.88566 4.64346L4.93924 3.47972ZM6.50053 2.63419C6.16491 2.65417 5.8919 2.78213 5.65643 2.93295C5.43692 3.07353 5.19624 3.27071 4.93924 3.47972L5.88566 4.64346C6.16935 4.41275 6.3342 4.28014 6.46544 4.19608C6.52471 4.15811 6.55889 4.14236 6.57603 4.13581C6.58396 4.13278 6.5879 4.13187 6.58871 4.13169C6.58935 4.13155 6.58934 4.13156 6.58965 4.13154L6.50053 2.63419ZM6.53244 2.63261L6.50924 2.63373L6.58094 4.13201L6.60415 4.1309L6.53244 2.63261ZM8.17606 3.3248C7.90027 3.14129 7.64186 2.968 7.40993 2.84902C7.16113 2.72138 6.87715 2.62008 6.54115 2.63225L6.59545 4.13127C6.59576 4.13125 6.59574 4.13124 6.5964 4.13132C6.59722 4.13142 6.60122 4.13196 6.60941 4.13421C6.6271 4.13909 6.66262 4.15151 6.72525 4.18364C6.86392 4.25478 7.04068 4.37104 7.34511 4.57361L8.17606 3.3248ZM8.6434 3.63576L8.17606 3.3248L7.34511 4.57361L7.81245 4.88458L8.6434 3.63576ZM9.65348 4.24726C9.69522 4.24478 9.66701 4.26556 9.47489 4.16291C9.28339 4.0606 9.03488 3.89625 8.6434 3.63576L7.81245 4.88457C8.17808 5.12786 8.49739 5.34133 8.76804 5.48593C9.03808 5.6302 9.36635 5.76698 9.7425 5.74462L9.65348 4.24726ZM9.81832 4.17153C9.77479 4.21652 9.71597 4.24354 9.65348 4.24726L9.7425 5.74462C10.1799 5.71861 10.5917 5.52944 10.8964 5.21449L9.81832 4.17153ZM10.0124 3.00683C9.95497 3.47353 9.91778 3.76914 9.87066 3.98109C9.82338 4.19371 9.78924 4.20158 9.81832 4.17153L10.8964 5.21449C11.1584 4.94367 11.2685 4.60551 11.3349 4.30665C11.4015 4.0071 11.4476 3.62578 11.5011 3.18989L10.0124 3.00683ZM10.3563 1.70019C10.219 1.90878 10.1533 2.12642 10.1113 2.32944C10.0713 2.52254 10.0432 2.75564 10.0124 3.00683L11.5011 3.18989C11.535 2.91435 11.5555 2.7524 11.5802 2.63325C11.6028 2.52401 11.6176 2.51219 11.6091 2.52522L10.3563 1.70019ZM11.0409 1.09465C10.7631 1.2323 10.5269 1.44127 10.3563 1.7002L11.6091 2.52522C11.6334 2.48823 11.6672 2.45837 11.7069 2.43871L11.0409 1.09465ZM12.3797 0.91272C12.1267 0.91272 11.8919 0.912138 11.6953 0.928211C11.4887 0.945109 11.2647 0.983768 11.0409 1.09465L11.7069 2.43871C11.6929 2.44563 11.7064 2.43231 11.8176 2.42322C11.9389 2.4133 12.1021 2.41272 12.3797 2.41272V0.91272ZM14.2867 0.91272H12.3797V2.41272H14.2867V0.91272ZM15.6258 1.09473C15.402 0.9838 15.1779 0.945124 14.9713 0.928217C14.7747 0.912137 14.5398 0.91272 14.2867 0.91272V2.41272C14.5644 2.41272 14.7277 2.4133 14.849 2.42322C14.9602 2.43232 14.9737 2.44565 14.9597 2.43872L15.6258 1.09473ZM16.3101 1.70004C16.1397 1.44124 15.9035 1.23235 15.6258 1.09473L14.9597 2.43872C14.9994 2.45838 15.0331 2.48822 15.0575 2.52519L16.3101 1.70004ZM17.3834 11.4217C17.3834 13.026 15.7224 14.5753 13.3334 14.5753V16.0753C16.2462 16.0753 18.8834 14.1293 18.8834 11.4217H17.3834ZM13.3334 8.26811C15.7224 8.26811 17.3834 9.81748 17.3834 11.4217H18.8834C18.8834 8.71417 16.2462 6.76811 13.3334 6.76811V8.26811ZM9.28337 11.4217C9.28337 9.81748 10.9443 8.26811 13.3334 8.26811V6.76811C10.4205 6.76811 7.78337 8.71417 7.78337 11.4217H9.28337ZM13.3334 14.5753C10.9443 14.5753 9.28337 13.026 9.28337 11.4217H7.78337C7.78337 14.1293 10.4205 16.0753 13.3334 16.0753V14.5753Z" fill="#757575"/>
</svg>
