<svg width="23" height="24" viewBox="0 0 23 24" fill="none" xmlns="http://www.w3.org/2000/svg">
<path d="M21.0833 21.2829L19.1666 19.3489M11.0208 20.3159C12.2164 20.3159 13.4002 20.0782 14.5048 19.6166C15.6094 19.1549 16.613 18.4783 17.4584 17.6252C18.3038 16.7722 18.9744 15.7595 19.4319 14.6449C19.8895 13.5304 20.125 12.3358 20.125 11.1294C20.125 9.92305 19.8895 8.72848 19.4319 7.61393C18.9744 6.49938 18.3038 5.48668 17.4584 4.63364C16.613 3.7806 15.6094 3.10393 14.5048 2.64227C13.4002 2.18061 12.2164 1.94299 11.0208 1.94299C8.60622 1.94299 6.29054 2.91085 4.58317 4.63364C2.87581 6.35643 1.91663 8.69303 1.91663 11.1294C1.91663 13.5658 2.87581 15.9024 4.58317 17.6252C6.29054 19.348 8.60622 20.3159 11.0208 20.3159V20.3159Z" stroke="#181818" stroke-width="1.5" stroke-linecap="round" stroke-linejoin="round"/>
</svg>
