<svg width="30" height="25" viewBox="0 0 30 25" fill="none" xmlns="http://www.w3.org/2000/svg">
<rect width="29.3333" height="23.8554" transform="translate(0.666687 0.180664)" fill="white"/>
<path d="M22.2674 9.59676C22.4904 9.22712 22.3027 8.78047 21.8482 8.59915C21.3936 8.41783 20.8444 8.5705 20.6215 8.94014L18.8366 11.8993C18.2834 12.8165 16.6574 12.7717 16.1818 11.8261C15.1072 9.69001 11.4339 9.58882 10.1841 11.6609L8.39926 14.62C8.1763 14.9896 8.36402 15.4363 8.81854 15.6176C9.27307 15.7989 9.82227 15.6463 10.0452 15.2766L11.8301 12.3175C12.3833 11.4003 14.0093 11.4451 14.4849 12.3906C15.5595 14.5267 19.2328 14.6279 20.4826 12.5559L22.2674 9.59676Z" fill="#C7B7EB"/>
<path fill-rule="evenodd" clip-rule="evenodd" d="M20.7888 2.5401C19.3928 2.4171 17.6333 2.41711 15.3887 2.41711H15.278C13.0334 2.41711 11.2739 2.4171 9.87794 2.5401C8.45339 2.66561 7.29915 2.92635 6.31364 3.50865C5.71702 3.86117 5.19234 4.28787 4.75887 4.77307C4.04286 5.57454 3.72225 6.51323 3.56791 7.67174C3.41667 8.807 3.41668 10.2379 3.41669 12.0634V12.1534C3.41668 13.9788 3.41667 15.4098 3.56791 16.545C3.72225 17.7035 4.04286 18.6422 4.75887 19.4437C5.19234 19.9289 5.71702 20.3556 6.31364 20.7081C7.29915 21.2904 8.45339 21.5511 9.87794 21.6767C11.2739 21.7997 13.0333 21.7997 15.2779 21.7996H15.3887C17.6333 21.7997 19.3929 21.7997 20.7888 21.6767C22.2133 21.5511 23.3676 21.2904 24.3531 20.7081C24.9497 20.3556 25.4744 19.9289 25.9078 19.4437C26.6238 18.6422 26.9445 17.7035 27.0988 16.545C27.25 15.4098 27.25 13.9789 27.25 12.1535V12.0634C27.25 10.238 27.25 8.80698 27.0988 7.67174C26.9445 6.51323 26.6238 5.57454 25.9078 4.77307C25.4744 4.28787 24.9497 3.86117 24.3531 3.50865C23.3676 2.92635 22.2133 2.66561 20.7888 2.5401ZM7.39125 4.71487C8.01214 4.348 8.80685 4.13416 10.0754 4.02239C11.3611 3.9091 13.0214 3.90808 15.3334 3.90808C17.6453 3.90808 19.3056 3.9091 20.5913 4.02239C21.8599 4.13416 22.6546 4.348 23.2755 4.71487C23.7164 4.97543 24.1042 5.29081 24.4246 5.64944C24.8757 6.15438 25.1387 6.80068 25.2761 7.83234C25.4154 8.87795 25.4167 10.2282 25.4167 12.1084C25.4167 13.9886 25.4154 15.3388 25.2761 16.3844C25.1387 17.4161 24.8757 18.0624 24.4246 18.5673C24.1042 18.926 23.7164 19.2413 23.2755 19.5019C22.6546 19.8688 21.8599 20.0826 20.5913 20.1944C19.3056 20.3077 17.6453 20.3087 15.3334 20.3087C13.0214 20.3087 11.3611 20.3077 10.0754 20.1944C8.80685 20.0826 8.01214 19.8688 7.39125 19.5019C6.95027 19.2413 6.56246 18.926 6.24207 18.5673C5.79097 18.0624 5.52802 17.4161 5.39058 16.3844C5.25128 15.3388 5.25002 13.9886 5.25002 12.1084C5.25002 10.2282 5.25128 8.87795 5.39058 7.83234C5.52802 6.80068 5.79097 6.15438 6.24207 5.64944C6.56246 5.29081 6.95027 4.97543 7.39125 4.71487Z" fill="#C7B7EB"/>
</svg>
