<svg width="38" height="35" viewBox="0 0 38 35" fill="none" xmlns="http://www.w3.org/2000/svg">
<path d="M11.5601 20.4183C12.783 22.9802 15.8146 24.7917 18.9994 24.7917C22.1706 24.7917 25.1963 22.9755 26.4298 20.4247" stroke="#2329D6" stroke-linecap="round"/>
<path fill-rule="evenodd" clip-rule="evenodd" d="M14.25 14.5833C15.1244 14.5833 15.8333 13.9304 15.8333 13.125C15.8333 12.3195 15.1244 11.6666 14.25 11.6666C13.3755 11.6666 12.6667 12.3195 12.6667 13.125C12.6667 13.9304 13.3755 14.5833 14.25 14.5833Z" fill="#2329D6"/>
<path fill-rule="evenodd" clip-rule="evenodd" d="M23.75 14.5833C24.6244 14.5833 25.3333 13.9304 25.3333 13.125C25.3333 12.3195 24.6244 11.6666 23.75 11.6666C22.8755 11.6666 22.1667 12.3195 22.1667 13.125C22.1667 13.9304 22.8755 14.5833 23.75 14.5833Z" fill="#2329D6"/>
<path fill-rule="evenodd" clip-rule="evenodd" d="M19 32.0833C27.7445 32.0833 34.8334 25.5541 34.8334 17.5C34.8334 9.44581 27.7445 2.91663 19 2.91663C10.2555 2.91663 3.16669 9.44581 3.16669 17.5C3.16669 25.5541 10.2555 32.0833 19 32.0833Z" stroke="#2329D6"/>
</svg>
