<svg width="30" height="25" viewBox="0 0 30 25" fill="none" xmlns="http://www.w3.org/2000/svg">
<g clip-path="url(#clip0_99_15395)">
<rect width="29.3333" height="23.8554" transform="translate(0.666687 0.180725)" fill="white"/>
<path fill-rule="evenodd" clip-rule="evenodd" d="M15.2923 1.42322H17.8188C19.4953 1.42321 20.8098 1.42321 21.8662 1.4934C22.9419 1.56488 23.8306 1.71284 24.635 2.04616C25.9574 2.59411 27.0325 3.46845 27.7062 4.54386C28.1161 5.19803 28.298 5.92075 28.3859 6.79559C28.4722 7.65473 28.4722 8.72368 28.4722 10.0871V14.3234C28.4722 16.8056 25.9979 18.8178 22.9458 18.8178H22.2103C21.9066 18.8178 21.6989 19.0673 21.8117 19.2966C22.6509 21.0029 20.2346 22.5455 18.3957 21.4774L16.1266 20.1592C15.6185 20.306 15.0775 20.395 14.5156 20.4169C14.381 20.4222 14.2127 20.4222 13.9473 20.4222H13.9145L13.8444 20.4222C13.0645 20.4264 12.3036 20.627 11.6638 20.9986L11.6182 21.0254L9.13639 22.4867C7.50065 23.4499 5.46042 22.0399 6.16565 20.5865C6.18615 20.5443 6.17915 20.5043 6.15095 20.4699C6.1231 20.436 6.08755 20.4222 6.04634 20.4222H5.4743C2.97621 20.4222 0.972229 18.7556 0.972229 16.7211L0.972229 13.3753C0.972222 12.3055 0.972217 11.4577 1.03995 10.7743C1.1092 10.0756 1.25368 9.4839 1.58794 8.94312C2.12982 8.06643 2.99567 7.35178 4.06348 6.90328C4.28068 6.81205 4.50455 6.73787 4.73769 6.67734C4.83011 5.85359 5.01485 5.16639 5.40488 4.54386C6.07865 3.46845 7.15377 2.59411 8.47613 2.04616C9.28051 1.71284 10.1692 1.56488 11.2449 1.4934C12.3014 1.42321 13.6158 1.42321 15.2923 1.42322ZM6.61663 6.43078C7.38702 6.39303 8.29754 6.39306 9.39157 6.3931L11.4358 6.3931C12.7323 6.39309 13.762 6.39309 14.5925 6.44902C15.4428 6.50629 16.1652 6.62597 16.8254 6.90328C17.8932 7.35178 18.7591 8.06643 19.301 8.94312C19.6352 9.4839 19.7797 10.0756 19.849 10.7743C19.9167 11.4577 19.9167 12.3055 19.9167 13.3753V15.545C19.9167 15.7427 19.9167 15.8684 19.9104 15.9786C19.8328 17.3294 19.0595 18.5306 17.8748 19.3425L19.4613 20.2641C19.8102 20.4668 20.2687 20.1741 20.1095 19.8503C19.515 18.6416 20.6095 17.3268 22.2103 17.3268H22.9458C24.9854 17.3268 26.6389 15.9821 26.6389 14.3234V10.1205C26.6389 8.71651 26.6382 7.70835 26.5587 6.91701C26.4801 6.13437 26.329 5.62969 26.0727 5.22074C25.5747 4.42587 24.7801 3.77962 23.8027 3.37461C23.2998 3.16624 22.6793 3.04336 21.7169 2.97942C20.7438 2.91476 19.5042 2.91418 17.7778 2.91418H15.3333C13.6069 2.91418 12.3673 2.91476 11.3942 2.97942C10.4319 3.04336 9.8113 3.16624 9.30844 3.37461C8.33105 3.77962 7.5364 4.42587 7.03839 5.22074C6.83876 5.53938 6.70383 5.91418 6.61663 6.43078ZM9.49383 7.88406C7.65515 7.88406 6.56437 7.88702 5.7682 8.00421C5.40747 8.05731 5.13608 8.13084 4.90477 8.22799C4.18388 8.53078 3.59547 9.01494 3.22597 9.61275C3.04217 9.9101 2.92762 10.286 2.86736 10.8941C2.80626 11.5106 2.80556 12.2983 2.80556 13.4076V16.7211C2.80556 17.9513 4.01206 18.9312 5.4743 18.9312H6.04634C7.45227 18.9312 8.37658 20.0919 7.87101 21.1338C7.84965 21.1778 7.85527 21.2014 7.86 21.2143C7.86687 21.2329 7.88422 21.2564 7.91467 21.2761C7.94516 21.2959 7.97334 21.3019 7.98925 21.3026C7.99706 21.303 8.01892 21.304 8.06123 21.2791L10.543 19.8178L10.5982 19.7854C11.5441 19.2359 12.6727 18.9374 13.8325 18.9313L13.9145 18.9312C14.2232 18.9312 14.3432 18.931 14.4277 18.9277C14.9377 18.9078 15.42 18.8063 15.8572 18.6389C17.1165 18.1568 18.0092 17.1254 18.079 15.909C18.0831 15.8382 18.0833 15.7501 18.0833 15.5225V13.4076C18.0833 12.2983 18.0826 11.5106 18.0215 10.8941C17.9613 10.286 17.8467 9.9101 17.6629 9.61275C17.2934 9.01494 16.705 8.53078 15.9841 8.22799C15.6276 8.07825 15.1761 7.9844 14.4412 7.9349C13.6952 7.88466 12.7414 7.88406 11.3951 7.88406H9.49383Z" fill="#757575"/>
<path d="M8.00001 14.0964C8.00001 14.6454 7.4528 15.0904 6.77778 15.0904C6.10277 15.0904 5.55556 14.6454 5.55556 14.0964C5.55556 13.5475 6.10277 13.1024 6.77778 13.1024C7.4528 13.1024 8.00001 13.5475 8.00001 14.0964Z" fill="#757575"/>
<path d="M11.6667 14.0964C11.6667 14.6454 11.1195 15.0904 10.4445 15.0904C9.76944 15.0904 9.22223 14.6454 9.22223 14.0964C9.22223 13.5475 9.76944 13.1024 10.4445 13.1024C11.1195 13.1024 11.6667 13.5475 11.6667 14.0964Z" fill="#757575"/>
<path d="M15.3333 14.0964C15.3333 14.6454 14.7861 15.0904 14.1111 15.0904C13.4361 15.0904 12.8889 14.6454 12.8889 14.0964C12.8889 13.5475 13.4361 13.1024 14.1111 13.1024C14.7861 13.1024 15.3333 13.5475 15.3333 14.0964Z" fill="#757575"/>
</g>
<defs>
<clipPath id="clip0_99_15395">
<rect width="29.3333" height="23.8554" fill="white" transform="translate(0.666687 0.180725)"/>
</clipPath>
</defs>
</svg>
