<svg width="30" height="24" viewBox="0 0 30 24" fill="none" xmlns="http://www.w3.org/2000/svg">
<rect width="29.3333" height="23.8554" transform="translate(0.666687 0.0361328)" fill="white"/>
<path d="M22.2674 9.45223C22.4904 9.08258 22.3027 8.63594 21.8482 8.45462C21.3936 8.2733 20.8444 8.42597 20.6215 8.79561L18.8366 11.7547C18.2834 12.6719 16.6574 12.6271 16.1818 11.6816C15.1072 9.54548 11.4339 9.44429 10.1841 11.5164L8.39926 14.4755C8.1763 14.8451 8.36402 15.2918 8.81854 15.4731C9.27307 15.6544 9.82227 15.5017 10.0452 15.1321L11.8301 12.173C12.3833 11.2558 14.0093 11.3006 14.4849 12.2461C15.5595 14.3822 19.2328 14.4834 20.4826 12.4113L22.2674 9.45223Z" fill="#C7B7EB"/>
<path fill-rule="evenodd" clip-rule="evenodd" d="M20.7888 2.39557C19.3928 2.27257 17.6333 2.27258 15.3887 2.27258H15.278C13.0334 2.27258 11.2739 2.27257 9.87794 2.39557C8.45339 2.52108 7.29915 2.78182 6.31364 3.36412C5.71702 3.71664 5.19234 4.14334 4.75887 4.62854C4.04286 5.43001 3.72225 6.3687 3.56791 7.52721C3.41667 8.66247 3.41668 10.0934 3.41669 11.9189V12.0088C3.41668 13.8343 3.41667 15.2652 3.56791 16.4005C3.72225 17.559 4.04286 18.4977 4.75887 19.2992C5.19234 19.7844 5.71702 20.2111 6.31364 20.5636C7.29915 21.1459 8.45339 21.4066 9.87794 21.5321C11.2739 21.6551 13.0333 21.6551 15.2779 21.6551H15.3887C17.6333 21.6551 19.3929 21.6551 20.7888 21.5321C22.2133 21.4066 23.3676 21.1459 24.3531 20.5636C24.9497 20.2111 25.4744 19.7844 25.9078 19.2992C26.6238 18.4977 26.9445 17.559 27.0988 16.4005C27.25 15.2652 27.25 13.8343 27.25 12.0089V11.9188C27.25 10.0934 27.25 8.66245 27.0988 7.52721C26.9445 6.3687 26.6238 5.43001 25.9078 4.62854C25.4744 4.14334 24.9497 3.71664 24.3531 3.36412C23.3676 2.78182 22.2133 2.52108 20.7888 2.39557ZM7.39125 4.57034C8.01214 4.20347 8.80685 3.98963 10.0754 3.87786C11.3611 3.76457 13.0214 3.76355 15.3334 3.76355C17.6453 3.76355 19.3056 3.76457 20.5913 3.87786C21.8599 3.98963 22.6546 4.20347 23.2755 4.57034C23.7164 4.8309 24.1042 5.14628 24.4246 5.50491C24.8757 6.00985 25.1387 6.65615 25.2761 7.68781C25.4154 8.73342 25.4167 10.0837 25.4167 11.9638C25.4167 13.844 25.4154 15.1943 25.2761 16.2399C25.1387 17.2715 24.8757 17.9178 24.4246 18.4228C24.1042 18.7814 23.7164 19.0968 23.2755 19.3574C22.6546 19.7242 21.8599 19.9381 20.5913 20.0498C19.3056 20.1631 17.6453 20.1641 15.3334 20.1641C13.0214 20.1641 11.3611 20.1631 10.0754 20.0498C8.80685 19.9381 8.01214 19.7242 7.39125 19.3574C6.95027 19.0968 6.56246 18.7814 6.24207 18.4228C5.79097 17.9178 5.52802 17.2715 5.39058 16.2399C5.25128 15.1943 5.25002 13.844 5.25002 11.9638C5.25002 10.0837 5.25128 8.73342 5.39058 7.68781C5.52802 6.65615 5.79097 6.00985 6.24207 5.50491C6.56246 5.14628 6.95027 4.83089 7.39125 4.57034Z" fill="#C7B7EB"/>
</svg>
