<svg width="30" height="25" viewBox="0 0 30 25" fill="none" xmlns="http://www.w3.org/2000/svg">
<g clip-path="url(#clip0_289_10131)">
<rect width="29.3333" height="23.8554" transform="translate(0.666626 0.771057)" fill="white"/>
<path fill-rule="evenodd" clip-rule="evenodd" d="M15.2923 2.01352H17.8187C19.4953 2.01351 20.8097 2.01351 21.8661 2.08371C22.9419 2.15518 23.8306 2.30314 24.6349 2.63646C25.9573 3.18441 27.0324 4.05875 27.7062 5.13416C28.116 5.78833 28.298 6.51106 28.3859 7.3859C28.4722 8.24503 28.4722 9.31399 28.4722 10.6774V14.9137C28.4722 17.3959 25.9979 19.4081 22.9457 19.4081H22.2102C21.9065 19.4081 21.6988 19.6576 21.8116 19.8869C22.6509 21.5932 20.2345 23.1358 18.3957 22.0677L16.1265 20.7495C15.6184 20.8963 15.0774 20.9853 14.5156 21.0072C14.3809 21.0125 14.2126 21.0125 13.9473 21.0125H13.9145L13.8443 21.0125C13.0644 21.0167 12.3035 21.2173 11.6638 21.5889L11.6181 21.6157L9.13633 23.077C7.50059 24.0402 5.46036 22.6302 6.16559 21.1768C6.18608 21.1346 6.17909 21.0946 6.15089 21.0602C6.12304 21.0263 6.08749 21.0125 6.04628 21.0125H5.47424C2.97615 21.0125 0.972168 19.3459 0.972168 17.3114L0.972168 13.9656C0.972161 12.8958 0.972156 12.048 1.03989 11.3646C1.10914 10.6659 1.25362 10.0742 1.58788 9.53342C2.12976 8.65673 2.99561 7.94208 4.06342 7.49358C4.28062 7.40235 4.50449 7.32817 4.73763 7.26764C4.83005 6.44389 5.01479 5.75669 5.40482 5.13416C6.07859 4.05875 7.15371 3.18441 8.47607 2.63646C9.28045 2.30314 10.1691 2.15518 11.2449 2.08371C12.3013 2.01351 13.6157 2.01351 15.2923 2.01352ZM6.61657 7.02108C7.38696 6.98333 8.29748 6.98336 9.39151 6.9834L11.4358 6.9834C12.7322 6.98339 13.762 6.98339 14.5925 7.03932C15.4427 7.09659 16.1651 7.21627 16.8254 7.49358C17.8932 7.94208 18.759 8.65673 19.3009 9.53342C19.6352 10.0742 19.7796 10.6659 19.8489 11.3646C19.9166 12.048 19.9166 12.8958 19.9166 13.9656V16.1353C19.9166 16.333 19.9166 16.4587 19.9103 16.5689C19.8327 17.9197 19.0594 19.1209 17.8748 19.9328L19.4613 20.8544C19.8102 21.0571 20.2686 20.7644 20.1094 20.4406C19.5149 19.2319 20.6095 17.9171 22.2102 17.9171H22.9457C24.9854 17.9171 26.6388 16.5724 26.6388 14.9137V10.7108C26.6388 9.30681 26.6381 8.29865 26.5586 7.50731C26.48 6.72467 26.3289 6.21999 26.0727 5.81104C25.5747 5.01617 24.78 4.36992 23.8026 3.96492C23.2998 3.75654 22.6792 3.63366 21.7168 3.56972C20.7438 3.50506 19.5041 3.50448 17.7777 3.50448H15.3333C13.6069 3.50448 12.3672 3.50506 11.3942 3.56972C10.4318 3.63366 9.81124 3.75654 9.30838 3.96492C8.33099 4.36992 7.53634 5.01617 7.03833 5.81104C6.8387 6.12968 6.70377 6.50448 6.61657 7.02108ZM9.49377 8.47436C7.65509 8.47436 6.56431 8.47732 5.76814 8.59451C5.40741 8.64761 5.13602 8.72114 4.90471 8.81829C4.18381 9.12108 3.59541 9.60524 3.2259 10.203C3.04211 10.5004 2.92756 10.8763 2.8673 11.4844C2.8062 12.1009 2.8055 12.8886 2.8055 13.9979V17.3114C2.8055 18.5416 4.012 19.5215 5.47424 19.5215H6.04628C7.45221 19.5215 8.37652 20.6822 7.87095 21.7241C7.84959 21.7681 7.85521 21.7917 7.85993 21.8046C7.86681 21.8232 7.88416 21.8467 7.91461 21.8664C7.94509 21.8862 7.97328 21.8922 7.98919 21.893C7.997 21.8933 8.01886 21.8943 8.06117 21.8694L10.543 20.4081L10.5982 20.3757C11.5441 19.8262 12.6726 19.5277 13.8324 19.5216L13.9145 19.5215C14.2232 19.5215 14.3432 19.5213 14.4277 19.518C14.9377 19.4981 15.4199 19.3966 15.8572 19.2292C17.1164 18.7471 18.0091 17.7157 18.079 16.4993C18.083 16.4285 18.0833 16.3404 18.0833 16.1128V13.9979C18.0833 12.8886 18.0826 12.1009 18.0215 11.4844C17.9612 10.8763 17.8467 10.5004 17.6629 10.203C17.2934 9.60524 16.705 9.12108 15.9841 8.81829C15.6276 8.66855 15.1761 8.5747 14.4412 8.5252C13.6952 8.47496 12.7413 8.47436 11.395 8.47436H9.49377Z" fill="#757575"/>
<path d="M7.99995 14.6867C7.99995 15.2357 7.45274 15.6807 6.77772 15.6807C6.10271 15.6807 5.5555 15.2357 5.5555 14.6867C5.5555 14.1378 6.10271 13.6927 6.77772 13.6927C7.45274 13.6927 7.99995 14.1378 7.99995 14.6867Z" fill="#757575"/>
<path d="M11.6666 14.6867C11.6666 15.2357 11.1194 15.6807 10.4444 15.6807C9.76938 15.6807 9.22217 15.2357 9.22217 14.6867C9.22217 14.1378 9.76938 13.6927 10.4444 13.6927C11.1194 13.6927 11.6666 14.1378 11.6666 14.6867Z" fill="#757575"/>
<path d="M15.3333 14.6867C15.3333 15.2357 14.7861 15.6807 14.1111 15.6807C13.436 15.6807 12.8888 15.2357 12.8888 14.6867C12.8888 14.1378 13.436 13.6927 14.1111 13.6927C14.7861 13.6927 15.3333 14.1378 15.3333 14.6867Z" fill="#757575"/>
</g>
<defs>
<clipPath id="clip0_289_10131">
<rect width="29.3333" height="23.8554" fill="white" transform="translate(0.666626 0.771057)"/>
</clipPath>
</defs>
</svg>
