<svg width="29" height="26" viewBox="0 0 29 26" fill="none" xmlns="http://www.w3.org/2000/svg">
<path d="M26.5834 23.8333L24.1667 21.6667M13.8959 22.75C15.4034 22.75 16.8961 22.4838 18.2888 21.9666C19.6815 21.4494 20.947 20.6913 22.0129 19.7356C23.0788 18.78 23.9244 17.6454 24.5013 16.3968C25.0782 15.1481 25.3751 13.8099 25.3751 12.4583C25.3751 11.1068 25.0782 9.76853 24.5013 8.51989C23.9244 7.27124 23.0788 6.1367 22.0129 5.18103C20.947 4.22536 19.6815 3.46728 18.2888 2.95008C16.8961 2.43287 15.4034 2.16667 13.8959 2.16667C10.8515 2.16667 7.93168 3.25097 5.77892 5.18103C3.62616 7.11109 2.41675 9.72882 2.41675 12.4583C2.41675 15.1879 3.62616 17.8056 5.77892 19.7356C7.93168 21.6657 10.8515 22.75 13.8959 22.75V22.75Z" stroke="#181818" stroke-width="1.5" stroke-linecap="round" stroke-linejoin="round"/>
</svg>
