<svg width="28" height="26" viewBox="0 0 28 26" fill="none" xmlns="http://www.w3.org/2000/svg">
<path d="M25.6666 23.8333L23.3333 21.6667M13.4166 22.75C14.8721 22.75 16.3133 22.4838 17.658 21.9666C19.0027 21.4494 20.2245 20.6913 21.2537 19.7356C22.2829 18.78 23.0993 17.6454 23.6562 16.3968C24.2132 15.1481 24.4999 13.8099 24.4999 12.4583C24.4999 11.1068 24.2132 9.76853 23.6562 8.51988C23.0993 7.27124 22.2829 6.1367 21.2537 5.18103C20.2245 4.22536 19.0027 3.46728 17.658 2.95007C16.3133 2.43287 14.8721 2.16667 13.4166 2.16667C10.4771 2.16667 7.65801 3.25097 5.57948 5.18103C3.50096 7.11109 2.33325 9.72881 2.33325 12.4583C2.33325 15.1879 3.50096 17.8056 5.57948 19.7356C7.65801 21.6657 10.4771 22.75 13.4166 22.75V22.75Z" stroke="#181818" stroke-width="1.5" stroke-linecap="round" stroke-linejoin="round"/>
</svg>
