<svg width="30" height="25" viewBox="0 0 30 25" fill="none" xmlns="http://www.w3.org/2000/svg">
<rect width="29.3333" height="23.8554" transform="translate(0.666626 0.457825)" fill="white"/>
<path d="M22.2674 9.87392C22.4903 9.50428 22.3026 9.05763 21.8481 8.87631C21.3936 8.69499 20.8444 8.84766 20.6214 9.2173L18.8366 12.1764C18.2833 13.0936 16.6573 13.0488 16.1817 12.1033C15.1072 9.96718 11.4339 9.86598 10.184 11.938L8.3992 14.8972C8.17624 15.2668 8.36396 15.7134 8.81848 15.8948C9.27301 16.0761 9.82221 15.9234 10.0452 15.5538L11.83 12.5947C12.3832 11.6775 14.0092 11.7223 14.4849 12.6678C15.5594 14.8039 19.2327 14.9051 20.4825 12.833L22.2674 9.87392Z" fill="#5534A5"/>
<path fill-rule="evenodd" clip-rule="evenodd" d="M20.7887 2.81726C19.3928 2.69426 17.6333 2.69427 15.3886 2.69428H15.278C13.0333 2.69427 11.2738 2.69426 9.87787 2.81726C8.45333 2.94278 7.29909 3.20351 6.31358 3.78581C5.71696 4.13833 5.19228 4.56503 4.75881 5.05023C4.0428 5.8517 3.72219 6.79039 3.56785 7.9489C3.41661 9.08416 3.41662 10.5151 3.41663 12.3406V12.4305C3.41662 14.256 3.41661 15.6869 3.56785 16.8222C3.72219 17.9807 4.0428 18.9194 4.75881 19.7208C5.19228 20.2061 5.71696 20.6327 6.31358 20.9853C7.29909 21.5676 8.45333 21.8283 9.87787 21.9538C11.2738 22.0768 13.0333 22.0768 15.2779 22.0768H15.3886C17.6332 22.0768 19.3928 22.0768 20.7887 21.9538C22.2133 21.8283 23.3675 21.5676 24.353 20.9853C24.9496 20.6327 25.4743 20.2061 25.9078 19.7208C26.6238 18.9194 26.9444 17.9807 27.0987 16.8222C27.25 15.6869 27.25 14.256 27.25 12.4306V12.3405C27.25 10.5151 27.25 9.08414 27.0987 7.9489C26.9444 6.79039 26.6238 5.8517 25.9078 5.05023C25.4743 4.56503 24.9496 4.13833 24.353 3.78581C23.3675 3.20351 22.2133 2.94278 20.7887 2.81726ZM7.39119 4.99203C8.01208 4.62516 8.80679 4.41132 10.0753 4.29955C11.3611 4.18626 13.0214 4.18524 15.3333 4.18524C17.6452 4.18524 19.3055 4.18626 20.5912 4.29955C21.8598 4.41132 22.6545 4.62516 23.2754 4.99203C23.7164 5.25259 24.1042 5.56797 24.4246 5.9266C24.8757 6.43154 25.1386 7.07784 25.2761 8.1095C25.4154 9.15511 25.4166 10.5054 25.4166 12.3855C25.4166 14.2657 25.4154 15.616 25.2761 16.6616C25.1386 17.6932 24.8757 18.3395 24.4246 18.8445C24.1042 19.2031 23.7164 19.5185 23.2754 19.7791C22.6545 20.1459 21.8598 20.3598 20.5912 20.4715C19.3055 20.5848 17.6452 20.5858 15.3333 20.5858C13.0214 20.5858 11.3611 20.5848 10.0753 20.4715C8.80679 20.3598 8.01208 20.1459 7.39119 19.7791C6.95021 19.5185 6.5624 19.2031 6.24201 18.8445C5.7909 18.3395 5.52796 17.6932 5.39052 16.6616C5.25122 15.616 5.24996 14.2657 5.24996 12.3855C5.24996 10.5054 5.25122 9.15511 5.39052 8.1095C5.52796 7.07784 5.7909 6.43154 6.24201 5.9266C6.5624 5.56797 6.95021 5.25259 7.39119 4.99203Z" fill="#5534A5"/>
</svg>
