<svg width="26" height="22" viewBox="0 0 26 22" fill="none" xmlns="http://www.w3.org/2000/svg">
<path d="M15.5763 2.43923L16.3207 2.34803V2.34803L15.5763 2.43923ZM15.349 1.44827L15.9745 1.03447L15.9745 1.03447L15.349 1.44827ZM15.9787 4.04465L15.4416 4.56805L15.4416 4.56805L15.9787 4.04465ZM16.6333 4.34488L16.5871 5.09346H16.5871L16.6333 4.34488ZM18.1126 3.60253L18.5291 4.22623V4.22623L18.1126 3.60253ZM18.5715 3.29603L18.155 2.67233V2.67234L18.5715 3.29603ZM19.7625 2.72646L19.737 3.47602H19.737L19.7625 2.72646ZM19.7901 2.72778L19.7439 3.47635L19.7901 2.72778ZM20.9212 3.40862L20.4469 3.98963L20.4469 3.98963L20.9212 3.40862ZM22.0036 4.29215L22.4779 3.71114L22.4779 3.71114L22.0036 4.29215ZM22.5315 4.78555L23.1614 4.3784V4.3784L22.5315 4.78555ZM22.5814 5.78504L23.2486 6.12751L23.2486 6.1275L22.5814 5.78504ZM22.1052 6.32851L21.5755 5.79755V5.79755L22.1052 6.32851ZM21.3039 7.25358L22.0054 7.51889V7.51889L21.3039 7.25358ZM21.7541 8.4818L21.3903 9.13765L21.7541 8.4818ZM22.9635 8.66977L22.9025 9.41728L22.9635 8.66977ZM23.5069 8.71412L23.4458 9.46164L23.5069 8.71412ZM24.5203 8.90369L24.1301 9.5442L24.1301 9.5442L24.5203 8.90369ZM24.8935 9.30865L25.5636 8.97185L25.5636 8.97185L24.8935 9.30865ZM24.8936 12.2813L25.5637 12.618L25.5637 12.618L24.8936 12.2813ZM24.5202 12.6864L24.13 12.0459L24.13 12.0459L24.5202 12.6864ZM23.507 12.8759L23.446 12.1284H23.446L23.507 12.8759ZM22.9637 12.9203L23.0247 13.6678H23.0247L22.9637 12.9203ZM21.7548 13.1081L21.3911 12.4522L21.7548 13.1081ZM21.3044 14.3366L20.603 14.602L20.603 14.602L21.3044 14.3366ZM22.1054 15.2613L22.6352 14.7304V14.7304L22.1054 15.2613ZM22.5815 15.8046L21.9143 16.1471L21.9143 16.1471L22.5815 15.8046ZM22.5317 16.8042L21.9019 16.397L21.9018 16.397L22.5317 16.8042ZM22.0039 17.2975L22.4782 17.8785L22.0039 17.2975ZM20.9214 18.1811L20.4472 17.6L20.9214 18.1811ZM19.7903 18.8619L19.744 18.1134L19.744 18.1134L19.7903 18.8619ZM19.7627 18.8632L19.7883 19.6128L19.7884 19.6128L19.7627 18.8632ZM18.5717 18.2936L18.1551 18.9173L18.5717 18.2936ZM18.113 17.9873L18.5295 17.3636L18.113 17.9873ZM16.6331 17.2448L16.5867 16.4962H16.5867L16.6331 17.2448ZM15.979 17.5448L15.4419 17.0213L15.4419 17.0213L15.979 17.5448ZM15.5763 19.1508L16.3208 19.242L15.5763 19.1508ZM15.3489 20.1421L15.9744 20.5561H15.9744L15.3489 20.1421ZM14.9614 20.4851L15.2962 21.1562L14.9614 20.4851ZM11.0386 20.4851L11.3734 19.814L11.3734 19.814L11.0386 20.4851ZM10.651 20.1421L11.2765 19.7282L11.2765 19.7282L10.651 20.1421ZM10.4236 19.1509L9.6792 19.2421V19.2421L10.4236 19.1509ZM10.0211 17.5451L9.48397 18.0686L9.48398 18.0686L10.0211 17.5451ZM9.36676 17.245L9.3204 17.9936H9.3204L9.36676 17.245ZM7.88711 17.9875L8.30364 18.6112H8.30364L7.88711 17.9875ZM7.42812 18.294L7.01158 17.6703H7.01158L7.42812 18.294ZM6.23687 18.8637L6.21117 19.6132L6.21124 19.6132L6.23687 18.8637ZM6.20953 18.8623L6.16338 19.6109L6.16344 19.6109L6.20953 18.8623ZM5.0782 18.1814L5.55246 17.6004H5.55246L5.0782 18.1814ZM3.99593 17.298L4.47019 16.717H4.47019L3.99593 17.298ZM3.46795 16.8045L4.09783 16.3974H4.09783L3.46795 16.8045ZM3.41811 15.8051L2.75086 15.4627L2.75086 15.4627L3.41811 15.8051ZM3.89439 15.2616L3.42587 14.6759L3.39378 14.7016L3.36468 14.7306L3.89439 15.2616ZM3.8944 15.2616L4.36292 15.8472L4.39501 15.8216L4.4241 15.7925L3.8944 15.2616ZM4.69576 14.3364L5.39728 14.6017L5.39728 14.6017L4.69576 14.3364ZM4.24552 13.1083L3.88168 13.7641L3.88168 13.7641L4.24552 13.1083ZM3.03605 12.9202L2.97503 13.6678H2.97503L3.03605 12.9202ZM2.49303 12.8759L2.55405 12.1284H2.55405L2.49303 12.8759ZM1.47982 12.6864L1.08969 13.327H1.08969L1.47982 12.6864ZM1.10645 12.2813L1.77661 11.9446H1.77661L1.10645 12.2813ZM1.10651 9.30862L0.436389 8.97181L0.436389 8.97181L1.10651 9.30862ZM1.47972 8.90371L1.08951 8.26321L1.08951 8.26321L1.47972 8.90371ZM2.49318 8.71412L2.5542 9.46163H2.5542L2.49318 8.71412ZM3.03625 8.66979L3.09727 9.4173L3.11638 9.41574L3.13538 9.41321L3.03625 8.66979ZM3.03626 8.66979L2.97525 7.92228L2.95614 7.92383L2.93714 7.92637L3.03626 8.66979ZM4.24615 8.48169L3.88221 7.82591L3.88221 7.82591L4.24615 8.48169ZM4.69631 7.25376L3.99475 7.51893L3.99475 7.51893L4.69631 7.25376ZM3.89468 6.32823L4.42439 5.79727L4.42439 5.79727L3.89468 6.32823ZM3.41825 5.78449L4.08554 5.44212L4.08554 5.44212L3.41825 5.78449ZM3.46807 4.78526L4.098 5.19231L4.098 5.19231L3.46807 4.78526ZM3.99623 4.29161L4.47049 4.87263L4.4998 4.8487L4.52656 4.82194L3.99623 4.29161ZM3.99623 4.29161L3.52197 3.7106L3.49266 3.73453L3.4659 3.76128L3.99623 4.29161ZM5.07842 3.40827L4.60416 2.82725L4.60416 2.82725L5.07842 3.40827ZM6.20968 2.72736L6.25585 3.47593L6.25585 3.47593L6.20968 2.72736ZM6.23709 2.72604L6.2627 3.4756H6.2627L6.23709 2.72604ZM7.42827 3.29567L7.84481 2.67198L7.42827 3.29567ZM7.88753 3.60239L8.30406 2.97869V2.97869L7.88753 3.60239ZM9.36658 4.34466L9.41274 5.09324H9.41274L9.36658 4.34466ZM10.0213 4.04435L10.5585 4.5677L10.0213 4.04435ZM10.4237 2.43915L11.1681 2.53035L11.1737 2.48492V2.43915H10.4237ZM10.4237 2.43914L9.67923 2.34794L9.67367 2.39337V2.43914H10.4237ZM10.6509 1.44832L11.2764 1.86208L11.2764 1.86208L10.6509 1.44832ZM11.0388 1.10505L10.7042 0.433832V0.433832L11.0388 1.10505ZM14.9612 1.10508L14.6266 1.77627L14.6266 1.77627L14.9612 1.10508ZM16.3207 2.34803C16.2898 2.09542 16.2617 1.86101 16.2215 1.66687C16.1793 1.46273 16.1131 1.24393 15.9745 1.03447L14.7235 1.86207C14.7149 1.849 14.7299 1.86083 14.7526 1.97065C14.7774 2.09045 14.7979 2.25333 14.8319 2.53043L16.3207 2.34803ZM16.5159 3.52125C16.5453 3.55143 16.5108 3.54374 16.4631 3.32952C16.4157 3.11604 16.3783 2.81816 16.3207 2.34803L14.8319 2.53043C14.8857 2.96956 14.9319 3.35362 14.9989 3.65515C15.0658 3.95594 15.1768 4.29633 15.4416 4.56805L16.5159 3.52125ZM16.6795 3.59631C16.6176 3.59248 16.5592 3.56573 16.5159 3.52125L15.4416 4.56805C15.7449 4.87937 16.1532 5.06666 16.5871 5.09346L16.6795 3.59631ZM17.696 2.97884C17.3022 3.24189 17.052 3.40792 16.8593 3.51121C16.6658 3.61486 16.6375 3.59371 16.6795 3.59631L16.5871 5.09346C16.9657 5.11684 17.2961 4.9789 17.5677 4.83337C17.84 4.68748 18.1612 4.47194 18.5291 4.22623L17.696 2.97884ZM18.155 2.67234L17.696 2.97884L18.5291 4.22623L18.9881 3.91973L18.155 2.67234ZM19.7881 1.97689C19.4522 1.96545 19.1685 2.0673 18.9201 2.19532C18.6885 2.31468 18.4304 2.48837 18.155 2.67233L18.9881 3.91973C19.2921 3.71667 19.4687 3.60009 19.6073 3.52868C19.6698 3.49642 19.7054 3.48392 19.7231 3.479C19.7313 3.47672 19.7353 3.47618 19.7361 3.47608C19.7367 3.47599 19.7367 3.47601 19.737 3.47602L19.7881 1.97689ZM19.8364 1.97921C19.8203 1.97821 19.8042 1.97744 19.7881 1.97689L19.737 3.47602C19.7393 3.4761 19.7416 3.47621 19.7439 3.47635L19.8364 1.97921ZM21.3955 2.8276C21.1388 2.61814 20.8986 2.42058 20.6794 2.27961C20.4444 2.12843 20.1718 1.99992 19.8364 1.97921L19.7439 3.47635C19.7442 3.47637 19.7441 3.47635 19.7448 3.47649C19.7456 3.47667 19.7495 3.47759 19.7574 3.48064C19.7746 3.48723 19.8087 3.50308 19.868 3.54117C19.9991 3.6255 20.1637 3.75844 20.4469 3.98963L21.3955 2.8276ZM22.4779 3.71114L21.3955 2.8276L20.4469 3.98963L21.5294 4.87317L22.4779 3.71114ZM23.1614 4.3784C22.9954 4.1216 22.7263 3.91388 22.4779 3.71114L21.5294 4.87317C21.683 4.99861 21.7755 5.07438 21.8417 5.1346C21.9051 5.19218 21.9096 5.20499 21.9017 5.1927L23.1614 4.3784ZM23.2486 6.1275C23.5344 5.57081 23.5011 4.90392 23.1614 4.3784L21.9017 5.1927C21.9502 5.26777 21.955 5.36304 21.9141 5.44257L23.2486 6.1275ZM22.6349 6.85946C22.8618 6.63301 23.109 6.39955 23.2486 6.12751L21.9141 5.44257C21.9208 5.42955 21.9176 5.44275 21.8603 5.50635C21.8003 5.57285 21.7159 5.65744 21.5755 5.79755L22.6349 6.85946ZM22.0054 7.51889C21.9916 7.55523 21.9905 7.53084 22.1109 7.39616C22.2237 7.27012 22.3867 7.10706 22.6349 6.85946L21.5755 5.79755C21.3403 6.03213 21.1409 6.2307 20.9929 6.39621C20.8526 6.55306 20.6924 6.75013 20.6024 6.98828L22.0054 7.51889ZM22.1179 7.82594C22.0094 7.76573 21.9615 7.63499 22.0054 7.51889L20.6024 6.98828C20.295 7.801 20.6305 8.71616 21.3903 9.13765L22.1179 7.82594ZM23.0245 7.92226C22.6751 7.89373 22.4453 7.87468 22.2778 7.85137C22.0988 7.82645 22.084 7.8071 22.1179 7.82594L21.3903 9.13765C21.613 9.26115 21.8625 9.30802 22.071 9.33704C22.2909 9.36766 22.5714 9.39026 22.9025 9.41728L23.0245 7.92226ZM23.5679 7.96661L23.0245 7.92226L22.9025 9.41728L23.4458 9.46164L23.5679 7.96661ZM24.9105 8.26319C24.6938 8.13121 24.4699 8.07339 24.2623 8.03918C24.0644 8.00655 23.8258 7.98767 23.5679 7.96661L23.4458 9.46164C23.7285 9.4847 23.8953 9.49891 24.0183 9.5192C24.1317 9.53789 24.1442 9.5528 24.1301 9.5442L24.9105 8.26319ZM25.5636 8.97185C25.4165 8.67915 25.1902 8.43362 24.9105 8.26319L24.1301 9.5442C24.17 9.56855 24.2024 9.60362 24.2234 9.64544L25.5636 8.97185ZM25.75 10.3341C25.75 10.0753 25.7506 9.83595 25.7342 9.63606C25.717 9.42643 25.6776 9.19852 25.5636 8.97185L24.2234 9.64544C24.216 9.63067 24.2298 9.64431 24.2392 9.75884C24.2494 9.88313 24.25 10.0506 24.25 10.3341H25.75ZM25.75 11.2561V10.3341H24.25V11.2561H25.75ZM25.5637 12.618C25.6776 12.3914 25.717 12.1635 25.7342 11.954C25.7506 11.7541 25.75 11.5148 25.75 11.2561H24.25C24.25 11.5396 24.2494 11.707 24.2392 11.8312C24.2298 11.9457 24.216 11.9594 24.2234 11.9446L25.5637 12.618ZM24.9103 13.327C25.1902 13.1565 25.4166 12.9109 25.5637 12.618L24.2234 11.9446C24.2024 11.9864 24.17 12.0215 24.13 12.0459L24.9103 13.327ZM23.568 13.6234C23.8259 13.6024 24.0645 13.5835 24.2623 13.5509C24.4698 13.5167 24.6937 13.4589 24.9103 13.327L24.13 12.0459C24.1442 12.0373 24.1317 12.0522 24.0183 12.0709C23.8953 12.0911 23.7285 12.1053 23.446 12.1284L23.568 13.6234ZM23.0247 13.6678L23.568 13.6234L23.446 12.1284L22.9027 12.1728L23.0247 13.6678ZM22.1185 13.7641C22.0845 13.7829 22.0994 13.7635 22.2783 13.7386C22.4457 13.7153 22.6754 13.6963 23.0247 13.6678L22.9027 12.1728C22.5718 12.1998 22.2913 12.2224 22.0715 12.253C21.8631 12.282 21.6136 12.3288 21.3911 12.4522L22.1185 13.7641ZM22.0059 14.0712C21.9619 13.955 22.0099 13.8243 22.1185 13.7641L21.3911 12.4522C20.631 12.8737 20.2954 13.7891 20.603 14.602L22.0059 14.0712ZM22.6352 14.7304C22.3871 14.4828 22.2241 14.3198 22.1114 14.1939C21.991 14.0592 21.9921 14.0348 22.0059 14.0712L20.603 14.602C20.693 14.84 20.8531 15.037 20.9933 15.1938C21.1413 15.3593 21.3407 15.5578 21.5757 15.7923L22.6352 14.7304ZM23.2487 15.462C23.1091 15.1901 22.8621 14.9567 22.6352 14.7304L21.5757 15.7923C21.7161 15.9323 21.8005 16.0169 21.8605 16.0834C21.9178 16.1469 21.921 16.1601 21.9143 16.1471L23.2487 15.462ZM23.1615 17.2115C23.5013 16.6859 23.5346 16.0188 23.2487 15.462L21.9143 16.1471C21.9551 16.2267 21.9504 16.3219 21.9019 16.397L23.1615 17.2115ZM22.4782 17.8785C22.7265 17.6758 22.9955 17.4682 23.1615 17.2115L21.9018 16.397C21.9098 16.3847 21.9053 16.3975 21.8419 16.4551C21.7757 16.5153 21.6833 16.591 21.5297 16.7164L22.4782 17.8785ZM21.3957 18.7621L22.4782 17.8785L21.5297 16.7164L20.4472 17.6L21.3957 18.7621ZM19.8365 19.6105C20.1719 19.5898 20.4446 19.4613 20.6796 19.3101C20.8988 19.1691 21.139 18.9715 21.3957 18.7621L20.4472 17.6C20.1639 17.8313 19.9993 17.9642 19.8682 18.0485C19.8089 18.0866 19.7748 18.1025 19.7576 18.1091C19.7497 18.1121 19.7457 18.113 19.7449 18.1132C19.7443 18.1134 19.7443 18.1133 19.744 18.1134L19.8365 19.6105ZM19.7884 19.6128C19.8044 19.6123 19.8204 19.6115 19.8365 19.6105L19.744 18.1134C19.7418 18.1135 19.7395 18.1136 19.737 18.1137L19.7884 19.6128ZM18.1551 18.9173C18.4306 19.1013 18.6887 19.275 18.9203 19.3944C19.1687 19.5224 19.4524 19.6243 19.7883 19.6128L19.7372 18.1137C19.7369 18.1137 19.7369 18.1137 19.7363 18.1136C19.7355 18.1135 19.7315 18.113 19.7233 18.1107C19.7056 18.1058 19.67 18.0933 19.6074 18.061C19.4689 17.9896 19.2923 17.873 18.9882 17.67L18.1551 18.9173ZM17.6965 18.611L18.1551 18.9173L18.9882 17.67L18.5295 17.3636L17.6965 18.611ZM16.6796 17.9933C16.6375 17.9959 16.6658 17.9748 16.8593 18.0784C17.0522 18.1818 17.3024 18.3479 17.6965 18.611L18.5295 17.3636C18.1615 17.1178 17.8401 16.9022 17.5678 16.7563C17.296 16.6107 16.9655 16.4727 16.5867 16.4962L16.6796 17.9933ZM16.516 18.0683C16.5593 18.0239 16.6176 17.9972 16.6796 17.9933L16.5867 16.4962C16.1532 16.5231 15.7451 16.7102 15.4419 17.0213L16.516 18.0683ZM16.3208 19.242C16.3784 18.7717 16.4157 18.4737 16.4632 18.2601C16.5109 18.0458 16.5454 18.0382 16.516 18.0683L15.4419 17.0213C15.177 17.293 15.0659 17.6335 14.999 17.9344C14.9319 18.2361 14.8857 18.6203 14.8319 19.0596L16.3208 19.242ZM15.9744 20.5561C16.113 20.3465 16.1792 20.1277 16.2215 19.9234C16.2617 19.7292 16.2898 19.4947 16.3208 19.242L14.8319 19.0596C14.7979 19.3368 14.7774 19.4998 14.7526 19.6196C14.7299 19.7295 14.7148 19.7413 14.7235 19.7282L15.9744 20.5561ZM15.2962 21.1562C15.571 21.0191 15.8049 20.8122 15.9744 20.5561L14.7235 19.7282C14.6993 19.7648 14.6659 19.7944 14.6266 19.814L15.2962 21.1562ZM13.9498 21.3403C14.2044 21.3403 14.4405 21.3409 14.6382 21.3246C14.846 21.3075 15.0714 21.2684 15.2962 21.1562L14.6266 19.814C14.6406 19.807 14.6271 19.8204 14.5153 19.8296C14.3933 19.8397 14.229 19.8403 13.9498 19.8403V21.3403ZM12.0501 21.3403H13.9498V19.8403H12.0501V21.3403ZM10.7039 21.1563C10.9287 21.2684 11.1539 21.3075 11.3618 21.3246C11.5594 21.3409 11.7955 21.3403 12.0501 21.3403V19.8403C11.7709 19.8403 11.6067 19.8397 11.4847 19.8296C11.3729 19.8204 11.3593 19.807 11.3734 19.814L10.7039 21.1563ZM10.0255 20.556C10.195 20.8121 10.429 21.0192 10.7039 21.1563L11.3734 19.814C11.3341 19.7944 11.3007 19.7648 11.2765 19.7282L10.0255 20.556ZM9.6792 19.2421C9.71016 19.4948 9.73829 19.7292 9.77846 19.9234C9.82069 20.1276 9.88689 20.3465 10.0255 20.556L11.2765 19.7282C11.2851 19.7413 11.2701 19.7295 11.2474 19.6196C11.2226 19.4998 11.202 19.3369 11.1681 19.0597L9.6792 19.2421ZM9.48398 18.0686C9.45456 18.0384 9.48909 18.0461 9.53675 18.2603C9.58424 18.4739 9.62159 18.7718 9.6792 19.2421L11.1681 19.0597C11.1143 18.6204 11.0681 18.2363 11.001 17.9347C10.9341 17.6338 10.823 17.2933 10.5581 17.0216L9.48398 18.0686ZM9.3204 17.9936C9.38235 17.9974 9.44065 18.0241 9.48397 18.0686L10.5582 17.0216C10.2549 16.7105 9.84675 16.5233 9.41311 16.4964L9.3204 17.9936ZM8.30364 18.6112C8.69762 18.348 8.94782 18.182 9.14063 18.0787C9.33411 17.975 9.36246 17.9962 9.3204 17.9936L9.41312 16.4964C9.03438 16.473 8.70389 16.6109 8.43221 16.7565C8.15987 16.9024 7.83857 17.118 7.47057 17.3638L8.30364 18.6112ZM7.84465 18.9177L8.30364 18.6112L7.47057 17.3638L7.01158 17.6703L7.84465 18.9177ZM6.21124 19.6132C6.54716 19.6247 6.83089 19.5229 7.07936 19.3948C7.31103 19.2754 7.56913 19.1017 7.84465 18.9177L7.01158 17.6703C6.70748 17.8734 6.53085 17.99 6.39226 18.0614C6.32965 18.0937 6.29412 18.1062 6.27641 18.1111C6.26822 18.1134 6.26422 18.1139 6.2634 18.114C6.26275 18.1141 6.26279 18.1141 6.26251 18.1141L6.21124 19.6132ZM6.16344 19.6109C6.17935 19.6119 6.19526 19.6127 6.21117 19.6132L6.26258 18.1141C6.26025 18.114 6.25793 18.1139 6.25561 18.1138L6.16344 19.6109ZM4.60394 18.7624C4.86061 18.9719 5.10092 19.1695 5.32012 19.3105C5.5552 19.4617 5.8279 19.5902 6.16338 19.6109L6.25567 18.1138C6.2554 18.1138 6.25543 18.1138 6.25479 18.1136C6.25399 18.1134 6.25005 18.1125 6.24212 18.1095C6.22496 18.1029 6.19079 18.087 6.13155 18.0489C6.00042 17.9646 5.83576 17.8316 5.55246 17.6004L4.60394 18.7624ZM3.52167 17.879L4.60394 18.7624L5.55246 17.6004L4.47019 16.717L3.52167 17.879ZM2.83807 17.2117C3.00408 17.4685 3.27326 17.6762 3.52167 17.879L4.47019 16.717C4.3165 16.5915 4.22405 16.5157 4.15778 16.4555C4.09441 16.3979 4.08988 16.3851 4.09783 16.3974L2.83807 17.2117ZM2.75086 15.4627C2.46517 16.0193 2.49842 16.6862 2.83807 17.2117L4.09783 16.3974C4.04931 16.3223 4.04456 16.2271 4.08537 16.1476L2.75086 15.4627ZM3.36468 14.7306C3.13768 14.9571 2.89049 15.1906 2.75086 15.4627L4.08537 16.1476C4.07869 16.1606 4.08192 16.1474 4.13924 16.0838C4.19919 16.0173 4.28364 15.9327 4.4241 15.7925L3.36468 14.7306ZM3.42588 14.6759L3.42587 14.6759L4.36291 15.8472L4.36292 15.8472L3.42588 14.6759ZM3.99424 14.0711C4.00798 14.0348 4.00914 14.0592 3.88867 14.1939C3.77595 14.3199 3.6129 14.483 3.36469 14.7306L4.4241 15.7925C4.65926 15.5579 4.85873 15.3593 5.00676 15.1938C5.14706 15.0369 5.30722 14.8398 5.39728 14.6017L3.99424 14.0711ZM3.88168 13.7641C3.99022 13.8243 4.03814 13.955 3.99424 14.0711L5.39728 14.6017C5.70459 13.789 5.36912 12.8739 4.60936 12.4524L3.88168 13.7641ZM2.97503 13.6678C3.32448 13.6963 3.5543 13.7153 3.72179 13.7387C3.90078 13.7636 3.91566 13.7829 3.88168 13.7641L4.60936 12.4524C4.38669 12.3289 4.13709 12.282 3.92865 12.253C3.7087 12.2224 3.42813 12.1998 3.09707 12.1727L2.97503 13.6678ZM2.43202 13.6234L2.97503 13.6678L3.09707 12.1727L2.55405 12.1284L2.43202 13.6234ZM1.08969 13.327C1.3063 13.4589 1.5302 13.5167 1.7377 13.5509C1.93555 13.5835 2.1741 13.6024 2.43202 13.6234L2.55405 12.1284C2.27149 12.1053 2.10469 12.0911 1.98168 12.0709C1.86831 12.0522 1.85584 12.0373 1.86996 12.0459L1.08969 13.327ZM0.436295 12.6181C0.583423 12.9109 0.809812 13.1565 1.08969 13.327L1.86996 12.0459C1.82997 12.0215 1.79763 11.9864 1.77661 11.9446L0.436295 12.6181ZM0.25 11.2561C0.25 11.5148 0.249412 11.7541 0.265823 11.954C0.283033 12.1636 0.322421 12.3914 0.436295 12.6181L1.77661 11.9446C1.78403 11.9594 1.77019 11.9457 1.76079 11.8312C1.75059 11.707 1.75 11.5396 1.75 11.2561H0.25ZM0.25 10.3342V11.2561H1.75V10.3342H0.25ZM0.436389 8.97181C0.322458 9.19849 0.28305 9.42641 0.265831 9.63605C0.249412 9.83595 0.25 10.0753 0.25 10.3342H1.75C1.75 10.0506 1.75059 9.88313 1.7608 9.75884C1.7702 9.64431 1.78405 9.63066 1.77663 9.64543L0.436389 8.97181ZM1.08951 8.26321C0.809777 8.43363 0.583489 8.67914 0.436389 8.97181L1.77663 9.64543C1.79764 9.60362 1.82997 9.56855 1.86993 9.5442L1.08951 8.26321ZM2.43217 7.96661C2.17418 7.98766 1.93557 8.00655 1.73767 8.03918C1.53012 8.0734 1.30617 8.13122 1.08951 8.26321L1.86993 9.5442C1.85581 9.5528 1.86828 9.53789 1.98168 9.5192C2.10472 9.49891 2.27157 9.4847 2.5542 9.46163L2.43217 7.96661ZM2.97524 7.92228L2.43217 7.96661L2.5542 9.46163L3.09727 9.4173L2.97524 7.92228ZM2.93714 7.92637L2.93713 7.92637L3.13538 9.41321L3.13539 9.41321L2.93714 7.92637ZM3.88221 7.82591C3.9162 7.80705 3.90132 7.82642 3.72227 7.85135C3.55472 7.87468 3.32482 7.89374 2.97525 7.92228L3.09728 9.4173C3.42847 9.39027 3.70914 9.36765 3.92916 9.33701C4.13767 9.30798 4.38736 9.26108 4.61009 9.13747L3.88221 7.82591ZM3.99475 7.51893C4.03863 7.635 3.99071 7.76569 3.88221 7.82591L4.61009 9.13747C5.36961 8.71596 5.70498 7.80113 5.39787 6.9886L3.99475 7.51893ZM3.36497 6.85918C3.61328 7.1069 3.77638 7.27004 3.88915 7.39613C4.00966 7.53089 4.00849 7.55528 3.99475 7.51893L5.39787 6.9886C5.30781 6.75032 5.1476 6.55315 5.00726 6.39622C4.85918 6.23063 4.65963 6.03196 4.42439 5.79727L3.36497 6.85918ZM2.75095 6.12686C2.89061 6.39906 3.13789 6.63263 3.36497 6.85918L4.42439 5.79727C4.28388 5.6571 4.1994 5.57247 4.13943 5.50593C4.08209 5.4423 4.07886 5.42909 4.08554 5.44212L2.75095 6.12686ZM2.83815 4.3782C2.49863 4.90361 2.46539 5.57028 2.75095 6.12686L4.08554 5.44212C4.04475 5.36261 4.0495 5.26737 4.098 5.19231L2.83815 4.3782ZM3.52197 3.7106C3.27348 3.91344 3.00419 4.12125 2.83815 4.3782L4.098 5.19231C4.09005 5.20461 4.09458 5.19179 4.15797 5.13418C4.22426 5.07394 4.31674 4.99813 4.47049 4.87263L3.52197 3.7106ZM3.4659 3.76128L3.4659 3.76128L4.52656 4.82194L4.52656 4.82194L3.4659 3.76128ZM4.60416 2.82725L3.52197 3.7106L4.47049 4.87263L5.55268 3.98928L4.60416 2.82725ZM6.1635 1.97878C5.82804 1.99947 5.55536 2.12799 5.32029 2.27919C5.10111 2.42017 4.86081 2.61776 4.60416 2.82725L5.55268 3.98928C5.83596 3.75805 6.00061 3.6251 6.13174 3.54076C6.19097 3.50266 6.22514 3.48682 6.24229 3.48022C6.25023 3.47718 6.25417 3.47625 6.25497 3.47607C6.25561 3.47593 6.25557 3.47595 6.25585 3.47593L6.1635 1.97878ZM6.21148 1.97648C6.19549 1.97703 6.17949 1.97779 6.1635 1.97878L6.25585 3.47593C6.25813 3.47579 6.26041 3.47568 6.2627 3.4756L6.21148 1.97648ZM7.84481 2.67198C7.5693 2.48798 7.31121 2.31427 7.07956 2.19489C6.8311 2.06686 6.54739 1.965 6.21148 1.97648L6.2627 3.4756C6.26298 3.4756 6.26294 3.47558 6.2636 3.47566C6.26441 3.47576 6.26842 3.4763 6.27661 3.47858C6.29431 3.4835 6.32984 3.496 6.39245 3.52826C6.53103 3.59968 6.70764 3.71628 7.01173 3.91937L7.84481 2.67198ZM8.30406 2.97869L7.84481 2.67198L7.01173 3.91937L7.47099 4.22608L8.30406 2.97869ZM9.32041 3.59608C9.36246 3.59349 9.33412 3.61463 9.14071 3.51099C8.94797 3.40771 8.69788 3.2417 8.30406 2.97869L7.47099 4.22608C7.83884 4.47176 8.16001 4.68726 8.43224 4.83314C8.70381 4.97866 9.03415 5.11659 9.41274 5.09324L9.32041 3.59608ZM9.4841 3.52101C9.44076 3.5655 9.38241 3.59226 9.32041 3.59608L9.41274 5.09324C9.8467 5.06647 10.2552 4.87913 10.5585 4.5677L9.4841 3.52101ZM9.67923 2.34795C9.62164 2.81801 9.58431 3.11585 9.53684 3.3293C9.48921 3.54349 9.4547 3.55118 9.4841 3.52101L10.5585 4.5677C10.8232 4.296 10.9342 3.95566 11.0011 3.65491C11.0681 3.35341 11.1143 2.96941 11.1681 2.53035L9.67923 2.34795ZM9.67367 2.43914V2.43915H11.1737V2.43914H9.67367ZM10.0253 1.03457C9.88681 1.244 9.82065 1.46277 9.77844 1.66688C9.73829 1.861 9.71017 2.09537 9.67923 2.34794L11.1681 2.53034C11.202 2.25328 11.2226 2.09043 11.2474 1.97065C11.2701 1.86085 11.2851 1.84902 11.2764 1.86208L10.0253 1.03457ZM10.7042 0.433832C10.4291 0.570981 10.1949 0.778177 10.0253 1.03457L11.2764 1.86208C11.3007 1.82545 11.3341 1.79585 11.3734 1.77626L10.7042 0.433832ZM12.0499 0.25C11.7954 0.25 11.5594 0.249412 11.3618 0.265652C11.1541 0.282728 10.9289 0.321798 10.7042 0.433832L11.3734 1.77626C11.3594 1.78325 11.373 1.7698 11.4847 1.76061C11.6066 1.75059 11.7707 1.75 12.0499 1.75V0.25ZM13.95 0.25H12.0499V1.75H13.95V0.25ZM15.2959 0.433884C15.0711 0.321819 14.8459 0.282737 14.6382 0.265656C14.4406 0.249412 14.2045 0.25 13.95 0.25V1.75C14.2292 1.75 14.3933 1.75059 14.5153 1.76061C14.627 1.7698 14.6406 1.78326 14.6266 1.77627L15.2959 0.433884ZM15.9745 1.03447C15.805 0.778158 15.5709 0.571017 15.2959 0.433883L14.6266 1.77627C14.6659 1.79586 14.6993 1.82545 14.7235 1.86207L15.9745 1.03447ZM17.0502 10.7952C17.0502 12.4097 15.3865 13.9632 13.0002 13.9632V15.4632C15.9159 15.4632 18.5502 13.5084 18.5502 10.7952H17.0502ZM13.0002 7.62713C15.3865 7.62713 17.0502 9.18067 17.0502 10.7952H18.5502C18.5502 8.08193 15.9159 6.12713 13.0002 6.12713V7.62713ZM8.9502 10.7952C8.9502 9.18067 10.6139 7.62713 13.0002 7.62713V6.12713C10.0845 6.12713 7.4502 8.08193 7.4502 10.7952H8.9502ZM13.0002 13.9632C10.6139 13.9632 8.9502 12.4097 8.9502 10.7952H7.4502C7.4502 13.5084 10.0845 15.4632 13.0002 15.4632V13.9632Z" fill="#757575"/>
</svg>
