<svg width="38" height="36" viewBox="0 0 38 36" fill="none" xmlns="http://www.w3.org/2000/svg">
<path d="M11.5601 21.0017C12.783 23.6367 15.8146 25.5 18.9994 25.5C22.1706 25.5 25.1963 23.6319 26.4298 21.0083" stroke="#2329D6" stroke-linecap="round"/>
<path fill-rule="evenodd" clip-rule="evenodd" d="M14.25 15C15.1244 15 15.8333 14.3284 15.8333 13.5C15.8333 12.6716 15.1244 12 14.25 12C13.3755 12 12.6666 12.6716 12.6666 13.5C12.6666 14.3284 13.3755 15 14.25 15Z" fill="#2329D6"/>
<path fill-rule="evenodd" clip-rule="evenodd" d="M23.75 15C24.6244 15 25.3333 14.3284 25.3333 13.5C25.3333 12.6716 24.6244 12 23.75 12C22.8755 12 22.1666 12.6716 22.1666 13.5C22.1666 14.3284 22.8755 15 23.75 15Z" fill="#2329D6"/>
<path fill-rule="evenodd" clip-rule="evenodd" d="M19 33C27.7445 33 34.8333 26.2843 34.8333 18C34.8333 9.71573 27.7445 3 19 3C10.2555 3 3.16663 9.71573 3.16663 18C3.16663 26.2843 10.2555 33 19 33Z" stroke="#2329D6"/>
</svg>
