<svg width="30" height="25" viewBox="0 0 30 25" fill="none" xmlns="http://www.w3.org/2000/svg">
<rect width="29.3333" height="23.8554" transform="translate(0.666626 0.457764)" fill="white"/>
<path d="M22.2674 9.87386C22.4903 9.50422 22.3026 9.05757 21.8481 8.87625C21.3936 8.69493 20.8444 8.8476 20.6214 9.21724L18.8366 12.1764C18.2833 13.0936 16.6573 13.0488 16.1817 12.1032C15.1072 9.96711 11.4339 9.86592 10.184 11.938L8.3992 14.8971C8.17624 15.2667 8.36396 15.7134 8.81848 15.8947C9.27301 16.076 9.82221 15.9234 10.0452 15.5537L11.83 12.5946C12.3832 11.6774 14.0092 11.7222 14.4849 12.6677C15.5594 14.8038 19.2327 14.905 20.4825 12.833L22.2674 9.87386Z" fill="#5534A5"/>
<path fill-rule="evenodd" clip-rule="evenodd" d="M20.7887 2.8172C19.3928 2.6942 17.6333 2.69421 15.3886 2.69421H15.278C13.0333 2.69421 11.2738 2.6942 9.87787 2.8172C8.45333 2.94271 7.29909 3.20345 6.31358 3.78575C5.71696 4.13827 5.19228 4.56497 4.75881 5.05017C4.0428 5.85164 3.72219 6.79033 3.56785 7.94884C3.41661 9.0841 3.41662 10.515 3.41663 12.3405V12.4305C3.41662 14.2559 3.41661 15.6869 3.56785 16.8221C3.72219 17.9806 4.0428 18.9193 4.75881 19.7208C5.19228 20.206 5.71696 20.6327 6.31358 20.9852C7.29909 21.5675 8.45333 21.8282 9.87787 21.9538C11.2738 22.0768 13.0333 22.0768 15.2779 22.0767H15.3886C17.6332 22.0768 19.3928 22.0768 20.7887 21.9538C22.2133 21.8282 23.3675 21.5675 24.353 20.9852C24.9496 20.6327 25.4743 20.206 25.9078 19.7208C26.6238 18.9193 26.9444 17.9806 27.0987 16.8221C27.25 15.6869 27.25 14.256 27.25 12.4306V12.3405C27.25 10.5151 27.25 9.08408 27.0987 7.94884C26.9444 6.79033 26.6238 5.85164 25.9078 5.05017C25.4743 4.56497 24.9496 4.13827 24.353 3.78575C23.3675 3.20345 22.2133 2.94271 20.7887 2.8172ZM7.39119 4.99197C8.01208 4.6251 8.80679 4.41126 10.0753 4.29949C11.3611 4.1862 13.0214 4.18518 15.3333 4.18518C17.6452 4.18518 19.3055 4.1862 20.5912 4.29949C21.8598 4.41126 22.6545 4.6251 23.2754 4.99197C23.7164 5.25253 24.1042 5.56791 24.4246 5.92654C24.8757 6.43148 25.1386 7.07778 25.2761 8.10944C25.4154 9.15505 25.4166 10.5053 25.4166 12.3855C25.4166 14.2657 25.4154 15.6159 25.2761 16.6615C25.1386 17.6932 24.8757 18.3395 24.4246 18.8444C24.1042 19.2031 23.7164 19.5184 23.2754 19.779C22.6545 20.1459 21.8598 20.3597 20.5912 20.4715C19.3055 20.5848 17.6452 20.5858 15.3333 20.5858C13.0214 20.5858 11.3611 20.5848 10.0753 20.4715C8.80679 20.3597 8.01208 20.1459 7.39119 19.779C6.95021 19.5184 6.5624 19.2031 6.24201 18.8444C5.7909 18.3395 5.52796 17.6932 5.39052 16.6615C5.25122 15.6159 5.24996 14.2657 5.24996 12.3855C5.24996 10.5053 5.25122 9.15505 5.39052 8.10944C5.52796 7.07778 5.7909 6.43148 6.24201 5.92654C6.5624 5.56791 6.95021 5.25253 7.39119 4.99197Z" fill="#5534A5"/>
</svg>
