<svg width="30" height="25" viewBox="0 0 30 25" fill="none" xmlns="http://www.w3.org/2000/svg">
<path opacity="0.4" d="M20.3144 2.96387H24.4528C26.1667 2.96387 27.5555 4.10282 27.5555 5.50841V8.9024C27.5555 10.308 26.1667 11.4469 24.4528 11.4469H20.3144C18.6005 11.4469 17.2118 10.308 17.2118 8.9024V5.50841C17.2118 4.10282 18.6005 2.96387 20.3144 2.96387" fill="#757575"/>
<path fill-rule="evenodd" clip-rule="evenodd" d="M6.21373 2.96387H10.3521C12.066 2.96387 13.4548 4.10282 13.4548 5.50841V8.9024C13.4548 10.308 12.066 11.4469 10.3521 11.4469H6.21373C4.49984 11.4469 3.11108 10.308 3.11108 8.9024V5.50841C3.11108 4.10282 4.49984 2.96387 6.21373 2.96387ZM6.21373 14.3603H10.3521C12.066 14.3603 13.4548 15.4993 13.4548 16.9049V20.2988C13.4548 21.7035 12.066 22.8434 10.3521 22.8434H6.21373C4.49984 22.8434 3.11108 21.7035 3.11108 20.2988V16.9049C3.11108 15.4993 4.49984 14.3603 6.21373 14.3603ZM24.4529 14.3603H20.3145C18.6006 14.3603 17.2118 15.4993 17.2118 16.9049V20.2988C17.2118 21.7035 18.6006 22.8434 20.3145 22.8434H24.4529C26.1668 22.8434 27.5555 21.7035 27.5555 20.2988V16.9049C27.5555 15.4993 26.1668 14.3603 24.4529 14.3603Z" fill="#757575"/>
</svg>
