<svg width="28" height="26" viewBox="0 0 28 26" fill="none" xmlns="http://www.w3.org/2000/svg">
<path d="M25.6666 23.8334L23.3333 21.6667M13.4166 22.75C14.8721 22.75 16.3133 22.4838 17.658 21.9666C19.0027 21.4494 20.2245 20.6913 21.2537 19.7357C22.2829 18.78 23.0993 17.6454 23.6562 16.3968C24.2132 15.1482 24.4999 13.8099 24.4999 12.4584C24.4999 11.1068 24.2132 9.76855 23.6562 8.5199C23.0993 7.27126 22.2829 6.13672 21.2537 5.18105C20.2245 4.22538 19.0027 3.4673 17.658 2.95009C16.3133 2.43289 14.8721 2.16669 13.4166 2.16669C10.4771 2.16669 7.65801 3.25098 5.57948 5.18105C3.50096 7.11111 2.33325 9.72883 2.33325 12.4584C2.33325 15.1879 3.50096 17.8056 5.57948 19.7357C7.65801 21.6657 10.4771 22.75 13.4166 22.75V22.75Z" stroke="#181818" stroke-width="1.5" stroke-linecap="round" stroke-linejoin="round"/>
</svg>
