<svg width="28" height="25" viewBox="0 0 28 25" fill="none" xmlns="http://www.w3.org/2000/svg">
<path d="M25.6666 22.9167L23.3333 20.8334M13.4166 21.875C14.8721 21.875 16.3133 21.6191 17.658 21.1218C19.0027 20.6245 20.2245 19.8955 21.2537 18.9766C22.2829 18.0577 23.0993 16.9668 23.6562 15.7662C24.2132 14.5656 24.4999 13.2787 24.4999 11.9792C24.4999 10.6797 24.2132 9.39285 23.6562 8.19224C23.0993 6.99162 22.2829 5.90071 21.2537 4.9818C20.2245 4.06288 19.0027 3.33396 17.658 2.83665C16.3133 2.33934 14.8721 2.08337 13.4166 2.08337C10.4771 2.08337 7.65801 3.12597 5.57948 4.9818C3.50096 6.83762 2.33325 9.35467 2.33325 11.9792C2.33325 14.6037 3.50096 17.1208 5.57948 18.9766C7.65801 20.8324 10.4771 21.875 13.4166 21.875V21.875Z" stroke="#181818" stroke-width="1.5" stroke-linecap="round" stroke-linejoin="round"/>
</svg>
