<svg width="28" height="28" viewBox="0 0 28 28" fill="none" xmlns="http://www.w3.org/2000/svg">
<path d="M25.6666 25.6667L23.3333 23.3334M13.4166 24.5C14.8721 24.5 16.3133 24.2134 17.658 23.6564C19.0027 23.0994 20.2245 22.283 21.2537 21.2538C22.2829 20.2246 23.0993 19.0028 23.6562 17.6581C24.2132 16.3134 24.4999 14.8722 24.4999 13.4167C24.4999 11.9612 24.2132 10.52 23.6562 9.1753C23.0993 7.83061 22.2829 6.60879 21.2537 5.57961C20.2245 4.55042 19.0027 3.73403 17.658 3.17704C16.3133 2.62005 14.8721 2.33337 13.4166 2.33337C10.4771 2.33337 7.65801 3.50108 5.57948 5.57961C3.50096 7.65814 2.33325 10.4772 2.33325 13.4167C2.33325 16.3562 3.50096 19.1753 5.57948 21.2538C7.65801 23.3323 10.4771 24.5 13.4166 24.5V24.5Z" stroke="#181818" stroke-width="1.5" stroke-linecap="round" stroke-linejoin="round"/>
</svg>
