<svg width="29" height="28" viewBox="0 0 29 28" fill="none" xmlns="http://www.w3.org/2000/svg">
<path d="M26.5834 25.6666L24.1667 23.3333M13.8959 24.5C15.4034 24.5 16.8961 24.2133 18.2888 23.6563C19.6815 23.0993 20.947 22.2829 22.0129 21.2537C23.0788 20.2246 23.9244 19.0027 24.5013 17.6581C25.0782 16.3134 25.3751 14.8721 25.3751 13.4166C25.3751 11.9612 25.0782 10.5199 24.5013 9.17524C23.9244 7.83055 23.0788 6.60873 22.0129 5.57955C20.947 4.55036 19.6815 3.73397 18.2888 3.17698C16.8961 2.61999 15.4034 2.33331 13.8959 2.33331C10.8515 2.33331 7.93168 3.50102 5.77892 5.57955C3.62616 7.65807 2.41675 10.4772 2.41675 13.4166C2.41675 16.3561 3.62616 19.1752 5.77892 21.2537C7.93168 23.3323 10.8515 24.5 13.8959 24.5V24.5Z" stroke="#181818" stroke-width="1.5" stroke-linecap="round" stroke-linejoin="round"/>
</svg>
