<svg width="30" height="25" viewBox="0 0 30 25" fill="none" xmlns="http://www.w3.org/2000/svg">
<g clip-path="url(#clip0_77_20684)">
<rect width="29.3333" height="23.8554" transform="translate(0.666626 0.771057)" fill="white"/>
<path fill-rule="evenodd" clip-rule="evenodd" d="M15.2923 2.01355H17.8187C19.4953 2.01355 20.8097 2.01354 21.8661 2.08374C22.9419 2.15521 23.8306 2.30317 24.6349 2.63649C25.9573 3.18444 27.0324 4.05878 27.7062 5.13419C28.116 5.78836 28.298 6.51109 28.3859 7.38593C28.4722 8.24506 28.4722 9.31402 28.4722 10.6775V14.9137C28.4722 17.3959 25.9979 19.4081 22.9457 19.4081H22.2102C21.9065 19.4081 21.6988 19.6576 21.8116 19.8869C22.6509 21.5932 20.2345 23.1359 18.3957 22.0677L16.1265 20.7495C15.6184 20.8963 15.0774 20.9853 14.5156 21.0073C14.3809 21.0125 14.2126 21.0125 13.9473 21.0125H13.9145L13.8443 21.0126C13.0644 21.0167 12.3035 21.2173 11.6638 21.589L11.6181 21.6157L9.13633 23.0771C7.50059 24.0402 5.46036 22.6302 6.16559 21.1769C6.18608 21.1346 6.17909 21.0946 6.15089 21.0603C6.12304 21.0263 6.08749 21.0125 6.04628 21.0125H5.47424C2.97615 21.0125 0.972168 19.3459 0.972168 17.3114L0.972168 13.9656C0.972161 12.8958 0.972156 12.048 1.03989 11.3646C1.10914 10.666 1.25362 10.0742 1.58788 9.53345C2.12976 8.65676 2.99561 7.94211 4.06342 7.49361C4.28062 7.40238 4.50449 7.3282 4.73763 7.26767C4.83005 6.44392 5.01479 5.75672 5.40482 5.13419C6.07859 4.05878 7.15371 3.18444 8.47607 2.63649C9.28045 2.30317 10.1691 2.15521 11.2449 2.08374C12.3013 2.01354 13.6157 2.01355 15.2923 2.01355ZM6.61657 7.02111C7.38696 6.98336 8.29748 6.98339 9.39151 6.98343L11.4358 6.98343C12.7322 6.98342 13.762 6.98342 14.5925 7.03935C15.4427 7.09662 16.1651 7.2163 16.8254 7.49361C17.8932 7.94211 18.759 8.65676 19.3009 9.53345C19.6352 10.0742 19.7796 10.666 19.8489 11.3646C19.9166 12.048 19.9166 12.8958 19.9166 13.9656V16.1354C19.9166 16.333 19.9166 16.4587 19.9103 16.5689C19.8327 17.9197 19.0594 19.1209 17.8748 19.9329L19.4613 20.8544C19.8102 21.0571 20.2686 20.7644 20.1094 20.4407C19.5149 19.232 20.6095 17.9172 22.2102 17.9172H22.9457C24.9854 17.9172 26.6388 16.5725 26.6388 14.9137V10.7108C26.6388 9.30684 26.6381 8.29868 26.5586 7.50734C26.48 6.7247 26.3289 6.22003 26.0727 5.81107C25.5747 5.0162 24.78 4.36995 23.8026 3.96495C23.2998 3.75658 22.6792 3.63369 21.7168 3.56975C20.7438 3.50509 19.5041 3.50451 17.7777 3.50451H15.3333C13.6069 3.50451 12.3672 3.50509 11.3942 3.56975C10.4318 3.63369 9.81124 3.75658 9.30838 3.96495C8.33099 4.36995 7.53634 5.0162 7.03833 5.81108C6.8387 6.12971 6.70377 6.50451 6.61657 7.02111ZM9.49377 8.47439C7.65509 8.47439 6.56431 8.47735 5.76814 8.59455C5.40741 8.64764 5.13602 8.72117 4.90471 8.81832C4.18381 9.12111 3.59541 9.60527 3.2259 10.2031C3.04211 10.5004 2.92756 10.8764 2.8673 11.4844C2.8062 12.1009 2.8055 12.8886 2.8055 13.998V17.3114C2.8055 18.5416 4.012 19.5215 5.47424 19.5215H6.04628C7.45221 19.5215 8.37652 20.6822 7.87095 21.7242C7.84959 21.7682 7.85521 21.7917 7.85993 21.8046C7.86681 21.8233 7.88416 21.8468 7.91461 21.8665C7.94509 21.8862 7.97328 21.8923 7.98919 21.893C7.997 21.8933 8.01886 21.8943 8.06117 21.8694L10.543 20.4081L10.5982 20.3757C11.5441 19.8263 12.6726 19.5278 13.8324 19.5216L13.9145 19.5215C14.2232 19.5215 14.3432 19.5213 14.4277 19.518C14.9377 19.4981 15.4199 19.3967 15.8572 19.2293C17.1164 18.7472 18.0091 17.7158 18.079 16.4994C18.083 16.4285 18.0833 16.3404 18.0833 16.1129V13.998C18.0833 12.8886 18.0826 12.1009 18.0215 11.4844C17.9612 10.8764 17.8467 10.5004 17.6629 10.2031C17.2934 9.60527 16.705 9.12111 15.9841 8.81832C15.6276 8.66858 15.1761 8.57473 14.4412 8.52523C13.6952 8.47499 12.7413 8.47439 11.395 8.47439H9.49377Z" fill="#757575"/>
<path d="M7.99995 14.6867C7.99995 15.2357 7.45274 15.6807 6.77772 15.6807C6.10271 15.6807 5.5555 15.2357 5.5555 14.6867C5.5555 14.1378 6.10271 13.6928 6.77772 13.6928C7.45274 13.6928 7.99995 14.1378 7.99995 14.6867Z" fill="#757575"/>
<path d="M11.6666 14.6867C11.6666 15.2357 11.1194 15.6807 10.4444 15.6807C9.76938 15.6807 9.22217 15.2357 9.22217 14.6867C9.22217 14.1378 9.76938 13.6928 10.4444 13.6928C11.1194 13.6928 11.6666 14.1378 11.6666 14.6867Z" fill="#757575"/>
<path d="M15.3333 14.6867C15.3333 15.2357 14.7861 15.6807 14.1111 15.6807C13.436 15.6807 12.8888 15.2357 12.8888 14.6867C12.8888 14.1378 13.436 13.6928 14.1111 13.6928C14.7861 13.6928 15.3333 14.1378 15.3333 14.6867Z" fill="#757575"/>
</g>
<defs>
<clipPath id="clip0_77_20684">
<rect width="29.3333" height="23.8554" fill="white" transform="translate(0.666626 0.771057)"/>
</clipPath>
</defs>
</svg>
