<svg width="28" height="25" viewBox="0 0 28 25" fill="none" xmlns="http://www.w3.org/2000/svg">
<path d="M25.6666 22.9166L23.3333 20.8333M13.4166 21.875C14.8721 21.875 16.3133 21.619 17.658 21.1217C19.0027 20.6244 20.2245 19.8955 21.2537 18.9766C22.2829 18.0576 23.0993 16.9667 23.6562 15.7661C24.2132 14.5655 24.4999 13.2787 24.4999 11.9791C24.4999 10.6796 24.2132 9.39279 23.6562 8.19217C23.0993 6.99156 22.2829 5.90065 21.2537 4.98174C20.2245 4.06282 19.0027 3.3339 17.658 2.83659C16.3133 2.33928 14.8721 2.08331 13.4166 2.08331C10.4771 2.08331 7.65801 3.12591 5.57948 4.98174C3.50096 6.83756 2.33325 9.35461 2.33325 11.9791C2.33325 14.6037 3.50096 17.1207 5.57948 18.9766C7.65801 20.8324 10.4771 21.875 13.4166 21.875V21.875Z" stroke="#181818" stroke-width="1.5" stroke-linecap="round" stroke-linejoin="round"/>
</svg>
