<svg width="29" height="26" viewBox="0 0 29 26" fill="none" xmlns="http://www.w3.org/2000/svg">
<path d="M26.5834 23.8334L24.1667 21.6667M13.8959 22.75C15.4034 22.75 16.8961 22.4838 18.2888 21.9666C19.6815 21.4494 20.947 20.6913 22.0129 19.7357C23.0788 18.78 23.9244 17.6454 24.5013 16.3968C25.0782 15.1482 25.3751 13.8099 25.3751 12.4584C25.3751 11.1068 25.0782 9.76855 24.5013 8.5199C23.9244 7.27126 23.0788 6.13672 22.0129 5.18105C20.947 4.22538 19.6815 3.4673 18.2888 2.95009C16.8961 2.43289 15.4034 2.16669 13.8959 2.16669C10.8515 2.16669 7.93168 3.25098 5.77892 5.18105C3.62616 7.11111 2.41675 9.72883 2.41675 12.4584C2.41675 15.1879 3.62616 17.8056 5.77892 19.7357C7.93168 21.6657 10.8515 22.75 13.8959 22.75V22.75Z" stroke="#181818" stroke-width="1.5" stroke-linecap="round" stroke-linejoin="round"/>
</svg>
