<svg width="30" height="25" viewBox="0 0 30 25" fill="none" xmlns="http://www.w3.org/2000/svg">
<rect width="29.3333" height="23.8554" transform="translate(0.666626 0.602417)" fill="white"/>
<path d="M22.2674 10.0185C22.4903 9.64887 22.3026 9.20223 21.8481 9.02091C21.3936 8.83959 20.8444 8.99225 20.6214 9.36189L18.8366 12.321C18.2833 13.2382 16.6573 13.1934 16.1817 12.2479C15.1072 10.1118 11.4339 10.0106 10.184 12.0826L8.3992 15.0418C8.17624 15.4114 8.36396 15.858 8.81848 16.0394C9.27301 16.2207 9.82221 16.068 10.0452 15.6984L11.83 12.7393C12.3832 11.8221 14.0092 11.8669 14.4849 12.8124C15.5594 14.9485 19.2327 15.0497 20.4825 12.9776L22.2674 10.0185Z" fill="#C7B7EB"/>
<path fill-rule="evenodd" clip-rule="evenodd" d="M20.7887 2.96185C19.3928 2.83885 17.6333 2.83886 15.3886 2.83887H15.278C13.0333 2.83886 11.2738 2.83885 9.87787 2.96185C8.45333 3.08737 7.29909 3.34811 6.31358 3.9304C5.71696 4.28293 5.19228 4.70962 4.75881 5.19482C4.0428 5.99629 3.72219 6.93498 3.56785 8.0935C3.41661 9.22875 3.41662 10.6597 3.41663 12.4852V12.5751C3.41662 14.4006 3.41661 15.8315 3.56785 16.9668C3.72219 18.1253 4.0428 19.064 4.75881 19.8654C5.19228 20.3506 5.71696 20.7773 6.31358 21.1299C7.29909 21.7122 8.45333 21.9729 9.87787 22.0984C11.2738 22.2214 13.0333 22.2214 15.2779 22.2214H15.3886C17.6332 22.2214 19.3928 22.2214 20.7887 22.0984C22.2133 21.9729 23.3675 21.7122 24.353 21.1299C24.9496 20.7773 25.4743 20.3506 25.9078 19.8654C26.6238 19.064 26.9444 18.1253 27.0987 16.9668C27.25 15.8315 27.25 14.4006 27.25 12.5752V12.4851C27.25 10.6597 27.25 9.22873 27.0987 8.0935C26.9444 6.93498 26.6238 5.99629 25.9078 5.19482C25.4743 4.70962 24.9496 4.28293 24.353 3.9304C23.3675 3.34811 22.2133 3.08737 20.7887 2.96185ZM7.39119 5.13662C8.01208 4.76976 8.80679 4.55591 10.0753 4.44414C11.3611 4.33085 13.0214 4.32983 15.3333 4.32983C17.6452 4.32983 19.3055 4.33085 20.5912 4.44414C21.8598 4.55591 22.6545 4.76976 23.2754 5.13662C23.7164 5.39718 24.1042 5.71256 24.4246 6.07119C24.8757 6.57613 25.1386 7.22243 25.2761 8.25409C25.4154 9.2997 25.4166 10.65 25.4166 12.5301C25.4166 14.4103 25.4154 15.7606 25.2761 16.8062C25.1386 17.8378 24.8757 18.4841 24.4246 18.9891C24.1042 19.3477 23.7164 19.6631 23.2754 19.9236C22.6545 20.2905 21.8598 20.5044 20.5912 20.6161C19.3055 20.7294 17.6452 20.7304 15.3333 20.7304C13.0214 20.7304 11.3611 20.7294 10.0753 20.6161C8.80679 20.5044 8.01208 20.2905 7.39119 19.9236C6.95021 19.6631 6.5624 19.3477 6.24201 18.9891C5.7909 18.4841 5.52796 17.8378 5.39052 16.8062C5.25122 15.7606 5.24996 14.4103 5.24996 12.5301C5.24996 10.65 5.25122 9.2997 5.39052 8.25409C5.52796 7.22243 5.7909 6.57613 6.24201 6.07119C6.5624 5.71256 6.95021 5.39718 7.39119 5.13662Z" fill="#C7B7EB"/>
</svg>
