<svg width="29" height="27" viewBox="0 0 29 27" fill="none" xmlns="http://www.w3.org/2000/svg">
<path d="M26.5834 24.75L24.1667 22.5M13.8959 23.625C15.4034 23.625 16.8961 23.3486 18.2888 22.8115C19.6815 22.2744 20.947 21.4871 22.0129 20.4947C23.0788 19.5023 23.9244 18.3241 24.5013 17.0274C25.0782 15.7308 25.3751 14.341 25.3751 12.9375C25.3751 11.534 25.0782 10.1442 24.5013 8.84757C23.9244 7.5509 23.0788 6.37272 22.0129 5.3803C20.947 4.38787 19.6815 3.60063 18.2888 3.06354C16.8961 2.52644 15.4034 2.25 13.8959 2.25C10.8515 2.25 7.93168 3.376 5.77892 5.3803C3.62616 7.38459 2.41675 10.103 2.41675 12.9375C2.41675 15.772 3.62616 18.4904 5.77892 20.4947C7.93168 22.499 10.8515 23.625 13.8959 23.625V23.625Z" stroke="#181818" stroke-width="1.5" stroke-linecap="round" stroke-linejoin="round"/>
</svg>
