<svg width="29" height="28" viewBox="0 0 29 28" fill="none" xmlns="http://www.w3.org/2000/svg">
<path d="M26.5834 25.6667L24.1667 23.3334M13.8959 24.5C15.4034 24.5 16.8961 24.2134 18.2888 23.6564C19.6815 23.0994 20.947 22.283 22.0129 21.2538C23.0788 20.2246 23.9244 19.0028 24.5013 17.6581C25.0782 16.3134 25.3751 14.8722 25.3751 13.4167C25.3751 11.9612 25.0782 10.52 24.5013 9.1753C23.9244 7.83061 23.0788 6.60879 22.0129 5.57961C20.947 4.55042 19.6815 3.73403 18.2888 3.17704C16.8961 2.62005 15.4034 2.33337 13.8959 2.33337C10.8515 2.33337 7.93168 3.50108 5.77892 5.57961C3.62616 7.65814 2.41675 10.4772 2.41675 13.4167C2.41675 16.3562 3.62616 19.1753 5.77892 21.2538C7.93168 23.3323 10.8515 24.5 13.8959 24.5V24.5Z" stroke="#181818" stroke-width="1.5" stroke-linecap="round" stroke-linejoin="round"/>
</svg>
