<svg width="30" height="25" viewBox="0 0 30 25" fill="none" xmlns="http://www.w3.org/2000/svg">
<path opacity="0.4" d="M20.3141 2.54224H24.4525C26.1664 2.54224 27.5551 3.68119 27.5551 5.08678V8.48077C27.5551 9.88636 26.1664 11.0253 24.4525 11.0253H20.3141C18.6002 11.0253 17.2114 9.88636 17.2114 8.48077V5.08678C17.2114 3.68119 18.6002 2.54224 20.3141 2.54224" fill="#C7B7EB"/>
<path fill-rule="evenodd" clip-rule="evenodd" d="M6.21348 2.54224H10.3519C12.0658 2.54224 13.4545 3.68119 13.4545 5.08678V8.48077C13.4545 9.88636 12.0658 11.0253 10.3519 11.0253H6.21348C4.4996 11.0253 3.11084 9.88636 3.11084 8.48077V5.08678C3.11084 3.68119 4.4996 2.54224 6.21348 2.54224ZM6.21348 13.9387H10.3519C12.0658 13.9387 13.4545 15.0776 13.4545 16.4832V19.8772C13.4545 21.2819 12.0658 22.4218 10.3519 22.4218H6.21348C4.4996 22.4218 3.11084 21.2819 3.11084 19.8772V16.4832C3.11084 15.0776 4.4996 13.9387 6.21348 13.9387ZM24.4526 13.9387H20.3142C18.6004 13.9387 17.2116 15.0776 17.2116 16.4832V19.8772C17.2116 21.2819 18.6004 22.4218 20.3142 22.4218H24.4526C26.1665 22.4218 27.5553 21.2819 27.5553 19.8772V16.4832C27.5553 15.0776 26.1665 13.9387 24.4526 13.9387Z" fill="#C7B7EB"/>
</svg>
