<svg width="30" height="25" viewBox="0 0 30 25" fill="none" xmlns="http://www.w3.org/2000/svg">
<g clip-path="url(#clip0_56_1967)">
<rect width="29.3333" height="23.8554" transform="translate(0.666504 0.180664)" fill="white"/>
<path fill-rule="evenodd" clip-rule="evenodd" d="M15.2923 1.4231H17.8187C19.4953 1.42309 20.8097 1.42309 21.8661 1.49328C22.9419 1.56476 23.8306 1.71272 24.6349 2.04603C25.9573 2.59398 27.0324 3.46832 27.7062 4.54374C28.116 5.1979 28.298 5.92063 28.3859 6.79547C28.4722 7.65461 28.4722 8.72356 28.4722 10.087V14.3233C28.4722 16.8055 25.9979 18.8177 22.9457 18.8177H22.2102C21.9065 18.8177 21.6988 19.0671 21.8116 19.2965C22.6509 21.0028 20.2345 22.5454 18.3957 21.4772L16.1265 20.1591C15.6184 20.3058 15.0774 20.3949 14.5156 20.4168C14.3809 20.4221 14.2126 20.4221 13.9473 20.4221H13.9145L13.8443 20.4221C13.0644 20.4262 12.3035 20.6269 11.6638 20.9985L11.6181 21.0253L9.13633 22.4866C7.50059 23.4498 5.46036 22.0398 6.16559 20.5864C6.18608 20.5442 6.17909 20.5041 6.15089 20.4698C6.12304 20.4359 6.08749 20.4221 6.04628 20.4221H5.47424C2.97615 20.4221 0.972168 18.7555 0.972168 16.721L0.972168 13.3752C0.972161 12.3054 0.972156 11.4576 1.03989 10.7742C1.10914 10.0755 1.25362 9.48378 1.58788 8.943C2.12976 8.06631 2.99561 7.35166 4.06342 6.90315C4.28062 6.81193 4.50449 6.73775 4.73763 6.67722C4.83005 5.85347 5.01479 5.16626 5.40482 4.54374C6.07859 3.46832 7.15371 2.59398 8.47607 2.04603C9.28045 1.71272 10.1691 1.56476 11.2449 1.49328C12.3013 1.42309 13.6157 1.42309 15.2923 1.4231ZM6.61657 6.43066C7.38696 6.39291 8.29748 6.39294 9.39151 6.39297L11.4358 6.39298C12.7322 6.39297 13.762 6.39296 14.5925 6.4489C15.4427 6.50617 16.1651 6.62585 16.8254 6.90315C17.8932 7.35166 18.759 8.06631 19.3009 8.943C19.6352 9.48378 19.7796 10.0755 19.8489 10.7742C19.9166 11.4576 19.9166 12.3054 19.9166 13.3752V15.5449C19.9166 15.7426 19.9166 15.8682 19.9103 15.9785C19.8327 17.3293 19.0594 18.5305 17.8748 19.3424L19.4613 20.264C19.8102 20.4667 20.2686 20.174 20.1094 19.8502C19.5149 18.6415 20.6095 17.3267 22.2102 17.3267H22.9457C24.9854 17.3267 26.6388 15.982 26.6388 14.3233V10.1204C26.6388 8.71639 26.6381 7.70822 26.5586 6.91688C26.48 6.13425 26.3289 5.62957 26.0727 5.22062C25.5747 4.42575 24.78 3.7795 23.8026 3.37449C23.2998 3.16612 22.6792 3.04324 21.7168 2.97929C20.7438 2.91464 19.5041 2.91406 17.7777 2.91406H15.3333C13.6069 2.91406 12.3672 2.91464 11.3942 2.97929C10.4318 3.04324 9.81124 3.16612 9.30838 3.37449C8.33099 3.7795 7.53634 4.42575 7.03833 5.22062C6.8387 5.53925 6.70377 5.91406 6.61657 6.43066ZM9.49377 7.88394C7.65509 7.88394 6.56431 7.8869 5.76814 8.00409C5.40741 8.05719 5.13602 8.13071 4.90471 8.22787C4.18381 8.53066 3.59541 9.01481 3.2259 9.61262C3.04211 9.90998 2.92756 10.2859 2.8673 10.894C2.8062 11.5104 2.8055 12.2982 2.8055 13.4075V16.721C2.8055 17.9511 4.012 18.9311 5.47424 18.9311H6.04628C7.45221 18.9311 8.37652 20.0918 7.87095 21.1337C7.84959 21.1777 7.85521 21.2013 7.85993 21.2141C7.86681 21.2328 7.88416 21.2563 7.91461 21.276C7.94509 21.2957 7.97328 21.3018 7.98919 21.3025C7.997 21.3029 8.01886 21.3039 8.06117 21.279L10.543 19.8176L10.5982 19.7852C11.5441 19.2358 12.6726 18.9373 13.8324 18.9312L13.9145 18.9311C14.2232 18.9311 14.3432 18.9309 14.4277 18.9276C14.9377 18.9077 15.4199 18.8062 15.8572 18.6388C17.1164 18.1567 18.0091 17.1253 18.079 15.9089C18.083 15.8381 18.0833 15.75 18.0833 15.5224V13.4075C18.0833 12.2982 18.0826 11.5104 18.0215 10.894C17.9612 10.2859 17.8467 9.90998 17.6629 9.61262C17.2934 9.01481 16.705 8.53066 15.9841 8.22787C15.6276 8.07812 15.1761 7.98427 14.4412 7.93478C13.6952 7.88454 12.7413 7.88394 11.395 7.88394H9.49377Z" fill="#757575"/>
<path d="M7.99995 14.0963C7.99995 14.6452 7.45274 15.0903 6.77772 15.0903C6.10271 15.0903 5.5555 14.6452 5.5555 14.0963C5.5555 13.5473 6.10271 13.1023 6.77772 13.1023C7.45274 13.1023 7.99995 13.5473 7.99995 14.0963Z" fill="#757575"/>
<path d="M11.6666 14.0963C11.6666 14.6452 11.1194 15.0903 10.4444 15.0903C9.76938 15.0903 9.22217 14.6452 9.22217 14.0963C9.22217 13.5473 9.76938 13.1023 10.4444 13.1023C11.1194 13.1023 11.6666 13.5473 11.6666 14.0963Z" fill="#757575"/>
<path d="M15.3333 14.0963C15.3333 14.6452 14.7861 15.0903 14.1111 15.0903C13.436 15.0903 12.8888 14.6452 12.8888 14.0963C12.8888 13.5473 13.436 13.1023 14.1111 13.1023C14.7861 13.1023 15.3333 13.5473 15.3333 14.0963Z" fill="#757575"/>
</g>
<defs>
<clipPath id="clip0_56_1967">
<rect width="29.3333" height="23.8554" fill="white" transform="translate(0.666504 0.180664)"/>
</clipPath>
</defs>
</svg>
