<svg width="30" height="25" viewBox="0 0 30 25" fill="none" xmlns="http://www.w3.org/2000/svg">
<rect width="29.3333" height="23.8554" transform="translate(0.666504 0.180664)" fill="white"/>
<path d="M22.2673 9.59664C22.4902 9.22699 22.3025 8.78035 21.848 8.59903C21.3935 8.41771 20.8443 8.57038 20.6213 8.94002L18.8364 11.8991C18.2832 12.8163 16.6572 12.7715 16.1816 11.826C15.1071 9.68989 11.4337 9.5887 10.1839 11.6608L8.39907 14.6199C8.17612 14.9895 8.36384 15.4362 8.81836 15.6175C9.27288 15.7988 9.82209 15.6461 10.045 15.2765L11.8299 12.3174C12.3831 11.4002 14.0091 11.445 14.4848 12.3905C15.5593 14.5266 19.2326 14.6278 20.4824 12.5558L22.2673 9.59664Z" fill="#C7B7EB"/>
<path fill-rule="evenodd" clip-rule="evenodd" d="M20.7886 2.53998C19.3926 2.41698 17.6331 2.41698 15.3885 2.41699H15.2779C13.0332 2.41698 11.2737 2.41698 9.87775 2.53998C8.45321 2.66549 7.29896 2.92623 6.31346 3.50853C5.71684 3.86105 5.19216 4.28775 4.75869 4.77295C4.04268 5.57442 3.72207 6.51311 3.56773 7.67162C3.41649 8.80688 3.41649 10.2378 3.4165 12.0633V12.1532C3.41649 13.9787 3.41649 15.4096 3.56773 16.5449C3.72207 17.7034 4.04268 18.6421 4.75869 19.4436C5.19216 19.9288 5.71684 20.3555 6.31346 20.708C7.29896 21.2903 8.45321 21.551 9.87775 21.6765C11.2737 21.7995 13.0331 21.7995 15.2777 21.7995H15.3885C17.6331 21.7995 19.3927 21.7995 20.7886 21.6765C22.2131 21.551 23.3674 21.2903 24.3529 20.708C24.9495 20.3555 25.4742 19.9288 25.9077 19.4436C26.6237 18.6421 26.9443 17.7034 27.0986 16.5449C27.2499 15.4097 27.2498 13.9788 27.2498 12.1533V12.0633C27.2498 10.2378 27.2499 8.80686 27.0986 7.67162C26.9443 6.51311 26.6237 5.57442 25.9077 4.77295C25.4742 4.28774 24.9495 3.86105 24.3529 3.50853C23.3674 2.92623 22.2131 2.66549 20.7886 2.53998ZM7.39106 4.71474C8.01196 4.34788 8.80667 4.13404 10.0752 4.02226C11.3609 3.90898 13.0212 3.90796 15.3332 3.90796C17.6451 3.90796 19.3054 3.90898 20.5911 4.02226C21.8597 4.13404 22.6544 4.34788 23.2753 4.71474C23.7163 4.9753 24.1041 5.29069 24.4245 5.64932C24.8756 6.15426 25.1385 6.80056 25.2759 7.83222C25.4152 8.87783 25.4165 10.2281 25.4165 12.1083C25.4165 13.9884 25.4152 15.3387 25.2759 16.3843C25.1385 17.416 24.8756 18.0623 24.4245 18.5672C24.1041 18.9258 23.7163 19.2412 23.2753 19.5018C22.6544 19.8686 21.8597 20.0825 20.5911 20.1943C19.3054 20.3075 17.6451 20.3086 15.3332 20.3086C13.0212 20.3086 11.3609 20.3075 10.0752 20.1943C8.80667 20.0825 8.01196 19.8686 7.39106 19.5018C6.95008 19.2412 6.56228 18.9258 6.24189 18.5672C5.79078 18.0623 5.52783 17.416 5.39039 16.3843C5.2511 15.3387 5.24984 13.9884 5.24984 12.1083C5.24984 10.2281 5.2511 8.87783 5.39039 7.83222C5.52783 6.80056 5.79078 6.15426 6.24189 5.64932C6.56228 5.29069 6.95008 4.9753 7.39106 4.71474Z" fill="#C7B7EB"/>
</svg>
