<svg width="27" height="22" viewBox="0 0 27 22" fill="none" xmlns="http://www.w3.org/2000/svg">
<path d="M15.91 3.09837L15.1656 3.1899L15.1703 3.22803L15.1789 3.26548L15.91 3.09837ZM15.684 2.1125L16.3103 1.69992L16.3103 1.69992L15.684 2.1125ZM15.91 3.09838L16.6544 3.00685L16.6497 2.96871L16.6412 2.93126L15.91 3.09838ZM16.3096 4.69336L16.8485 4.1718L16.8485 4.17179L16.3096 4.69336ZM16.9687 4.99617L16.924 5.74484L16.9687 4.99617ZM18.4391 4.26028L18.0236 3.63587V3.63587L18.4391 4.26028ZM18.9062 3.94947L18.4907 3.32507V3.32507L18.9062 3.94947ZM20.0984 3.38204L20.1343 2.63285L20.1256 2.63253L20.0984 3.38204ZM20.1217 3.38315L20.1662 2.63443L20.1575 2.63401L20.1217 3.38315ZM21.2543 4.06186L20.7811 4.64373L20.7811 4.64373L21.2543 4.06186ZM22.337 4.94238L21.8638 5.52425L22.337 4.94238ZM22.8585 5.4269L23.4856 5.0155V5.0155L22.8585 5.4269ZM22.9089 6.43811L23.5738 6.78512L23.5738 6.78512L22.9089 6.43811ZM22.4382 6.97209L21.9094 6.44016V6.44016L22.4382 6.97209ZM21.6465 7.8802L22.3456 8.15189L22.3456 8.15189L21.6465 7.8802ZM22.1002 9.12057L22.459 8.46198L22.459 8.46198L22.1002 9.12057ZM23.2909 9.30368L23.2301 10.0512L23.2909 9.30368ZM23.843 9.34858L23.7822 10.0961L23.843 9.34858ZM24.8514 9.53634L25.2398 8.89476L25.2398 8.89476L24.8514 9.53634ZM25.2281 9.94491L24.5571 10.2801L25.2281 9.94491ZM25.2282 12.8982L24.5572 12.5631L24.5572 12.5631L25.2282 12.8982ZM24.8513 13.3069L25.2396 13.9486L25.2396 13.9486L24.8513 13.3069ZM23.8432 13.4946L23.7824 12.7471H23.7824L23.8432 13.4946ZM23.291 13.5395L23.3518 14.287H23.3518L23.291 13.5395ZM22.101 13.7225L21.7423 13.0638L21.7423 13.0638L22.101 13.7225ZM21.6472 14.9632L20.9482 15.235L20.9482 15.235L21.6472 14.9632ZM22.4384 15.8708L22.9672 15.3388L22.9672 15.3388L22.4384 15.8708ZM22.9089 16.4044L23.5738 16.0573L23.5738 16.0573L22.9089 16.4044ZM22.8585 17.4159L23.4855 17.8274V17.8274L22.8585 17.4159ZM22.3373 17.9002L21.8641 17.3183L21.8641 17.3183L22.3373 17.9002ZM21.2544 18.7808L20.7812 18.1989L21.2544 18.7808ZM20.1218 19.4595L20.1577 20.2087L20.1663 20.2082L20.1218 19.4595ZM20.0986 19.4607L20.1257 20.2102L20.1345 20.2098L20.0986 19.4607ZM18.9063 18.8932L19.3218 18.2688L18.9063 18.8932ZM18.4395 18.5826L18.024 19.207L18.024 19.207L18.4395 18.5826ZM16.9685 17.8465L17.0133 18.5952H17.0133L16.9685 17.8465ZM16.3098 18.1491L16.8486 18.6708H16.8486L16.3098 18.1491ZM15.91 19.7447L15.1657 19.6532L15.91 19.7447ZM15.6839 20.7309L15.0577 20.3182L15.0577 20.3182L15.6839 20.7309ZM15.2931 21.0766L14.96 20.4046L14.96 20.4046L15.2931 21.0766ZM11.3739 21.0766L11.707 20.4047L11.707 20.4047L11.3739 21.0766ZM10.983 20.7308L11.6093 20.3182L11.6093 20.3182L10.983 20.7308ZM10.7569 19.7448L11.5013 19.6533L10.7569 19.7448ZM10.3573 18.1496L9.81838 18.6712V18.6712L10.3573 18.1496ZM9.69835 17.8469L9.65365 18.5955H9.65365L9.69835 17.8469ZM8.2277 18.5828L7.81223 17.9584L7.81223 17.9584L8.2277 18.5828ZM7.76066 18.8936L8.17613 19.518H8.17613L7.76066 18.8936ZM6.56833 19.4611L6.53251 20.2102L6.54117 20.2106L6.56833 19.4611ZM6.54516 19.4599L6.50062 20.2087L6.50934 20.2091L6.54516 19.4599ZM5.41249 18.7812L5.8857 18.1993H5.8857L5.41249 18.7812ZM4.32977 17.9007L3.85656 18.4826L4.32977 17.9007ZM3.80835 17.4162L4.43543 17.0048L4.43543 17.0048L3.80835 17.4162ZM3.75794 16.405L4.42283 16.752L4.42283 16.752L3.75794 16.405ZM4.22861 15.871L3.69988 15.3391L4.22861 15.871ZM5.02017 14.963L5.71921 15.2348L5.02017 14.963ZM4.5665 13.7226L4.2077 14.3812H4.2077L4.5665 13.7226ZM3.37591 13.5395L3.31511 14.287H3.31511L3.37591 13.5395ZM2.82391 13.4946L2.8847 12.7471H2.8847L2.82391 13.4946ZM1.81565 13.3069L1.42726 13.9485H1.42726L1.81565 13.3069ZM1.43886 12.8982L2.10984 12.5631L2.10984 12.5631L1.43886 12.8982ZM1.43893 9.94484L2.10985 10.28H2.10985L1.43893 9.94484ZM1.81552 9.53638L2.204 10.1779H2.204L1.81552 9.53638ZM2.82409 9.34857L2.88488 10.0961H2.88488L2.82409 9.34857ZM3.37607 9.30368V8.55368H3.34563L3.31528 8.55615L3.37607 9.30368ZM3.37608 9.30368V10.0537H3.40653L3.43687 10.0512L3.37608 9.30368ZM4.56731 9.12046L4.92626 9.77898H4.92626L4.56731 9.12046ZM5.02085 7.88034L4.32174 8.15191L4.32174 8.15191L5.02085 7.88034ZM4.2289 6.97181L4.75762 6.43988L4.75762 6.43988L4.2289 6.97181ZM3.75799 6.43759L3.09305 6.78451L3.09305 6.78451L3.75799 6.43759ZM3.80839 5.42662L3.18124 5.0153L3.80839 5.42662ZM4.33008 4.94187L4.80329 5.52374L4.80329 5.52374L4.33008 4.94187ZM5.41264 4.06148L5.88584 4.64335L5.41264 4.06148ZM6.54528 3.38275L6.50942 2.63356L6.50072 2.63407L6.54528 3.38275ZM6.56849 3.38164L6.54133 2.63208L6.53263 2.6325L6.56849 3.38164ZM7.76077 3.94909L7.3453 4.57349L7.3453 4.57349L7.76077 3.94909ZM8.22811 4.26005L8.64358 3.63564L8.64358 3.63564L8.22811 4.26005ZM9.69818 4.99582L9.65366 4.24714H9.65366L9.69818 4.99582ZM10.3575 4.69289L10.8966 5.21438L10.8966 5.21438L10.3575 4.69289ZM10.7569 3.09824L11.5013 3.18977L11.5069 3.14418V3.09824H10.7569ZM10.7569 3.09823L10.0125 3.0067L10.0069 3.05229V3.09823H10.7569ZM10.9829 2.11258L10.3565 1.70007V1.70007L10.9829 2.11258ZM11.3741 1.76656L11.707 2.43859V2.43859L11.3741 1.76656ZM15.293 1.76661L14.9599 2.4386L14.9599 2.4386L15.293 1.76661ZM16.6544 3.00683C16.6235 2.75559 16.5954 2.52244 16.5555 2.32929C16.5135 2.12622 16.4477 1.90854 16.3103 1.69992L15.0577 2.52507C15.0491 2.51205 15.064 2.52387 15.0866 2.63313C15.1112 2.7523 15.1317 2.91429 15.1656 3.1899L16.6544 3.00683ZM16.6412 2.93126L16.6412 2.93125L15.1789 3.26548L15.1789 3.2655L16.6412 2.93126ZM16.8485 4.17179C16.8776 4.20185 16.8434 4.19399 16.7962 3.98132C16.749 3.76933 16.7118 3.47366 16.6544 3.00685L15.1656 3.18991C15.2192 3.62589 15.2653 4.00731 15.3319 4.30691C15.3984 4.60584 15.5085 4.94407 15.7706 5.21492L16.8485 4.17179ZM17.0133 4.2475C16.9508 4.24377 16.892 4.21676 16.8485 4.1718L15.7706 5.21492C16.0752 5.52969 16.4868 5.71878 16.924 5.74484L17.0133 4.2475ZM18.0236 3.63587C17.632 3.89642 17.3835 4.06081 17.1919 4.16314C16.9998 4.2658 16.9715 4.24501 17.0133 4.2475L16.924 5.74484C17.3003 5.76727 17.6286 5.63047 17.8987 5.48617C18.1694 5.34155 18.4888 5.12802 18.8545 4.88469L18.0236 3.63587ZM18.4907 3.32507L18.0236 3.63587L18.8545 4.88469L19.3216 4.57388L18.4907 3.32507ZM20.1256 2.63253C19.7896 2.62037 19.5056 2.72167 19.2568 2.8493C19.0249 2.96828 18.7665 3.14157 18.4907 3.32507L19.3216 4.57388C19.6261 4.37132 19.8028 4.25506 19.9415 4.18392C20.0041 4.15179 20.0396 4.13937 20.0573 4.13449C20.0655 4.13224 20.0695 4.1317 20.0703 4.1316C20.071 4.13152 20.071 4.13154 20.0713 4.13155L20.1256 2.63253ZM20.1575 2.63401L20.1343 2.6329L20.0626 4.13118L20.0858 4.13229L20.1575 2.63401ZM21.7275 3.47999C21.4705 3.27099 21.2298 3.07382 21.0103 2.93323C20.7749 2.78242 20.5019 2.65446 20.1662 2.63448L20.0771 4.13183C20.0774 4.13184 20.0774 4.13183 20.078 4.13197C20.0788 4.13215 20.0828 4.13306 20.0907 4.13609C20.1079 4.14264 20.142 4.1584 20.2013 4.19636C20.3325 4.28041 20.4974 4.41302 20.7811 4.64373L21.7275 3.47999ZM22.8102 4.36051L21.7275 3.47999L20.7811 4.64373L21.8638 5.52425L22.8102 4.36051ZM23.4856 5.0155C23.3205 4.76394 23.0553 4.55981 22.8102 4.36051L21.8638 5.52425C22.0154 5.64755 22.1066 5.72205 22.1721 5.78121C22.2347 5.83784 22.2393 5.85041 22.2314 5.83831L23.4856 5.0155ZM23.5738 6.78512C23.8672 6.22284 23.8335 5.54581 23.4856 5.0155L22.2314 5.8383C22.2811 5.91406 22.2859 6.01078 22.244 6.09111L23.5738 6.78512ZM22.9669 7.50402C23.1909 7.28134 23.4346 7.05184 23.5738 6.78512L22.244 6.0911C22.2507 6.07827 22.2474 6.09123 22.1906 6.15381C22.1314 6.2192 22.048 6.3024 21.9094 6.44016L22.9669 7.50402ZM22.3456 8.15189C22.3317 8.1876 22.3309 8.16365 22.45 8.03127C22.5614 7.90748 22.7222 7.74725 22.9669 7.50402L21.9094 6.44016C21.6776 6.67063 21.4809 6.86567 21.3348 7.02812C21.1964 7.18198 21.0381 7.37524 20.9475 7.60851L22.3456 8.15189ZM22.459 8.46198C22.3486 8.40183 22.3 8.26907 22.3456 8.15189L20.9475 7.6085C20.6287 8.42874 20.9686 9.35813 21.7413 9.77916L22.459 8.46198ZM23.3517 8.55615C23.0078 8.52818 22.7815 8.5095 22.6166 8.48676C22.4402 8.46244 22.4253 8.44365 22.459 8.46198L21.7413 9.77916C21.9611 9.8989 22.2067 9.94444 22.4117 9.9727C22.6282 10.0025 22.9042 10.0247 23.2301 10.0512L23.3517 8.55615ZM23.9038 8.60105L23.3517 8.55615L23.2301 10.0512L23.7822 10.0961L23.9038 8.60105ZM25.2398 8.89476C25.024 8.76408 24.8011 8.70684 24.5947 8.67295C24.3978 8.64064 24.1604 8.62192 23.9038 8.60105L23.7822 10.0961C24.0633 10.119 24.2293 10.1331 24.3517 10.1532C24.4646 10.1717 24.4771 10.1864 24.463 10.1779L25.2398 8.89476ZM25.899 9.60976C25.7513 9.31393 25.5227 9.06603 25.2398 8.89476L24.463 10.1779C24.5034 10.2024 24.536 10.2378 24.5571 10.2801L25.899 9.60976ZM26.0835 10.9652C26.0835 10.7077 26.0841 10.4697 26.0678 10.2708C26.0508 10.0623 26.0118 9.8355 25.899 9.60975L24.5571 10.2801C24.5498 10.2653 24.5635 10.2789 24.5728 10.3929C24.5829 10.5166 24.5835 10.6832 24.5835 10.9652H26.0835ZM26.0835 11.8782V10.9652H24.5835V11.8782H26.0835ZM25.8992 13.2332C26.0119 13.0075 26.0508 12.7809 26.0678 12.5724C26.0841 12.3736 26.0835 12.1356 26.0835 11.8782H24.5835C24.5835 12.1601 24.5829 12.3267 24.5728 12.4503C24.5635 12.5642 24.5498 12.5779 24.5572 12.5631L25.8992 13.2332ZM25.2396 13.9486C25.5227 13.7773 25.7514 13.5292 25.8992 13.2332L24.5572 12.5631C24.536 12.6054 24.5034 12.6408 24.4629 12.6653L25.2396 13.9486ZM23.904 14.2421C24.1605 14.2213 24.3978 14.2026 24.5946 14.1703C24.801 14.1364 25.0238 14.0792 25.2396 13.9486L24.4629 12.6653C24.477 12.6568 24.4646 12.6716 24.3517 12.6901C24.2293 12.7101 24.0634 12.7242 23.7824 12.7471L23.904 14.2421ZM23.3518 14.287L23.904 14.2421L23.7824 12.7471L23.2303 12.792L23.3518 14.287ZM22.4596 14.3812C22.426 14.3995 22.4409 14.3807 22.6172 14.3564C22.782 14.3337 23.0081 14.315 23.3518 14.287L23.2303 12.792C22.9046 12.8185 22.6287 12.8406 22.4123 12.8704C22.2074 12.8987 21.962 12.9442 21.7423 13.0638L22.4596 14.3812ZM22.3462 14.6913C22.3006 14.5741 22.3492 14.4413 22.4596 14.3811L21.7423 13.0638C20.9692 13.4848 20.6291 14.4146 20.9482 15.235L22.3462 14.6913ZM22.9672 15.3388C22.7226 15.0957 22.5619 14.9356 22.4506 14.8119C22.3316 14.6796 22.3323 14.6556 22.3462 14.6913L20.9482 15.235C21.0389 15.4681 21.1971 15.6613 21.3354 15.8151C21.4815 15.9774 21.678 16.1724 21.9097 16.4027L22.9672 15.3388ZM23.5738 16.0573C23.4346 15.7908 23.1911 15.5614 22.9672 15.3388L21.9097 16.4027C22.0482 16.5404 22.1316 16.6235 22.1908 16.6889C22.2475 16.7514 22.2508 16.7644 22.2441 16.7516L23.5738 16.0573ZM23.4855 17.8274C23.8336 17.297 23.8674 16.6197 23.5738 16.0573L22.2441 16.7515C22.286 16.8319 22.2812 16.9286 22.2315 17.0044L23.4855 17.8274ZM22.8105 18.482C23.0554 18.2829 23.3205 18.0788 23.4855 17.8274L22.2315 17.0044C22.2394 16.9923 22.2348 17.0049 22.1722 17.0615C22.1068 17.1206 22.0156 17.1951 21.8641 17.3183L22.8105 18.482ZM21.7276 19.3627L22.8105 18.482L21.8641 17.3183L20.7812 18.1989L21.7276 19.3627ZM20.1663 20.2082C20.502 20.1882 20.775 20.0603 21.0104 19.9095C21.2299 19.7689 21.4706 19.5717 21.7276 19.3627L20.7812 18.1989C20.4975 18.4297 20.3327 18.5623 20.2014 18.6463C20.1422 18.6843 20.108 18.7001 20.0908 18.7066C20.0829 18.7096 20.079 18.7105 20.0782 18.7107C20.0775 18.7109 20.0775 18.7108 20.0772 18.7109L20.1663 20.2082ZM20.1345 20.2098L20.1577 20.2087L20.0859 18.7104L20.0627 18.7115L20.1345 20.2098ZM18.4908 19.5176C18.7666 19.7011 19.025 19.8744 19.2569 19.9934C19.5057 20.121 19.7897 20.2223 20.1257 20.2102L20.0714 18.7111C20.0711 18.7112 20.0711 18.7112 20.0705 18.7111C20.0697 18.711 20.0656 18.7105 20.0575 18.7082C20.0398 18.7033 20.0043 18.6909 19.9416 18.6588C19.803 18.5876 19.6262 18.4714 19.3218 18.2688L18.4908 19.5176ZM18.024 19.207L18.4908 19.5176L19.3218 18.2688L18.855 17.9582L18.024 19.207ZM17.0133 18.5952C16.9715 18.5977 16.9998 18.5768 17.192 18.6795C17.3836 18.7819 17.6323 18.9464 18.024 19.207L18.855 17.9582C18.4891 17.7148 18.1696 17.5011 17.8988 17.3565C17.6286 17.2121 17.3001 17.0753 16.9237 17.0978L17.0133 18.5952ZM16.8486 18.6708C16.8921 18.6259 16.9509 18.5989 17.0133 18.5952L16.9237 17.0978C16.4867 17.124 16.0755 17.3129 15.771 17.6274L16.8486 18.6708ZM16.6544 19.8362C16.7119 19.3692 16.7491 19.0734 16.7962 18.8614C16.8436 18.6486 16.8777 18.6408 16.8486 18.6708L15.771 17.6274C15.5087 17.8983 15.3985 18.2367 15.332 18.5357C15.2654 18.8354 15.2193 19.217 15.1657 19.6532L16.6544 19.8362ZM16.3102 21.1436C16.4477 20.9349 16.5134 20.7172 16.5555 20.514C16.5954 20.3208 16.6235 20.0876 16.6544 19.8362L15.1657 19.6532C15.1317 19.9289 15.1112 20.0909 15.0866 20.2101C15.064 20.3194 15.0491 20.3313 15.0577 20.3182L16.3102 21.1436ZM15.6263 21.7485C15.9038 21.6109 16.1397 21.4022 16.3102 21.1436L15.0577 20.3182C15.0333 20.3552 14.9996 20.385 14.96 20.4046L15.6263 21.7485ZM14.2867 21.9307C14.5399 21.9307 14.7748 21.9313 14.9715 21.9152C15.1782 21.8982 15.4024 21.8595 15.6263 21.7485L14.96 20.4046C14.9739 20.3977 14.9604 20.4111 14.8491 20.4202C14.7278 20.4301 14.5645 20.4307 14.2867 20.4307V21.9307ZM12.3801 21.9307H14.2867V20.4307H12.3801V21.9307ZM11.0408 21.7486C11.2647 21.8596 11.4888 21.8983 11.6955 21.9152C11.8921 21.9313 12.127 21.9307 12.3801 21.9307V20.4307C12.1024 20.4307 11.9391 20.4301 11.8178 20.4202C11.7066 20.4111 11.693 20.3977 11.707 20.4047L11.0408 21.7486ZM10.3567 21.1435C10.5271 21.4022 10.7632 21.611 11.0408 21.7486L11.707 20.4047C11.6674 20.385 11.6336 20.3552 11.6093 20.3182L10.3567 21.1435ZM10.0125 19.8363C10.0434 20.0876 10.0715 20.3208 10.1115 20.514C10.1535 20.7171 10.2192 20.9348 10.3567 21.1435L11.6093 20.3182C11.6179 20.3312 11.603 20.3194 11.5804 20.2101C11.5557 20.0909 11.5352 19.9289 11.5013 19.6533L10.0125 19.8363ZM9.81838 18.6712C9.78929 18.6411 9.82345 18.649 9.87076 18.8617C9.9179 19.0737 9.95511 19.3695 10.0125 19.8363L11.5013 19.6533C11.4477 19.2172 11.4016 18.8357 11.335 18.5361C11.2685 18.2371 11.1584 17.8988 10.8962 17.628L9.81838 18.6712ZM9.65365 18.5955C9.71609 18.5992 9.77487 18.6262 9.81838 18.6712L10.8962 17.628C10.5916 17.3133 10.1802 17.1243 9.74305 17.0982L9.65365 18.5955ZM8.64317 19.2072C9.03481 18.9466 9.28342 18.7822 9.47499 18.6799C9.66719 18.5772 9.69541 18.598 9.65365 18.5955L9.74305 17.0982C9.36675 17.0757 9.03835 17.2125 8.7682 17.3568C8.49744 17.5015 8.178 17.715 7.81223 17.9584L8.64317 19.2072ZM8.17613 19.518L8.64318 19.2072L7.81223 17.9584L7.34518 18.2692L8.17613 19.518ZM6.54117 20.2106C6.87718 20.2227 7.16117 20.1214 7.40998 19.9938C7.64191 19.8748 7.90033 19.7015 8.17613 19.518L7.34518 18.2692C7.04074 18.4718 6.86398 18.588 6.7253 18.6592C6.66267 18.6913 6.62715 18.7037 6.60946 18.7086C6.60127 18.7109 6.59727 18.7114 6.59645 18.7115C6.59579 18.7116 6.59581 18.7116 6.5955 18.7115L6.54117 20.2106ZM6.50934 20.2091L6.53251 20.2102L6.60416 18.7119L6.58099 18.7108L6.50934 20.2091ZM4.93928 19.3631C5.19629 19.5721 5.43698 19.7693 5.65649 19.9099C5.89196 20.0607 6.16498 20.1887 6.50062 20.2086L6.58971 18.7113C6.5894 18.7113 6.58941 18.7113 6.58877 18.7111C6.58796 18.7109 6.58402 18.71 6.57609 18.707C6.55895 18.7005 6.52477 18.6847 6.4655 18.6467C6.33425 18.5627 6.1694 18.4301 5.8857 18.1993L4.93928 19.3631ZM3.85656 18.4826L4.93928 19.3631L5.8857 18.1993L4.80298 17.3188L3.85656 18.4826ZM3.18127 17.8276C3.34629 18.0792 3.61153 18.2833 3.85656 18.4826L4.80298 17.3188C4.65139 17.1955 4.56017 17.121 4.49472 17.0619C4.43207 17.0053 4.42748 16.9927 4.43543 17.0048L3.18127 17.8276ZM3.09306 16.0579C2.79957 16.6202 2.83332 17.2973 3.18127 17.8276L4.43543 17.0048C4.38572 16.929 4.3809 16.8323 4.42283 16.752L3.09306 16.0579ZM3.69988 15.3391C3.47588 15.5618 3.23225 15.7912 3.09306 16.0579L4.42283 16.752C4.41613 16.7648 4.41944 16.7519 4.47615 16.6893C4.53539 16.6239 4.61875 16.5407 4.75733 16.403L3.69988 15.3391ZM4.32112 14.6913C4.335 14.6556 4.33575 14.6796 4.21669 14.8119C4.10534 14.9357 3.94456 15.0959 3.69988 15.3391L4.75733 16.403C4.98917 16.1725 5.18577 15.9775 5.33188 15.8151C5.47028 15.6612 5.62855 15.468 5.71921 15.2348L4.32112 14.6913ZM4.2077 14.3812C4.31811 14.4413 4.36667 14.5741 4.32112 14.6913L5.71921 15.2348C6.03806 14.4145 5.69813 13.485 4.92531 13.064L4.2077 14.3812ZM3.31511 14.287C3.65896 14.315 3.88518 14.3337 4.0501 14.3564C4.22646 14.3807 4.24134 14.3995 4.2077 14.3812L4.92531 13.064C4.70556 12.9443 4.45997 12.8987 4.25497 12.8705C4.03854 12.8406 3.76251 12.8185 3.4367 12.792L3.31511 14.287ZM2.76311 14.2422L3.31511 14.287L3.4367 12.792L2.8847 12.7471L2.76311 14.2422ZM1.42726 13.9485C1.64309 14.0792 1.86591 14.1364 2.07235 14.1703C2.26921 14.2026 2.50653 14.2213 2.76312 14.2422L2.8847 12.7471C2.60361 12.7242 2.43766 12.7101 2.31525 12.6901C2.20242 12.6715 2.18994 12.6568 2.20403 12.6653L1.42726 13.9485ZM0.767891 13.2333C0.915677 13.5293 1.1443 13.7772 1.42726 13.9485L2.20403 12.6653C2.16361 12.6408 2.13095 12.6054 2.10984 12.5631L0.767891 13.2333ZM0.583496 11.8781C0.583496 12.1355 0.582915 12.3736 0.599157 12.5724C0.616189 12.7809 0.655163 13.0076 0.767891 13.2333L2.10984 12.5631C2.1172 12.5779 2.10349 12.5642 2.09418 12.4503C2.08408 12.3266 2.0835 12.1601 2.0835 11.8781H0.583496ZM0.583496 10.9653V11.8781H2.0835V10.9653H0.583496ZM0.768005 9.60964C0.655208 9.83541 0.61621 10.0622 0.599167 10.2708C0.582914 10.4697 0.583496 10.7078 0.583496 10.9653H2.0835C2.0835 10.6832 2.08408 10.5166 2.09418 10.3929C2.1035 10.2789 2.11722 10.2653 2.10985 10.28L0.768005 9.60964ZM1.42704 8.89483C1.14425 9.06607 0.915756 9.3139 0.768005 9.60964L2.10985 10.28C2.13096 10.2378 2.16361 10.2024 2.204 10.1779L1.42704 8.89483ZM2.7633 8.60104C2.50663 8.62192 2.26924 8.64064 2.07231 8.67296C1.86581 8.70685 1.64292 8.7641 1.42704 8.89483L2.204 10.1779C2.18991 10.1865 2.20238 10.1717 2.31525 10.1532C2.4377 10.1331 2.6037 10.119 2.88488 10.0961L2.7633 8.60104ZM3.31528 8.55615L2.76329 8.60104L2.88488 10.0961L3.43687 10.0512L3.31528 8.55615ZM3.37608 8.55368H3.37607V10.0537H3.37608V8.55368ZM4.20836 8.46194C4.24201 8.44359 4.22713 8.46239 4.05068 8.48673C3.88566 8.50948 3.65932 8.52817 3.31528 8.55615L3.43687 10.0512C3.76286 10.0247 4.03904 10.0025 4.25559 9.97266C4.4607 9.94438 4.70642 9.89882 4.92626 9.77898L4.20836 8.46194ZM4.32174 8.15191C4.36725 8.26906 4.31871 8.40178 4.20836 8.46194L4.92626 9.77898C5.69872 9.35792 6.03851 8.42885 5.71996 7.60878L4.32174 8.15191ZM3.70017 7.50374C3.94498 7.74708 4.10586 7.90739 4.21726 8.03123C4.33638 8.16367 4.33562 8.18763 4.32174 8.15191L5.71996 7.60878C5.6293 7.37539 5.47095 7.18204 5.33249 7.02811C5.1863 6.86558 4.98959 6.67045 4.75762 6.43988L3.70017 7.50374ZM3.09305 6.78451C3.23228 7.05137 3.47605 7.28097 3.70017 7.50374L4.75762 6.43988C4.61897 6.30207 4.53556 6.21883 4.47628 6.15341C4.41955 6.0908 4.41624 6.07783 4.42294 6.09068L3.09305 6.78451ZM3.18124 5.0153C2.8335 5.54551 2.79976 6.22234 3.09305 6.78451L4.42294 6.09068C4.38104 6.01037 4.38586 5.91368 4.43554 5.83793L3.18124 5.0153ZM3.85687 4.36C3.6117 4.55938 3.34631 4.7636 3.18124 5.0153L4.43554 5.83793C4.42759 5.85005 4.43218 5.83747 4.49486 5.78082C4.56035 5.72162 4.65162 5.64709 4.80329 5.52374L3.85687 4.36ZM4.93943 3.4796L3.85687 4.36L4.80329 5.52374L5.88584 4.64335L4.93943 3.4796ZM6.50072 2.63407C6.16509 2.65405 5.89208 2.78201 5.65661 2.93283C5.43711 3.07342 5.19643 3.2706 4.93943 3.4796L5.88584 4.64335C6.16954 4.41263 6.33438 4.28002 6.46563 4.19596C6.5249 4.15799 6.55908 4.14224 6.57622 4.13569C6.58415 4.13266 6.58809 4.13175 6.58889 4.13157C6.58954 4.13143 6.58953 4.13144 6.58983 4.13143L6.50072 2.63407ZM6.53263 2.6325L6.50942 2.63361L6.58113 4.13189L6.60434 4.13078L6.53263 2.6325ZM8.17624 3.32468C7.90045 3.14117 7.64204 2.96788 7.41011 2.8489C7.16132 2.72127 6.87733 2.61996 6.54134 2.63213L6.59564 4.13115C6.59594 4.13114 6.59593 4.13112 6.59658 4.1312C6.5974 4.1313 6.60141 4.13184 6.60959 4.13409C6.62728 4.13897 6.66281 4.15139 6.72544 4.18352C6.86411 4.25466 7.04086 4.37093 7.3453 4.57349L8.17624 3.32468ZM8.64358 3.63564L8.17624 3.32468L7.3453 4.57349L7.81264 4.88446L8.64358 3.63564ZM9.65366 4.24714C9.69541 4.24466 9.66719 4.26544 9.47507 4.16279C9.28357 4.06048 9.03506 3.89613 8.64358 3.63564L7.81264 4.88446C8.17826 5.12774 8.49758 5.34121 8.76823 5.48581C9.03827 5.63008 9.36653 5.76686 9.74269 5.7445L9.65366 4.24714ZM9.8185 4.17141C9.77497 4.2164 9.71615 4.24342 9.65366 4.24714L9.74269 5.7445C10.1801 5.71849 10.5919 5.52932 10.8966 5.21438L9.8185 4.17141ZM10.0125 3.00671C9.95516 3.47341 9.91797 3.76903 9.87084 3.98097C9.82357 4.19359 9.78942 4.20146 9.8185 4.17141L10.8966 5.21438C11.1586 4.94355 11.2686 4.60539 11.3351 4.30653C11.4017 4.00698 11.4477 3.62566 11.5013 3.18977L10.0125 3.00671ZM10.0069 3.09823V3.09824H11.5069V3.09823H10.0069ZM10.3565 1.70007C10.2192 1.90866 10.1534 2.12629 10.1114 2.32932C10.0715 2.52242 10.0434 2.75551 10.0125 3.0067L11.5013 3.18977C11.5352 2.91422 11.5557 2.75228 11.5804 2.63313C11.603 2.52389 11.6178 2.51207 11.6093 2.52509L10.3565 1.70007ZM11.0411 1.09453C10.7633 1.23218 10.527 1.44115 10.3565 1.70007L11.6093 2.52509C11.6336 2.48811 11.6674 2.45825 11.707 2.43859L11.0411 1.09453ZM12.3799 0.912598C12.1268 0.912598 11.8921 0.912015 11.6955 0.928089C11.4889 0.944987 11.2649 0.983646 11.0411 1.09453L11.707 2.43859C11.6931 2.44551 11.7066 2.43219 11.8178 2.4231C11.9391 2.41318 12.1023 2.4126 12.3799 2.4126V0.912598ZM14.2869 0.912598H12.3799V2.4126H14.2869V0.912598ZM15.626 1.09461C15.4022 0.983678 15.1781 0.945002 14.9714 0.928095C14.7749 0.912015 14.54 0.912598 14.2869 0.912598V2.4126C14.5646 2.4126 14.7279 2.41318 14.8491 2.4231C14.9603 2.4322 14.9739 2.44553 14.9599 2.4386L15.626 1.09461ZM16.3103 1.69992C16.1398 1.44112 15.9037 1.23223 15.626 1.09461L14.9599 2.4386C14.9996 2.45826 15.0333 2.4881 15.0577 2.52507L16.3103 1.69992ZM17.3835 11.4217C17.3835 13.0259 15.7226 14.5753 13.3335 14.5753V16.0753C16.2464 16.0753 18.8835 14.1292 18.8835 11.4217H17.3835ZM13.3335 8.26805C15.7226 8.26805 17.3835 9.81742 17.3835 11.4217H18.8835C18.8835 8.7141 16.2464 6.76805 13.3335 6.76805V8.26805ZM9.28355 11.4217C9.28355 9.81742 10.9445 8.26805 13.3335 8.26805V6.76805C10.4207 6.76805 7.78355 8.71411 7.78355 11.4217H9.28355ZM13.3335 14.5753C10.9445 14.5753 9.28355 13.0259 9.28355 11.4217H7.78355C7.78355 14.1292 10.4207 16.0753 13.3335 16.0753V14.5753Z" fill="#757575"/>
</svg>
