<svg width="30" height="24" viewBox="0 0 30 24" fill="none" xmlns="http://www.w3.org/2000/svg">
<rect width="29.3333" height="23.8554" transform="translate(0.666504 0.0361328)" fill="white"/>
<path d="M22.2673 9.45211C22.4902 9.08246 22.3025 8.63582 21.848 8.4545C21.3935 8.27318 20.8443 8.42584 20.6213 8.79549L18.8364 11.7546C18.2832 12.6718 16.6572 12.627 16.1816 11.6815C15.1071 9.54536 11.4337 9.44417 10.1839 11.5162L8.39907 14.4753C8.17612 14.845 8.36384 15.2916 8.81836 15.473C9.27288 15.6543 9.82209 15.5016 10.045 15.132L11.8299 12.1729C12.3831 11.2557 14.0091 11.3004 14.4848 12.246C15.5593 14.3821 19.2326 14.4833 20.4824 12.4112L22.2673 9.45211Z" fill="#C7B7EB"/>
<path fill-rule="evenodd" clip-rule="evenodd" d="M20.7886 2.39544C19.3926 2.27245 17.6331 2.27245 15.3885 2.27246H15.2779C13.0332 2.27245 11.2737 2.27245 9.87775 2.39544C8.45321 2.52096 7.29896 2.7817 6.31346 3.364C5.71684 3.71652 5.19216 4.14321 4.75869 4.62842C4.04268 5.42988 3.72207 6.36857 3.56773 7.52709C3.41649 8.66235 3.41649 10.0933 3.4165 11.9187V12.0087C3.41649 13.8342 3.41649 15.2651 3.56773 16.4004C3.72207 17.5589 4.04268 18.4976 4.75869 19.299C5.19216 19.7842 5.71684 20.2109 6.31346 20.5635C7.29896 21.1458 8.45321 21.4065 9.87775 21.532C11.2737 21.655 13.0331 21.655 15.2777 21.655H15.3885C17.6331 21.655 19.3927 21.655 20.7886 21.532C22.2131 21.4065 23.3674 21.1458 24.3529 20.5635C24.9495 20.2109 25.4742 19.7842 25.9077 19.299C26.6237 18.4976 26.9443 17.5589 27.0986 16.4004C27.2499 15.2651 27.2498 13.8342 27.2498 12.0088V11.9187C27.2498 10.0933 27.2499 8.66233 27.0986 7.52709C26.9443 6.36858 26.6237 5.42988 25.9077 4.62842C25.4742 4.14321 24.9495 3.71652 24.3529 3.364C23.3674 2.7817 22.2131 2.52096 20.7886 2.39544ZM7.39106 4.57021C8.01196 4.20335 8.80667 3.98951 10.0752 3.87773C11.3609 3.76445 13.0212 3.76343 15.3332 3.76343C17.6451 3.76343 19.3054 3.76445 20.5911 3.87773C21.8597 3.98951 22.6544 4.20335 23.2753 4.57021C23.7163 4.83077 24.1041 5.14616 24.4245 5.50478C24.8756 6.00973 25.1385 6.65603 25.2759 7.68769C25.4152 8.7333 25.4165 10.0835 25.4165 11.9637C25.4165 13.8439 25.4152 15.1942 25.2759 16.2398C25.1385 17.2714 24.8756 17.9177 24.4245 18.4227C24.1041 18.7813 23.7163 19.0967 23.2753 19.3572C22.6544 19.7241 21.8597 19.9379 20.5911 20.0497C19.3054 20.163 17.6451 20.164 15.3332 20.164C13.0212 20.164 11.3609 20.163 10.0752 20.0497C8.80667 19.9379 8.01196 19.7241 7.39106 19.3572C6.95008 19.0967 6.56228 18.7813 6.24189 18.4227C5.79078 17.9177 5.52783 17.2714 5.39039 16.2398C5.2511 15.1942 5.24984 13.8439 5.24984 11.9637C5.24984 10.0835 5.2511 8.7333 5.39039 7.68769C5.52783 6.65603 5.79078 6.00973 6.24189 5.50478C6.56228 5.14616 6.95008 4.83077 7.39106 4.57021Z" fill="#C7B7EB"/>
</svg>
