<svg width="52" height="45" viewBox="0 0 52 45" fill="none" xmlns="http://www.w3.org/2000/svg">
<path d="M15.819 26.2521C17.4924 29.5459 21.6409 31.875 25.9991 31.875C30.3387 31.875 34.4792 29.5399 36.1671 26.2604" stroke="#2329D6" stroke-linecap="round"/>
<path fill-rule="evenodd" clip-rule="evenodd" d="M19.5 18.75C20.6967 18.75 21.6667 17.9105 21.6667 16.875C21.6667 15.8395 20.6967 15 19.5 15C18.3034 15 17.3334 15.8395 17.3334 16.875C17.3334 17.9105 18.3034 18.75 19.5 18.75Z" fill="#2329D6"/>
<path fill-rule="evenodd" clip-rule="evenodd" d="M32.5 18.75C33.6967 18.75 34.6667 17.9105 34.6667 16.875C34.6667 15.8395 33.6967 15 32.5 15C31.3034 15 30.3334 15.8395 30.3334 16.875C30.3334 17.9105 31.3034 18.75 32.5 18.75Z" fill="#2329D6"/>
<path fill-rule="evenodd" clip-rule="evenodd" d="M26 41.25C37.9662 41.25 47.6667 32.8553 47.6667 22.5C47.6667 12.1447 37.9662 3.75 26 3.75C14.0339 3.75 4.33337 12.1447 4.33337 22.5C4.33337 32.8553 14.0339 41.25 26 41.25Z" stroke="#2329D6"/>
</svg>
